# Base_Straight - exported from Blocked In (Unity mesh, z negated to right-handed)
mtllib Base_Straight.mtl
o Base_Straight
v 0.200014 -0.250017 -0.500035
v 0.350024 -0.250017 -0.350024
v 0.350024 0.250017 -0.350024
v 0.200014 0.250017 -0.500035
v 0.350024 -0.250017 -0.350024
v 0.000000 -0.250017 -0.000000
v 0.000000 0.250017 -0.000000
v 0.350024 0.250017 -0.350024
v 0.000000 0.250017 -0.000000
v 0.200014 0.250017 -0.500035
v 0.350024 0.250017 -0.350024
v -0.350024 0.250017 -0.350024
v -0.200014 0.250017 -0.500035
v 0.000000 -0.250017 -0.000000
v -0.200014 -0.250017 -0.500035
v -0.350024 -0.250017 -0.350024
v 0.200014 -0.250017 -0.500035
v 0.350024 -0.250017 -0.350024
v -0.200014 0.250017 -0.500035
v -0.200014 -0.250017 -0.500035
v 0.200014 -0.250017 -0.500035
v 0.200014 0.250017 -0.500035
v -0.350024 0.250017 -0.350024
v 0.000000 0.250017 -0.000000
v 0.000000 -0.250017 -0.000000
v -0.350024 -0.250017 -0.350024
v -0.200014 0.250017 -0.500035
v -0.350024 0.250017 -0.350024
v -0.350024 -0.250017 -0.350024
v -0.200014 -0.250017 -0.500035
vt 1.000000 0.000000
vt 0.000000 0.000000
vt 0.000000 1.000000
vt 1.000000 1.000000
vt 1.000000 0.000000
vt 0.000000 0.000000
vt 0.000000 1.000000
vt 1.000000 1.000000
vt 0.500000 1.000000
vt 0.214286 0.000000
vt 0.000000 0.300000
vt 1.000000 0.300000
vt 0.785714 0.000000
vt 0.500000 1.000000
vt 0.214286 0.000000
vt 0.000000 0.300000
vt 0.785714 0.000000
vt 1.000000 0.300000
vt 0.000000 1.000000
vt 1.000000 1.000000
vt 1.000000 0.000000
vt 0.000000 0.000000
vt 1.000000 1.000000
vt 0.000000 1.000000
vt 0.000000 0.000000
vt 1.000000 0.000000
vt 1.000000 1.000000
vt 0.000000 1.000000
vt 0.000000 0.000000
vt 1.000000 0.000000
vn 0.70711 0.00000 -0.70711
vn 0.70711 0.00000 -0.70711
vn 0.70711 0.00000 -0.70711
vn 0.70711 0.00000 -0.70711
vn 0.70711 0.00000 0.70711
vn 0.70711 0.00000 0.70711
vn 0.70711 0.00000 0.70711
vn 0.70711 0.00000 0.70711
vn 0.00000 1.00000 -0.00000
vn 0.00000 1.00000 -0.00000
vn 0.00000 1.00000 -0.00000
vn 0.00000 1.00000 -0.00000
vn 0.00000 1.00000 -0.00000
vn 0.00000 -1.00000 -0.00000
vn 0.00000 -1.00000 -0.00000
vn 0.00000 -1.00000 -0.00000
vn 0.00000 -1.00000 -0.00000
vn 0.00000 -1.00000 -0.00000
vn 0.00000 0.00000 -1.00000
vn 0.00000 0.00000 -1.00000
vn 0.00000 0.00000 -1.00000
vn 0.00000 0.00000 -1.00000
vn -0.70711 0.00000 0.70711
vn -0.70711 0.00000 0.70711
vn -0.70711 0.00000 0.70711
vn -0.70711 0.00000 0.70711
vn -0.70711 0.00000 -0.70711
vn -0.70711 0.00000 -0.70711
vn -0.70711 0.00000 -0.70711
vn -0.70711 0.00000 -0.70711
g Base_Straight_sub0
usemtl BoardBlockMaterial
f 1/1/1 3/3/3 2/2/2
f 1/1/1 4/4/4 3/3/3
f 5/5/5 7/7/7 6/6/6
f 5/5/5 8/8/8 7/7/7
f 9/9/9 11/11/11 10/10/10
f 10/10/10 12/12/12 9/9/9
f 10/10/10 13/13/13 12/12/12
f 14/14/14 16/16/16 15/15/15
f 14/14/14 15/15/15 17/17/17
f 17/17/17 18/18/18 14/14/14
f 19/19/19 21/21/21 20/20/20
f 19/19/19 22/22/22 21/21/21
f 23/23/23 25/25/25 24/24/24
f 23/23/23 26/26/26 25/25/25
f 27/27/27 29/29/29 28/28/28
f 27/27/27 30/30/30 29/29/29
