# Base_Rounded - exported from Blocked In (Unity mesh, z negated to right-handed)
mtllib Base_Rounded.mtl
o Base_Rounded
v 0.000000 0.250017 -0.000000
v -0.350024 0.250017 -0.350024
v 0.350024 0.250017 -0.350024
v 0.350024 -0.250017 -0.350024
v 0.000000 -0.250017 -0.000000
v 0.000000 0.250017 -0.000000
v 0.350024 0.250017 -0.350024
v 0.350024 0.250017 -0.350024
v 0.200014 -0.250017 -0.500035
v 0.350024 -0.250017 -0.350024
v 0.200014 0.100007 -0.500035
v 0.201297 0.119587 -0.498752
v 0.205125 0.138833 -0.494924
v 0.211433 0.157414 -0.488616
v 0.220112 0.175012 -0.479937
v 0.231013 0.191328 -0.469036
v 0.243951 0.206080 -0.456098
v 0.311199 0.244906 -0.388850
v 0.275019 0.229920 -0.425030
v 0.000000 -0.250017 -0.000000
v -0.200014 -0.250017 -0.500035
v -0.350024 -0.250017 -0.350024
v 0.350024 -0.250017 -0.350024
v 0.200014 -0.250017 -0.500035
v -0.350024 0.250017 -0.350024
v -0.275019 0.229920 -0.425030
v -0.311199 0.244906 -0.388850
v -0.243951 0.206080 -0.456098
v -0.231013 0.191328 -0.469036
v -0.220112 0.175012 -0.479937
v -0.211433 0.157414 -0.488616
v -0.205125 0.138833 -0.494924
v -0.200014 0.100007 -0.500035
v -0.201297 0.119587 -0.498752
v -0.350024 -0.250017 -0.350024
v -0.200014 -0.250017 -0.500035
v 0.201297 0.119587 -0.498752
v -0.200014 0.100007 -0.500035
v 0.200014 0.100007 -0.500035
v -0.201297 0.119587 -0.498752
v -0.205125 0.138833 -0.494924
v 0.205125 0.138833 -0.494924
v 0.211433 0.157414 -0.488616
v -0.211433 0.157414 -0.488616
v -0.220112 0.175012 -0.479937
v 0.220112 0.175012 -0.479937
v 0.231013 0.191328 -0.469036
v -0.231013 0.191328 -0.469036
v -0.243951 0.206080 -0.456098
v 0.243951 0.206080 -0.456098
v -0.275019 0.229920 -0.425030
v 0.275019 0.229920 -0.425030
v -0.311199 0.244906 -0.388850
v 0.311199 0.244906 -0.388850
v -0.350024 0.250017 -0.350024
v 0.350024 0.250017 -0.350024
v -0.200014 -0.250017 -0.500035
v 0.200014 -0.250017 -0.500035
v 0.200014 0.100007 -0.500035
v -0.200014 0.100007 -0.500035
v -0.350024 -0.250017 -0.350024
v -0.350024 0.250017 -0.350024
v 0.000000 0.250017 -0.000000
v 0.000000 -0.250017 -0.000000
vt 0.500000 0.994036
vt 0.994071 0.000000
vt 0.005929 0.000000
vt 1.000000 0.000000
vt 0.000000 0.000000
vt 0.000000 1.000000
vt 1.000000 1.000000
vt 0.000000 0.994036
vt 1.000000 0.000000
vt 0.000000 0.000000
vt 1.000000 0.695825
vt 0.991445 0.734749
vt 0.965926 0.773008
vt 0.923880 0.809945
vt 0.866025 0.844930
vt 0.793353 0.877364
vt 0.707107 0.906692
vt 0.258819 0.983874
vt 0.500000 0.954083
vt 0.500000 1.000000
vt 0.214286 0.000000
vt 0.000000 0.300000
vt 1.000000 0.300000
vt 0.785714 0.000000
vt 1.000000 0.994036
vt 0.500000 0.954083
vt 0.741181 0.983874
vt 0.292893 0.906692
vt 0.206647 0.877364
vt 0.133975 0.844930
vt 0.076120 0.809945
vt 0.034074 0.773008
vt 0.000000 0.695825
vt 0.008555 0.734749
vt 1.000000 0.000000
vt 0.000000 0.000000
vt 0.083333 0.784138
vt 0.000000 0.217674
vt 0.000000 0.782326
vt 0.083333 0.215862
vt 0.166667 0.210459
vt 0.166667 0.789541
vt 0.250000 0.798445
vt 0.250000 0.201556
vt 0.333333 0.189305
vt 0.333333 0.810695
vt 0.416667 0.826083
vt 0.416667 0.173917
vt 0.500000 0.155655
vt 0.500000 0.844345
vt 0.666667 0.111801
vt 0.666667 0.888199
vt 0.833333 0.060732
vt 0.833333 0.939268
vt 1.000000 0.005929
vt 1.000000 0.994071
vt 1.000000 1.000000
vt 1.000000 0.000000
vt 0.000000 0.000000
vt 0.000000 1.000000
vt 1.000000 0.000000
vt 1.000000 1.000000
vt 0.000000 1.000000
vt 0.000000 0.000000
vn 0.00000 1.00000 -0.00000
vn 0.00000 1.00000 -0.00003
vn -0.00000 1.00000 -0.00003
vn 0.70711 0.00000 0.70711
vn 0.70711 0.00000 0.70711
vn 0.70711 0.00000 0.70711
vn 0.70711 0.00000 0.70711
vn 0.70711 -0.00000 -0.70711
vn 0.70711 0.00000 -0.70711
vn 0.70711 0.00000 -0.70711
vn 0.70711 0.00000 -0.70711
vn 0.70711 0.00000 -0.70711
vn 0.70711 0.00000 -0.70711
vn 0.70711 0.00000 -0.70711
vn 0.70711 -0.00000 -0.70711
vn 0.70711 -0.00000 -0.70711
vn 0.70711 0.00000 -0.70711
vn 0.70711 -0.00000 -0.70711
vn 0.70711 -0.00000 -0.70711
vn 0.00000 -1.00000 -0.00000
vn 0.00000 -1.00000 -0.00000
vn 0.00000 -1.00000 -0.00000
vn 0.00000 -1.00000 -0.00000
vn 0.00000 -1.00000 -0.00000
vn -0.70711 -0.00000 -0.70711
vn -0.70711 -0.00000 -0.70711
vn -0.70711 -0.00000 -0.70711
vn -0.70711 0.00000 -0.70711
vn -0.70711 -0.00000 -0.70711
vn -0.70711 -0.00000 -0.70711
vn -0.70711 -0.00000 -0.70711
vn -0.70711 -0.00000 -0.70711
vn -0.70711 0.00000 -0.70711
vn -0.70711 0.00000 -0.70711
vn -0.70711 0.00000 -0.70711
vn -0.70711 0.00000 -0.70711
vn 0.00000 0.13056 -0.99144
vn 0.00000 0.00000 -1.00000
vn 0.00000 0.00000 -1.00000
vn 0.00000 0.13053 -0.99144
vn 0.00000 0.25882 -0.96593
vn 0.00000 0.25880 -0.96593
vn 0.00000 0.38270 -0.92387
vn 0.00000 0.38271 -0.92387
vn 0.00000 0.50001 -0.86602
vn -0.00000 0.50001 -0.86602
vn -0.00000 0.60876 -0.79336
vn -0.00000 0.60878 -0.79334
vn -0.00000 0.70713 -0.70708
vn 0.00000 0.70711 -0.70711
vn -0.00000 0.86604 -0.49998
vn 0.00000 0.86604 -0.49998
vn -0.00001 0.96593 -0.25882
vn -0.00000 0.96593 -0.25882
vn 0.00000 1.00000 -0.00003
vn -0.00000 1.00000 -0.00003
vn 0.00000 0.00000 -1.00000
vn 0.00000 0.00000 -1.00000
vn 0.00000 0.00000 -1.00000
vn 0.00000 0.00000 -1.00000
vn -0.70711 0.00000 0.70711
vn -0.70711 0.00000 0.70711
vn -0.70711 0.00000 0.70711
vn -0.70711 0.00000 0.70711
g Base_Rounded_sub0
usemtl BoardBlockMaterial
f 1/1/1 3/3/3 2/2/2
f 4/4/4 6/6/6 5/5/5
f 4/4/4 7/7/7 6/6/6
f 8/8/8 10/10/10 9/9/9
f 8/8/8 9/9/9 11/11/11
f 8/8/8 11/11/11 12/12/12
f 8/8/8 12/12/12 13/13/13
f 13/13/13 14/14/14 8/8/8
f 14/14/14 15/15/15 8/8/8
f 15/15/15 16/16/16 8/8/8
f 8/8/8 16/16/16 17/17/17
f 17/17/17 18/18/18 8/8/8
f 17/17/17 19/19/19 18/18/18
f 20/20/20 22/22/22 21/21/21
f 21/21/21 23/23/23 20/20/20
f 21/21/21 24/24/24 23/23/23
f 25/25/25 27/27/27 26/26/26
f 25/25/25 26/26/26 28/28/28
f 28/28/28 29/29/29 25/25/25
f 25/25/25 29/29/29 30/30/30
f 25/25/25 30/30/30 31/31/31
f 25/25/25 31/31/31 32/32/32
f 32/32/32 33/33/33 25/25/25
f 32/32/32 34/34/34 33/33/33
f 33/33/33 35/35/35 25/25/25
f 33/33/33 36/36/36 35/35/35
f 37/37/37 39/39/39 38/38/38
f 37/37/37 38/38/38 40/40/40
f 40/40/40 41/41/41 37/37/37
f 41/41/41 42/42/42 37/37/37
f 43/43/43 42/42/42 41/41/41
f 43/43/43 41/41/41 44/44/44
f 44/44/44 45/45/45 43/43/43
f 45/45/45 46/46/46 43/43/43
f 47/47/47 46/46/46 45/45/45
f 47/47/47 45/45/45 48/48/48
f 48/48/48 49/49/49 47/47/47
f 49/49/49 50/50/50 47/47/47
f 50/50/50 49/49/49 51/51/51
f 50/50/50 51/51/51 52/52/52
f 52/52/52 51/51/51 53/53/53
f 52/52/52 53/53/53 54/54/54
f 54/54/54 53/53/53 55/55/55
f 54/54/54 55/55/55 56/56/56
f 57/57/57 59/59/59 58/58/58
f 57/57/57 60/60/60 59/59/59
f 61/61/61 63/63/63 62/62/62
f 61/61/61 64/64/64 63/63/63
