# Corner_Corner_Straight - exported from Blocked In (Unity mesh, z negated to right-handed)
mtllib Corner_Corner_Straight.mtl
o Corner_Corner_Straight
v 0.500035 -0.250017 -0.500035
v 0.200014 -0.250017 -0.500035
v 0.350024 -0.250017 -0.350024
v 0.500035 0.250017 -0.500035
v 0.350024 0.250017 -0.350024
v 0.200014 0.250017 -0.500035
v 0.200014 0.250017 -0.500035
v 0.350024 0.250017 -0.350024
v 0.350024 -0.250017 -0.350024
v 0.200014 -0.250017 -0.500035
v 0.350024 -0.250017 -0.350024
v 0.350024 0.250017 -0.350024
v 0.500035 0.250017 -0.500035
v 0.500035 -0.250017 -0.500035
v 0.500035 0.250017 -0.500035
v 0.200014 0.250017 -0.500035
v 0.200014 -0.250017 -0.500035
v 0.500035 -0.250017 -0.500035
vt 0.005929 1.000000
vt 0.994071 1.000000
vt 0.500000 0.005964
vt 0.994071 1.000000
vt 0.500000 0.005964
vt 0.005929 1.000000
vt 1.000000 0.000000
vt 0.000000 0.000000
vt 0.000000 1.000000
vt 1.000000 1.000000
vt 0.000000 1.000000
vt 0.000000 0.000000
vt 1.000000 0.000000
vt 1.000000 1.000000
vt 0.000000 0.000000
vt 0.000000 1.000000
vt 1.000000 1.000000
vt 1.000000 0.000000
vn 0.00000 -1.00000 -0.00000
vn 0.00000 -1.00000 -0.00000
vn 0.00000 -1.00000 -0.00000
vn 0.00000 1.00000 -0.00000
vn 0.00000 1.00000 -0.00000
vn 0.00000 1.00000 -0.00000
vn -0.70711 0.00000 0.70711
vn -0.70711 0.00000 0.70711
vn -0.70711 0.00000 0.70711
vn -0.70711 0.00000 0.70711
vn 0.70711 0.00000 0.70711
vn 0.70711 0.00000 0.70711
vn 0.70711 0.00000 0.70711
vn 0.70711 0.00000 0.70711
vn 0.00000 0.00000 -1.00000
vn 0.00000 0.00000 -1.00000
vn 0.00000 0.00000 -1.00000
vn 0.00000 0.00000 -1.00000
g Corner_Corner_Straight_sub0
usemtl BoardBlockMaterial
f 1/1/1 3/3/3 2/2/2
f 4/4/4 6/6/6 5/5/5
f 7/7/7 9/9/9 8/8/8
f 7/7/7 10/10/10 9/9/9
f 11/11/11 13/13/13 12/12/12
f 11/11/11 14/14/14 13/13/13
f 15/15/15 17/17/17 16/16/16
f 15/15/15 18/18/18 17/17/17
