# Corner_CounterConcave - exported from Blocked In (Unity mesh, z negated to right-handed)
mtllib Corner_CounterConcave.mtl
o Corner_CounterConcave
v 0.500035 -0.250017 -0.500035
v 0.200014 -0.250017 -0.500035
v 0.350024 -0.250017 -0.350024
v 0.200014 0.250017 -0.500035
v 0.355652 0.250017 -0.407862
v 0.350024 0.250017 -0.350024
v 0.390220 0.250017 -0.500035
v 0.372862 0.250017 -0.464838
v 0.469722 0.224572 -0.469722
v 0.470805 0.234576 -0.500035
v 0.500035 0.221585 -0.500035
v 0.451730 0.236996 -0.483212
v 0.464474 0.236876 -0.500035
v 0.427596 0.246626 -0.500035
v 0.429341 0.236996 -0.441443
v 0.437672 0.232540 -0.437672
v 0.426677 0.235743 -0.426677
v 0.401735 0.246726 -0.452878
v 0.395755 0.244119 -0.395755
v 0.426925 0.246726 -0.499871
v 0.425515 0.246989 -0.500035
v 0.414325 0.248594 -0.500035
v 0.386318 0.246726 -0.401838
v 0.389958 0.245412 -0.389958
v 0.372862 0.250017 -0.464838
v 0.390220 0.250017 -0.500035
v 0.355652 0.250017 -0.407862
v 0.350024 0.250017 -0.350024
v 0.427596 0.246626 -0.500035
v 0.470805 0.234576 -0.500035
v 0.464474 0.236876 -0.500035
v 0.200014 -0.250017 -0.500035
v 0.425515 0.246989 -0.500035
v 0.500035 -0.250017 -0.500035
v 0.500035 0.221585 -0.500035
v 0.390220 0.250017 -0.500035
v 0.200014 0.250017 -0.500035
v 0.414325 0.248594 -0.500035
v 0.500035 -0.250017 -0.500035
v 0.469722 0.224572 -0.469722
v 0.500035 0.221585 -0.500035
v 0.350024 -0.250017 -0.350024
v 0.437672 0.232540 -0.437672
v 0.426677 0.235743 -0.426677
v 0.395755 0.244119 -0.395755
v 0.350024 0.250017 -0.350024
v 0.389958 0.245412 -0.389958
v 0.200014 0.250017 -0.500035
v 0.350024 0.250017 -0.350024
v 0.350024 -0.250017 -0.350024
v 0.200014 -0.250017 -0.500035
vt 0.000000 0.005929
vt 0.000000 0.994071
vt 0.994036 0.500000
vt 1.000000 0.994071
vt 0.389222 0.185511
vt 0.005964 0.214748
vt 1.000000 0.005929
vt 0.766766 0.096103
vt 0.256783 0.938704
vt 0.117331 0.726990
vt 0.005929 0.994036
vt 0.250000 0.666667
vt 0.138757 0.669769
vt 0.247604 0.338376
vt 0.500000 0.666667
vt 0.501622 0.774346
vt 0.578165 0.698506
vt 0.500000 0.333333
vt 0.770205 0.446872
vt 0.250000 0.333333
vt 0.253026 0.319679
vt 0.281021 0.218969
vt 0.750000 0.333333
vt 0.802395 0.394588
vt 0.500000 0.000000
vt 0.335310 0.000000
vt 0.750000 0.000000
vt 0.994071 0.000000
vt 0.993218 0.241445
vt 0.969119 0.097426
vt 0.973720 0.118530
vt 0.000000 1.000000
vt 0.993944 0.248382
vt 0.000000 0.000000
vt 0.943140 0.000000
vt 1.000000 0.366025
vt 1.000000 1.000000
vt 0.997154 0.285681
vt 1.000000 0.000000
vt 0.797930 0.943452
vt 1.000000 0.937515
vt 0.000000 0.000000
vt 0.584275 0.959292
vt 0.510978 0.965659
vt 0.304849 0.982310
vt 0.000000 0.994036
vt 0.266205 0.984880
vt 1.000000 1.000000
vt 0.000000 1.000000
vt 0.000000 0.000000
vt 1.000000 0.000000
vn 0.00000 -1.00000 -0.00000
vn 0.00000 -1.00000 -0.00000
vn 0.00000 -1.00000 -0.00000
vn 0.00000 1.00000 -0.00000
vn -0.00000 1.00000 -0.00001
vn 0.00002 1.00000 -0.00000
vn 0.00000 1.00000 -0.00000
vn 0.00003 1.00000 0.00001
vn 0.46422 0.83039 0.30815
vn 0.33890 0.89705 0.28363
vn 0.41421 0.81048 0.41418
vn 0.33830 0.91320 0.22719
vn 0.31833 0.91239 0.25732
vn 0.17532 0.97739 0.11824
vn 0.37651 0.91319 0.15595
vn 0.43301 0.88349 0.17872
vn 0.40267 0.90486 0.13818
vn 0.19249 0.97806 0.07973
vn 0.27328 0.96068 0.04915
vn 0.17293 0.97802 0.11647
vn 0.16622 0.97982 0.11104
vn 0.11594 0.99051 0.07379
vn 0.20442 0.97806 0.04016
vn 0.24301 0.96930 0.03732
vn 0.00003 1.00000 0.00001
vn 0.00000 1.00000 -0.00000
vn -0.00000 1.00000 -0.00001
vn 0.00002 1.00000 -0.00000
vn 0.00000 0.00000 -1.00000
vn 0.00000 -0.00000 -1.00000
vn 0.00000 0.00000 -1.00000
vn 0.00000 -0.00000 -1.00000
vn 0.00000 0.00000 -1.00000
vn 0.00000 -0.00000 -1.00000
vn 0.00000 -0.00000 -1.00000
vn 0.00000 0.00000 -1.00000
vn 0.00000 0.00000 -1.00000
vn 0.00000 0.00000 -1.00000
vn 0.70711 0.00000 0.70711
vn 0.70711 0.00000 0.70711
vn 0.70711 0.00000 0.70711
vn 0.70711 0.00000 0.70711
vn 0.70711 0.00000 0.70711
vn 0.70711 0.00000 0.70711
vn 0.70711 0.00000 0.70711
vn 0.70711 0.00000 0.70711
vn 0.70711 0.00000 0.70711
vn -0.70711 0.00000 0.70711
vn -0.70711 0.00000 0.70711
vn -0.70711 0.00000 0.70711
vn -0.70711 0.00000 0.70711
g Corner_CounterConcave_sub0
usemtl BoardBlockMaterial
f 1/1/1 3/3/3 2/2/2
f 4/4/4 6/6/6 5/5/5
f 5/5/5 7/7/7 4/4/4
f 5/5/5 8/8/8 7/7/7
f 9/9/9 11/11/11 10/10/10
f 10/10/10 12/12/12 9/9/9
f 10/10/10 13/13/13 12/12/12
f 14/14/14 12/12/12 13/13/13
f 9/9/9 12/12/12 15/15/15
f 9/9/9 15/15/15 16/16/16
f 16/16/16 15/15/15 17/17/17
f 17/17/17 15/15/15 18/18/18
f 18/18/18 19/19/19 17/17/17
f 14/14/14 20/20/20 12/12/12
f 15/15/15 12/12/12 20/20/20
f 15/15/15 20/20/20 18/18/18
f 21/21/21 20/20/20 14/14/14
f 18/18/18 20/20/20 21/21/21
f 18/18/18 21/21/21 22/22/22
f 18/18/18 23/23/23 19/19/19
f 19/19/19 23/23/23 24/24/24
f 22/22/22 25/25/25 18/18/18
f 23/23/23 18/18/18 25/25/25
f 22/22/22 26/26/26 25/25/25
f 23/23/23 25/25/25 27/27/27
f 24/24/24 23/23/23 27/27/27
f 24/24/24 27/27/27 28/28/28
f 29/29/29 31/31/31 30/30/30
f 29/29/29 30/30/30 32/32/32
f 32/32/32 33/33/33 29/29/29
f 30/30/30 34/34/34 32/32/32
f 30/30/30 35/35/35 34/34/34
f 36/36/36 33/33/33 32/32/32
f 32/32/32 37/37/37 36/36/36
f 36/36/36 38/38/38 33/33/33
f 39/39/39 41/41/41 40/40/40
f 42/42/42 39/39/39 40/40/40
f 42/42/42 40/40/40 43/43/43
f 42/42/42 43/43/43 44/44/44
f 42/42/42 44/44/44 45/45/45
f 45/45/45 46/46/46 42/42/42
f 45/45/45 47/47/47 46/46/46
f 48/48/48 50/50/50 49/49/49
f 48/48/48 51/51/51 50/50/50
