# Corner_Corner - exported from Blocked In (Unity mesh, z negated to right-handed)
mtllib Corner_Corner.mtl
o Corner_Corner
v 0.350024 -0.250017 -0.350024
v 0.500035 -0.250017 -0.500035
v 0.200014 -0.250017 -0.500035
v 0.285849 0.235597 -0.414200
v 0.233120 0.194010 -0.466929
v 0.257127 0.217792 -0.442922
v 0.215045 0.165458 -0.485004
v 0.208532 0.149838 -0.491517
v 0.317827 0.246521 -0.382222
v 0.350024 0.250017 -0.350024
v 0.203820 0.133584 -0.496229
v 0.200014 0.100007 -0.500035
v 0.200969 0.116903 -0.499080
v 0.350024 -0.250017 -0.350024
v 0.200014 -0.250017 -0.500035
v 0.485004 0.165458 -0.485004
v 0.442922 0.217792 -0.442922
v 0.466929 0.194010 -0.466929
v 0.414200 0.235597 -0.414200
v 0.491517 0.149838 -0.491517
v 0.382222 0.246521 -0.382222
v 0.350024 0.250017 -0.350024
v 0.496229 0.133584 -0.496229
v 0.499080 0.116903 -0.499080
v 0.500035 0.100007 -0.500035
v 0.500035 -0.250017 -0.500035
v 0.350024 -0.250017 -0.350024
v 0.200014 -0.250017 -0.500035
v 0.500035 -0.250017 -0.500035
v 0.500035 0.100007 -0.500035
v 0.200014 0.100007 -0.500035
v 0.500035 0.100007 -0.500035
v 0.200969 0.116903 -0.499080
v 0.200014 0.100007 -0.500035
v 0.499080 0.116903 -0.499080
v 0.496229 0.133584 -0.496229
v 0.203820 0.133584 -0.496229
v 0.208532 0.149838 -0.491517
v 0.491517 0.149838 -0.491517
v 0.485004 0.165458 -0.485004
v 0.215045 0.165458 -0.485004
v 0.233120 0.194010 -0.466929
v 0.466929 0.194010 -0.466929
v 0.257127 0.217792 -0.442922
v 0.442922 0.217792 -0.442922
v 0.285849 0.235597 -0.414200
v 0.414200 0.235597 -0.414200
v 0.317827 0.246521 -0.382222
v 0.382222 0.246521 -0.382222
v 0.350024 0.250017 -0.350024
vt 0.005964 0.500000
vt 1.000000 0.994071
vt 1.000000 0.005929
vt 0.572191 0.965369
vt 0.220693 0.882697
vt 0.380730 0.929974
vt 0.100203 0.825937
vt 0.056786 0.794886
vt 0.785362 0.987086
vt 1.000000 0.994036
vt 0.025373 0.762575
vt 0.000000 0.695825
vt 0.006363 0.729414
vt 1.000000 0.000000
vt 0.000000 0.000000
vt 0.100203 0.825937
vt 0.380730 0.929974
vt 0.220693 0.882697
vt 0.572191 0.965369
vt 0.056786 0.794886
vt 0.785362 0.987086
vt 1.000000 0.994036
vt 0.025373 0.762575
vt 0.006363 0.729414
vt 0.000000 0.695825
vt 0.000000 0.000000
vt 1.000000 0.000000
vt 0.000000 0.000000
vt 0.000000 1.000000
vt 1.000000 1.000000
vt 1.000000 0.000000
vt 0.000000 0.994071
vt 0.071429 0.009073
vt 0.000000 0.005929
vt 0.071429 0.990927
vt 0.142857 0.981535
vt 0.142857 0.018465
vt 0.214286 0.033985
vt 0.214286 0.966015
vt 0.285714 0.944564
vt 0.285714 0.055436
vt 0.428571 0.114967
vt 0.428571 0.885033
vt 0.571429 0.194036
vt 0.571429 0.805964
vt 0.714286 0.288632
vt 0.714286 0.711368
vt 0.857143 0.393954
vt 0.857143 0.606046
vt 0.994036 0.500000
vn 0.00000 -1.00000 -0.00000
vn 0.00000 -1.00000 -0.00000
vn 0.00000 -1.00000 -0.00000
vn -0.70711 0.00000 0.70711
vn -0.70711 0.00000 0.70711
vn -0.70711 0.00000 0.70711
vn -0.70711 0.00000 0.70710
vn -0.70711 -0.00000 0.70711
vn -0.70711 0.00000 0.70711
vn -0.70711 0.00000 0.70711
vn -0.70711 -0.00000 0.70711
vn -0.70711 0.00000 0.70711
vn -0.70711 0.00000 0.70711
vn -0.70711 0.00000 0.70711
vn -0.70711 0.00000 0.70711
vn 0.70711 -0.00000 0.70710
vn 0.70711 0.00000 0.70711
vn 0.70711 0.00000 0.70711
vn 0.70711 0.00000 0.70711
vn 0.70711 -0.00000 0.70711
vn 0.70711 -0.00000 0.70711
vn 0.70711 -0.00000 0.70711
vn 0.70711 -0.00000 0.70711
vn 0.70711 0.00000 0.70711
vn 0.70711 0.00000 0.70711
vn 0.70711 0.00000 0.70711
vn 0.70711 0.00000 0.70711
vn 0.00000 0.00000 -1.00000
vn 0.00000 0.00000 -1.00000
vn 0.00000 0.00003 -1.00000
vn -0.00000 0.00000 -1.00000
vn 0.00000 0.00003 -1.00000
vn 0.00000 0.11262 -0.99364
vn -0.00000 0.00000 -1.00000
vn -0.00000 0.11264 -0.99364
vn -0.00000 0.22383 -0.97463
vn 0.00000 0.22382 -0.97463
vn 0.00000 0.33218 -0.94321
vn -0.00000 0.33219 -0.94321
vn 0.00000 0.43628 -0.89981
vn -0.00000 0.43633 -0.89979
vn -0.00000 0.62662 -0.77933
vn 0.00000 0.62662 -0.77933
vn -0.00000 0.78518 -0.61927
vn 0.00000 0.78518 -0.61927
vn -0.00000 0.90386 -0.42783
vn 0.00000 0.90386 -0.42783
vn 0.00000 0.97669 -0.21465
vn 0.00000 0.97669 -0.21465
vn 0.00001 1.00000 -0.00001
g Corner_Corner_sub0
usemtl BoardBlockMaterial
f 1/1/1 3/3/3 2/2/2
f 4/4/4 6/6/6 5/5/5
f 4/4/4 5/5/5 7/7/7
f 7/7/7 8/8/8 4/4/4
f 8/8/8 9/9/9 4/4/4
f 8/8/8 10/10/10 9/9/9
f 10/10/10 8/8/8 11/11/11
f 11/11/11 12/12/12 10/10/10
f 11/11/11 13/13/13 12/12/12
f 12/12/12 14/14/14 10/10/10
f 12/12/12 15/15/15 14/14/14
f 16/16/16 18/18/18 17/17/17
f 16/16/16 17/17/17 19/19/19
f 19/19/19 20/20/20 16/16/16
f 19/19/19 21/21/21 20/20/20
f 21/21/21 22/22/22 20/20/20
f 23/23/23 20/20/20 22/22/22
f 22/22/22 24/24/24 23/23/23
f 22/22/22 25/25/25 24/24/24
f 22/22/22 26/26/26 25/25/25
f 22/22/22 27/27/27 26/26/26
f 28/28/28 30/30/30 29/29/29
f 28/28/28 31/31/31 30/30/30
f 32/32/32 34/34/34 33/33/33
f 35/35/35 32/32/32 33/33/33
f 33/33/33 36/36/36 35/35/35
f 33/33/33 37/37/37 36/36/36
f 36/36/36 37/37/37 38/38/38
f 39/39/39 36/36/36 38/38/38
f 38/38/38 40/40/40 39/39/39
f 38/38/38 41/41/41 40/40/40
f 40/40/40 41/41/41 42/42/42
f 40/40/40 42/42/42 43/43/43
f 43/43/43 42/42/42 44/44/44
f 43/43/43 44/44/44 45/45/45
f 45/45/45 44/44/44 46/46/46
f 45/45/45 46/46/46 47/47/47
f 47/47/47 46/46/46 48/48/48
f 47/47/47 48/48/48 49/49/49
f 49/49/49 48/48/48 50/50/50
