# Corner_Concave_Center - exported from Blocked In (Unity mesh, z negated to right-handed)
mtllib Corner_Concave_Center.mtl
o Corner_Concave_Center
v 0.350024 0.250017 -0.350024
v 0.411879 0.250017 -0.467591
v 0.437899 0.250017 -0.437899
v 0.200014 -0.250017 -0.500035
v 0.350024 -0.250017 -0.350024
v 0.500035 -0.250017 -0.500035
v 0.406129 0.249394 -0.500035
v 0.411879 0.250017 -0.467591
v 0.390220 0.250017 -0.500035
v 0.427664 0.246614 -0.500035
v 0.436688 0.246726 -0.486597
v 0.457721 0.239128 -0.500035
v 0.459997 0.246726 -0.459997
v 0.437899 0.250017 -0.437899
v 0.481126 0.236996 -0.481126
v 0.500035 0.221585 -0.500035
v 0.411879 0.250017 -0.467591
v 0.350024 0.250017 -0.350024
v 0.200014 0.250017 -0.500035
v 0.390220 0.250017 -0.500035
v 0.350024 -0.250017 -0.350024
v 0.500035 0.221585 -0.500035
v 0.500035 -0.250017 -0.500035
v 0.481126 0.236996 -0.481126
v 0.437899 0.250017 -0.437899
v 0.459997 0.246726 -0.459997
v 0.350024 0.250017 -0.350024
v 0.500035 -0.250017 -0.500035
v 0.200014 0.250017 -0.500035
v 0.200014 -0.250017 -0.500035
v 0.390220 0.250017 -0.500035
v 0.406129 0.249394 -0.500035
v 0.427664 0.246614 -0.500035
v 0.500035 0.221585 -0.500035
v 0.457721 0.239128 -0.500035
v 0.200014 -0.250017 -0.500035
v 0.200014 0.250017 -0.500035
v 0.350024 0.250017 -0.350024
v 0.350024 -0.250017 -0.350024
vt 0.370947 0.994036
vt 0.114009 0.214986
vt 1.000000 0.000000
vt 0.005929 0.000000
vt 0.500000 0.994036
vt 0.994071 0.000000
vt 0.111452 0.144908
vt 0.500000 0.000000
vt 0.005964 0.000000
vt 0.271188 0.338987
vt 0.500000 0.333333
vt 0.533055 0.608912
vt 1.000000 0.333333
vt 1.000000 0.000000
vt 1.000000 0.666667
vt 1.000000 0.994036
vt 0.114009 0.214986
vt 0.370947 0.994036
vt 0.994071 0.000000
vt 0.203981 0.000000
vt 0.000000 0.000000
vt 1.000000 0.943140
vt 1.000000 0.000000
vt 0.873947 0.973959
vt 0.585786 1.000000
vt 0.733099 0.993418
vt 0.000000 1.000000
vt 1.000000 0.000000
vt 0.000000 1.000000
vt 1.000000 1.000000
vt 0.000000 0.366025
vt 0.001248 0.312999
vt 0.006807 0.241218
vt 0.056860 0.000000
vt 0.021778 0.141036
vt 1.000000 0.000000
vt 1.000000 1.000000
vt 0.000000 1.000000
vt 0.000000 0.000000
vn 0.00000 1.00000 -0.00000
vn -0.00000 1.00000 0.00001
vn 0.00001 1.00000 -0.00000
vn 0.00000 -1.00000 -0.00000
vn 0.00000 -1.00000 -0.00000
vn 0.00000 -1.00000 -0.00000
vn 0.07760 0.99584 -0.04771
vn -0.00000 1.00000 0.00001
vn -0.00001 1.00000 0.00001
vn 0.17559 0.97731 -0.11844
vn 0.16539 0.97805 -0.12671
vn 0.29492 0.92742 -0.23005
vn 0.14732 0.97806 -0.14730
vn 0.00001 1.00000 -0.00000
vn 0.28819 0.91319 -0.28814
vn 0.41420 0.81048 -0.41420
vn -0.00000 1.00000 0.00001
vn 0.00000 1.00000 -0.00000
vn 0.00000 1.00000 -0.00000
vn -0.00001 1.00000 0.00001
vn 0.70711 0.00000 0.70711
vn 0.70711 0.00000 0.70711
vn 0.70711 0.00000 0.70711
vn 0.70711 0.00000 0.70711
vn 0.70711 0.00000 0.70711
vn 0.70711 0.00000 0.70711
vn 0.70711 0.00000 0.70711
vn 0.00000 0.00000 -1.00000
vn 0.00000 0.00000 -1.00000
vn 0.00000 0.00000 -1.00000
vn 0.00000 -0.00000 -1.00000
vn 0.00000 -0.00000 -1.00000
vn 0.00000 0.00000 -1.00000
vn 0.00000 0.00000 -1.00000
vn 0.00000 0.00000 -1.00000
vn -0.70711 0.00000 0.70711
vn -0.70711 0.00000 0.70711
vn -0.70711 0.00000 0.70711
vn -0.70711 0.00000 0.70711
g Corner_Concave_Center_sub0
usemtl BoardBlockMaterial
f 1/1/1 3/3/3 2/2/2
f 4/4/4 6/6/6 5/5/5
f 7/7/7 9/9/9 8/8/8
f 8/8/8 10/10/10 7/7/7
f 8/8/8 11/11/11 10/10/10
f 10/10/10 11/11/11 12/12/12
f 13/13/13 11/11/11 8/8/8
f 12/12/12 11/11/11 13/13/13
f 13/13/13 8/8/8 14/14/14
f 12/12/12 13/13/13 15/15/15
f 12/12/12 15/15/15 16/16/16
f 17/17/17 19/19/19 18/18/18
f 17/17/17 20/20/20 19/19/19
f 21/21/21 23/23/23 22/22/22
f 21/21/21 22/22/22 24/24/24
f 24/24/24 25/25/25 21/21/21
f 24/24/24 26/26/26 25/25/25
f 25/25/25 27/27/27 21/21/21
f 28/28/28 30/30/30 29/29/29
f 28/28/28 29/29/29 31/31/31
f 28/28/28 31/31/31 32/32/32
f 28/28/28 32/32/32 33/33/33
f 33/33/33 34/34/34 28/28/28
f 33/33/33 35/35/35 34/34/34
f 36/36/36 38/38/38 37/37/37
f 36/36/36 39/39/39 38/38/38
