# Corner_Concave - exported from Blocked In (Unity mesh, z negated to right-handed)
mtllib Corner_Concave.mtl
o Corner_Concave
v 0.350024 0.100007 -0.500035
v 0.201297 0.119587 -0.498752
v 0.200014 0.100007 -0.500035
v 0.350024 0.133584 -0.496229
v 0.205125 0.138833 -0.494924
v 0.350024 0.138833 -0.494924
v 0.350024 0.165458 -0.485004
v 0.211433 0.157414 -0.488616
v 0.350024 0.175012 -0.479937
v 0.220112 0.175012 -0.479937
v 0.350024 0.194010 -0.466929
v 0.231013 0.191328 -0.469036
v 0.350024 0.206080 -0.456098
v 0.243951 0.206080 -0.456098
v 0.350024 0.217792 -0.442922
v 0.350024 0.229920 -0.425030
v 0.275019 0.229920 -0.425030
v 0.350024 0.235597 -0.414200
v 0.350024 0.244906 -0.388850
v 0.311199 0.244906 -0.388850
v 0.350024 0.250017 -0.350024
v 0.350024 0.246521 -0.382222
v 0.200014 0.100007 -0.500035
v 0.200014 -0.250017 -0.500035
v 0.350024 -0.250017 -0.500035
v 0.350024 0.100007 -0.500035
v 0.350024 0.250017 -0.350024
v 0.275019 0.229920 -0.425030
v 0.311199 0.244906 -0.388850
v 0.243951 0.206080 -0.456098
v 0.231013 0.191328 -0.469036
v 0.220112 0.175012 -0.479937
v 0.211433 0.157414 -0.488616
v 0.205125 0.138833 -0.494924
v 0.200014 0.100007 -0.500035
v 0.201297 0.119587 -0.498752
v 0.350024 -0.250017 -0.350024
v 0.200014 -0.250017 -0.500035
v 0.350024 -0.250017 -0.350024
v 0.350024 -0.250017 -0.500035
v 0.200014 -0.250017 -0.500035
v 0.379290 -0.250017 -0.502917
v 0.407431 -0.250017 -0.511454
v 0.500035 -0.250017 -0.500035
v 0.433366 -0.250017 -0.525316
v 0.456098 -0.250017 -0.543972
v 0.350024 -0.250017 -0.350024
v 0.500035 0.221585 -0.500035
v 0.500035 -0.250017 -0.500035
v 0.458901 0.226878 -0.458901
v 0.437672 0.232540 -0.437672
v 0.430348 0.234669 -0.430348
v 0.410769 0.240284 -0.410769
v 0.350024 0.250017 -0.350024
v 0.391142 0.245158 -0.391142
v 0.391142 0.245158 -0.391142
v 0.350024 0.250017 -0.350024
v 0.350024 0.246521 -0.382222
v 0.350024 0.244906 -0.388850
v 0.350024 0.235597 -0.414200
v 0.411066 0.235597 -0.422237
v 0.410769 0.240284 -0.410769
v 0.350024 0.229920 -0.425030
v 0.430348 0.234669 -0.430348
v 0.403632 0.217792 -0.449979
v 0.437672 0.232540 -0.437672
v 0.350024 0.217792 -0.442922
v 0.350024 0.206080 -0.456098
v 0.350024 0.194010 -0.466929
v 0.453586 0.217792 -0.470671
v 0.458901 0.226878 -0.458901
v 0.500035 0.221585 -0.500035
v 0.496483 0.217792 -0.503587
v 0.479508 0.194010 -0.520562
v 0.441583 0.194010 -0.491462
v 0.466727 0.165458 -0.533343
v 0.397419 0.194010 -0.473168
v 0.350024 0.175012 -0.479937
v 0.432545 0.165458 -0.507115
v 0.458789 0.133584 -0.541281
v 0.426933 0.133584 -0.516836
v 0.456098 0.100007 -0.543972
v 0.433366 0.100007 -0.525316
v 0.425030 0.100007 -0.520133
v 0.407431 0.100007 -0.511454
v 0.392740 0.165458 -0.490627
v 0.350024 0.165458 -0.485004
v 0.350024 0.138833 -0.494924
v 0.389835 0.133584 -0.501470
v 0.388850 0.100007 -0.505146
v 0.350024 0.133584 -0.496229
v 0.379290 0.100007 -0.502917
v 0.350024 0.100007 -0.500035
v 0.433366 -0.250017 -0.525316
v 0.456098 -0.250017 -0.543972
v 0.456098 0.100007 -0.543972
v 0.433366 0.100007 -0.525316
v 0.425030 0.100007 -0.520133
v 0.407431 0.100007 -0.511454
v 0.407431 -0.250017 -0.511454
v 0.388850 0.100007 -0.505146
v 0.379290 -0.250017 -0.502917
v 0.379290 0.100007 -0.502917
v 0.350024 -0.250017 -0.500035
v 0.350024 0.100007 -0.500035
v 0.458789 0.133584 -0.541281
v 0.479508 0.194010 -0.520562
v 0.466727 0.165458 -0.533343
v 0.496483 0.217792 -0.503587
v 0.456098 0.100007 -0.543972
v 0.500035 0.221585 -0.500035
v 0.456098 -0.250017 -0.543972
v 0.500035 -0.250017 -0.500035
vt 1.000000 0.000000
vt 0.916667 0.985532
vt 1.000000 0.994036
vt 0.856286 0.000000
vt 0.833333 0.960165
vt 0.833333 0.000000
vt 0.712571 0.000000
vt 0.750000 0.918369
vt 0.666667 0.000000
vt 0.666667 0.860860
vt 0.568857 0.000000
vt 0.583333 0.788622
vt 0.500000 0.000000
vt 0.500000 0.702889
vt 0.425143 0.000000
vt 0.333333 0.000000
vt 0.333333 0.497018
vt 0.281429 0.000000
vt 0.166667 0.000000
vt 0.166667 0.257275
vt 0.000000 0.000000
vt 0.137714 0.000000
vt 0.000000 1.000000
vt 1.000000 1.000000
vt 1.000000 0.000000
vt 0.000000 0.000000
vt 1.000000 0.005964
vt 0.500000 0.045917
vt 0.741181 0.016126
vt 0.292893 0.093308
vt 0.206647 0.122636
vt 0.133975 0.155070
vt 0.076120 0.190055
vt 0.034074 0.226992
vt 0.000000 0.304175
vt 0.008555 0.265251
vt 1.000000 1.000000
vt 0.000000 1.000000
vt 0.500000 0.005929
vt 0.500000 0.770216
vt 0.994071 0.770216
vt 0.403612 0.784902
vt 0.310927 0.828394
vt 0.005929 0.770216
vt 0.225509 0.899022
vt 0.150639 0.994071
vt 0.000000 1.000000
vt 1.000000 0.062485
vt 1.000000 1.000000
vt 0.725792 0.051964
vt 0.584275 0.040708
vt 0.535450 0.036476
vt 0.404937 0.025313
vt 0.000000 0.005964
vt 0.274096 0.015625
vt 0.200532 0.167479
vt 0.000000 0.005964
vt 0.000000 0.142857
vt 0.000000 0.171637
vt 0.000000 0.285714
vt 0.333333 0.285714
vt 0.316549 0.235177
vt 0.000000 0.337309
vt 0.446284 0.294727
vt 0.333333 0.428571
vt 0.498358 0.314486
vt 0.000000 0.428571
vt 0.000000 0.502982
vt 0.000000 0.571429
vt 0.666667 0.428571
vt 0.659244 0.362137
vt 1.000000 0.402016
vt 1.000000 0.428571
vt 1.000000 0.571429
vt 0.666667 0.571429
vt 1.000000 0.714286
vt 0.333333 0.571429
vt 0.000000 0.668655
vt 0.666667 0.714286
vt 1.000000 0.857143
vt 0.666667 0.857143
vt 1.000000 1.000000
vt 0.750000 1.000000
vt 0.666667 1.000000
vt 0.500000 1.000000
vt 0.333333 0.714286
vt 0.000000 0.714286
vt 0.000000 0.834327
vt 0.333333 0.857143
vt 0.333333 1.000000
vt 0.000000 0.857143
vt 0.250000 1.000000
vt 0.000000 1.000000
vt 0.250000 1.000000
vt 0.000000 1.000000
vt 0.000000 0.000000
vt 0.250000 0.000000
vt 0.333333 0.000000
vt 0.500000 0.000000
vt 0.500000 1.000000
vt 0.666667 0.000000
vt 0.750000 1.000000
vt 0.750000 0.000000
vt 1.000000 1.000000
vt 1.000000 0.000000
vt 0.938745 0.191451
vt 0.467199 0.064087
vt 0.758089 0.124269
vt 0.080837 0.013960
vt 1.000000 0.262225
vt 0.000000 0.005964
vt 1.000000 1.000000
vt 0.000000 1.000000
vn -0.00002 0.00002 -1.00000
vn 0.00000 0.13050 -0.99145
vn -0.00000 0.00000 -1.00000
vn -0.00003 0.22381 -0.97463
vn 0.00000 0.25879 -0.96593
vn -0.00002 0.25882 -0.96592
vn -0.00003 0.43629 -0.89980
vn -0.00000 0.38269 -0.92388
vn -0.00001 0.50000 -0.86602
vn 0.00000 0.50000 -0.86603
vn 0.00001 0.62664 -0.77931
vn -0.00000 0.60875 -0.79337
vn -0.00003 0.70711 -0.70710
vn -0.00001 0.70710 -0.70711
vn -0.00003 0.78518 -0.61926
vn -0.00003 0.86602 -0.50001
vn -0.00000 0.86602 -0.50001
vn -0.00001 0.90388 -0.42780
vn -0.00001 0.96592 -0.25883
vn -0.00000 0.96592 -0.25884
vn -0.00000 1.00000 -0.00003
vn -0.00001 0.97670 -0.21462
vn -0.00000 0.00000 -1.00000
vn 0.00000 0.00000 -1.00000
vn -0.00003 0.00000 -1.00000
vn -0.00002 0.00002 -1.00000
vn -0.70711 0.00000 0.70711
vn -0.70711 0.00000 0.70711
vn -0.70711 0.00000 0.70711
vn -0.70711 -0.00000 0.70711
vn -0.70711 0.00000 0.70711
vn -0.70711 0.00000 0.70711
vn -0.70711 0.00000 0.70711
vn -0.70711 0.00000 0.70711
vn -0.70711 0.00000 0.70711
vn -0.70711 0.00000 0.70711
vn -0.70711 0.00000 0.70711
vn -0.70711 0.00000 0.70711
vn 0.00000 -1.00000 -0.00000
vn -0.00000 -1.00000 -0.00000
vn -0.00000 -1.00000 -0.00000
vn 0.00000 -1.00000 -0.00000
vn 0.00000 -1.00000 -0.00000
vn 0.00000 -1.00000 -0.00000
vn 0.00000 -1.00000 -0.00000
vn 0.00000 -1.00000 -0.00000
vn 0.70711 0.00000 0.70711
vn 0.70711 0.00000 0.70711
vn 0.70711 0.00000 0.70711
vn 0.70711 -0.00000 0.70711
vn 0.70711 -0.00000 0.70711
vn 0.70711 0.00000 0.70711
vn 0.70711 0.00000 0.70711
vn 0.70711 0.00000 0.70711
vn 0.70711 0.00000 0.70711
vn -0.03960 0.96761 -0.24934
vn -0.00000 1.00000 -0.00003
vn -0.00001 0.97670 -0.21462
vn -0.00001 0.96592 -0.25883
vn -0.00001 0.90388 -0.42780
vn -0.11072 0.90387 -0.41324
vn -0.08717 0.93512 -0.34344
vn -0.00003 0.86602 -0.50001
vn -0.15132 0.89767 -0.41387
vn -0.16026 0.78519 -0.59816
vn -0.17871 0.88349 -0.43302
vn -0.00003 0.78518 -0.61926
vn -0.00003 0.70711 -0.70710
vn 0.00001 0.62664 -0.77931
vn -0.30964 0.78518 -0.53631
vn -0.26410 0.84574 -0.46365
vn -0.41419 0.81046 -0.41425
vn -0.43788 0.78518 -0.43789
vn -0.55103 0.62664 -0.55107
vn -0.38965 0.62665 -0.67489
vn -0.63622 0.43631 -0.63628
vn -0.20169 0.62665 -0.75275
vn -0.00001 0.50000 -0.86602
vn -0.44989 0.43632 -0.77924
vn -0.68915 0.22382 -0.68918
vn -0.48732 0.22380 -0.84406
vn -0.70710 0.00000 -0.70711
vn -0.55558 -0.00000 -0.83147
vn -0.49999 0.00003 -0.86603
vn -0.38269 0.00002 -0.92388
vn -0.23288 0.43631 -0.86914
vn -0.00003 0.43629 -0.89980
vn -0.00002 0.25882 -0.96592
vn -0.25225 0.22383 -0.94142
vn -0.25882 -0.00001 -0.96593
vn -0.00003 0.22381 -0.97463
vn -0.19508 -0.00000 -0.98079
vn -0.00002 0.00002 -1.00000
vn -0.55555 0.00000 -0.83148
vn -0.70707 0.00000 -0.70714
vn -0.70710 0.00000 -0.70711
vn -0.55558 -0.00000 -0.83147
vn -0.49999 0.00003 -0.86603
vn -0.38269 0.00002 -0.92388
vn -0.38268 -0.00009 -0.92388
vn -0.25882 -0.00001 -0.96593
vn -0.19511 0.00000 -0.98078
vn -0.19508 -0.00000 -0.98079
vn -0.00003 0.00000 -1.00000
vn -0.00002 0.00002 -1.00000
vn 0.70711 -0.00000 -0.70710
vn 0.70710 0.00000 -0.70711
vn 0.70710 0.00000 -0.70711
vn 0.70710 0.00000 -0.70711
vn 0.70711 -0.00000 -0.70711
vn 0.70711 0.00000 -0.70711
vn 0.70711 0.00000 -0.70711
vn 0.70711 0.00000 -0.70711
g Corner_Concave_sub0
usemtl BoardBlockMaterial
f 1/1/1 3/3/3 2/2/2
f 2/2/2 4/4/4 1/1/1
f 2/2/2 5/5/5 4/4/4
f 5/5/5 6/6/6 4/4/4
f 7/7/7 6/6/6 5/5/5
f 7/7/7 5/5/5 8/8/8
f 8/8/8 9/9/9 7/7/7
f 8/8/8 10/10/10 9/9/9
f 11/11/11 9/9/9 10/10/10
f 11/11/11 10/10/10 12/12/12
f 12/12/12 13/13/13 11/11/11
f 12/12/12 14/14/14 13/13/13
f 15/15/15 13/13/13 14/14/14
f 14/14/14 16/16/16 15/15/15
f 14/14/14 17/17/17 16/16/16
f 18/18/18 16/16/16 17/17/17
f 17/17/17 19/19/19 18/18/18
f 17/17/17 20/20/20 19/19/19
f 21/21/21 19/19/19 20/20/20
f 21/21/21 22/22/22 19/19/19
f 23/23/23 25/25/25 24/24/24
f 23/23/23 26/26/26 25/25/25
f 27/27/27 29/29/29 28/28/28
f 27/27/27 28/28/28 30/30/30
f 30/30/30 31/31/31 27/27/27
f 27/27/27 31/31/31 32/32/32
f 27/27/27 32/32/32 33/33/33
f 27/27/27 33/33/33 34/34/34
f 34/34/34 35/35/35 27/27/27
f 34/34/34 36/36/36 35/35/35
f 35/35/35 37/37/37 27/27/27
f 35/35/35 38/38/38 37/37/37
f 39/39/39 41/41/41 40/40/40
f 39/39/39 40/40/40 42/42/42
f 39/39/39 42/42/42 43/43/43
f 43/43/43 44/44/44 39/39/39
f 43/43/43 45/45/45 44/44/44
f 45/45/45 46/46/46 44/44/44
f 47/47/47 49/49/49 48/48/48
f 47/47/47 48/48/48 50/50/50
f 47/47/47 50/50/50 51/51/51
f 47/47/47 51/51/51 52/52/52
f 47/47/47 52/52/52 53/53/53
f 53/53/53 54/54/54 47/47/47
f 53/53/53 55/55/55 54/54/54
f 56/56/56 58/58/58 57/57/57
f 59/59/59 58/58/58 56/56/56
f 60/60/60 59/59/59 56/56/56
f 56/56/56 61/61/61 60/60/60
f 56/56/56 62/62/62 61/61/61
f 63/63/63 60/60/60 61/61/61
f 64/64/64 61/61/61 62/62/62
f 65/65/65 61/61/61 64/64/64
f 65/65/65 64/64/64 66/66/66
f 61/61/61 67/67/67 63/63/63
f 61/61/61 65/65/65 67/67/67
f 68/68/68 67/67/67 65/65/65
f 65/65/65 69/69/69 68/68/68
f 66/66/66 70/70/70 65/65/65
f 66/66/66 71/71/71 70/70/70
f 72/72/72 70/70/70 71/71/71
f 72/72/72 73/73/73 70/70/70
f 74/74/74 70/70/70 73/73/73
f 74/74/74 75/75/75 70/70/70
f 75/75/75 65/65/65 70/70/70
f 76/76/76 75/75/75 74/74/74
f 65/65/65 77/77/77 69/69/69
f 75/75/75 77/77/77 65/65/65
f 78/78/78 69/69/69 77/77/77
f 76/76/76 79/79/79 75/75/75
f 79/79/79 77/77/77 75/75/75
f 80/80/80 79/79/79 76/76/76
f 80/80/80 81/81/81 79/79/79
f 81/81/81 80/80/80 82/82/82
f 81/81/81 82/82/82 83/83/83
f 83/83/83 84/84/84 81/81/81
f 81/81/81 84/84/84 85/85/85
f 78/78/78 77/77/77 86/86/86
f 79/79/79 86/86/86 77/77/77
f 81/81/81 86/86/86 79/79/79
f 86/86/86 87/87/87 78/78/78
f 88/88/88 87/87/87 86/86/86
f 85/85/85 89/89/89 81/81/81
f 81/81/81 89/89/89 86/86/86
f 88/88/88 86/86/86 89/89/89
f 85/85/85 90/90/90 89/89/89
f 89/89/89 91/91/91 88/88/88
f 89/89/89 90/90/90 92/92/92
f 92/92/92 91/91/91 89/89/89
f 92/92/92 93/93/93 91/91/91
f 94/94/94 96/96/96 95/95/95
f 94/94/94 97/97/97 96/96/96
f 98/98/98 97/97/97 94/94/94
f 94/94/94 99/99/99 98/98/98
f 94/94/94 100/100/100 99/99/99
f 101/101/101 99/99/99 100/100/100
f 101/101/101 100/100/100 102/102/102
f 102/102/102 103/103/103 101/101/101
f 104/104/104 103/103/103 102/102/102
f 104/104/104 105/105/105 103/103/103
f 106/106/106 108/108/108 107/107/107
f 106/106/106 107/107/107 109/109/109
f 109/109/109 110/110/110 106/106/106
f 109/109/109 111/111/111 110/110/110
f 111/111/111 112/112/112 110/110/110
f 111/111/111 113/113/113 112/112/112
