# Corner_Corner_StraightToRound - exported from Blocked In (Unity mesh, z negated to right-handed)
mtllib Corner_Corner_StraightToRound.mtl
o Corner_Corner_StraightToRound
v 0.350024 0.250017 -0.500035
v 0.350024 0.250017 -0.350024
v 0.200014 0.250017 -0.500035
v 0.500035 -0.250017 -0.500035
v 0.200014 -0.250017 -0.500035
v 0.350024 -0.250017 -0.350024
v 0.500035 0.100007 -0.500035
v 0.499158 0.116201 -0.499158
v 0.496539 0.132205 -0.496539
v 0.496539 0.132205 -0.500035
v 0.491980 0.148502 -0.491980
v 0.485614 0.164183 -0.500035
v 0.485614 0.164183 -0.485614
v 0.467809 0.192904 -0.500035
v 0.467809 0.192904 -0.467809
v 0.444027 0.216911 -0.500035
v 0.444027 0.216911 -0.444027
v 0.415475 0.234986 -0.500035
v 0.415475 0.234986 -0.415475
v 0.383602 0.246211 -0.500035
v 0.383602 0.246211 -0.383602
v 0.350024 0.250017 -0.500035
v 0.350024 0.250017 -0.350024
v 0.415475 0.234986 -0.500035
v 0.467809 0.192904 -0.500035
v 0.444027 0.216911 -0.500035
v 0.485614 0.164183 -0.500035
v 0.496539 0.132205 -0.500035
v 0.383602 0.246211 -0.500035
v 0.350024 0.250017 -0.500035
v 0.500035 0.100007 -0.500035
v 0.200014 0.250017 -0.500035
v 0.200014 -0.250017 -0.500035
v 0.500035 -0.250017 -0.500035
v 0.485614 0.164183 -0.485614
v 0.444027 0.216911 -0.444027
v 0.467809 0.192904 -0.467809
v 0.415475 0.234986 -0.415475
v 0.491980 0.148502 -0.491980
v 0.383602 0.246211 -0.383602
v 0.350024 0.250017 -0.350024
v 0.496539 0.132205 -0.496539
v 0.499158 0.116201 -0.499158
v 0.500035 0.100007 -0.500035
v 0.500035 -0.250017 -0.500035
v 0.350024 -0.250017 -0.350024
v 0.350024 0.250017 -0.350024
v 0.350024 -0.250017 -0.350024
v 0.200014 -0.250017 -0.500035
v 0.200014 0.250017 -0.500035
vt 0.000000 0.000000
vt 0.000000 0.994036
vt 0.994036 0.000000
vt 0.994071 0.000000
vt 0.005929 0.000000
vt 0.500000 0.994036
vt 0.994036 1.000000
vt 0.925589 0.994191
vt 0.857143 0.976833
vt 0.857143 1.000000
vt 0.785714 0.946623
vt 0.714286 1.000000
vt 0.714286 0.904443
vt 0.571429 1.000000
vt 0.571429 0.786459
vt 0.428571 1.000000
vt 0.428571 0.628869
vt 0.285714 1.000000
vt 0.285714 0.439670
vt 0.142857 1.000000
vt 0.142857 0.228463
vt 0.000000 1.000000
vt 0.000000 0.005964
vt 0.969939 0.718154
vt 0.885781 0.892589
vt 0.933792 0.813321
vt 0.828343 0.951935
vt 0.764391 0.988347
vt 0.992388 0.611917
vt 1.000000 0.500000
vt 0.700000 1.000000
vt 1.000000 0.000000
vt 0.000000 0.000000
vt 0.000000 1.000000
vt 0.096131 0.176598
vt 0.373357 0.071777
vt 0.214822 0.119502
vt 0.563692 0.035846
vt 0.053697 0.207769
vt 0.776167 0.013531
vt 1.000000 0.005964
vt 0.023306 0.240168
vt 0.005844 0.271983
vt 0.000000 0.304175
vt 0.000000 1.000000
vt 1.000000 1.000000
vt 0.000000 0.000000
vt 0.000000 1.000000
vt 1.000000 1.000000
vt 1.000000 0.000000
vn 0.00004 1.00000 -0.00000
vn 0.00000 1.00000 -0.00000
vn 0.00000 1.00000 -0.00000
vn 0.00000 -1.00000 -0.00000
vn 0.00000 -1.00000 -0.00000
vn 0.00000 -1.00000 -0.00000
vn 1.00000 0.00002 -0.00004
vn 0.99415 0.10798 -0.00003
vn 0.97669 0.21465 -0.00005
vn 0.97669 0.21465 -0.00005
vn 0.94630 0.32328 -0.00002
vn 0.90387 0.42780 0.00000
vn 0.90387 0.42781 -0.00000
vn 0.78518 0.61927 -0.00000
vn 0.78517 0.61928 0.00000
vn 0.62664 0.77931 -0.00000
vn 0.62663 0.77932 0.00000
vn 0.43631 0.89980 -0.00000
vn 0.43631 0.89980 0.00000
vn 0.22383 0.97463 -0.00000
vn 0.22384 0.97463 0.00000
vn 0.00004 1.00000 -0.00000
vn 0.00000 1.00000 -0.00000
vn 0.00000 0.00000 -1.00000
vn 0.00000 0.00000 -1.00000
vn 0.00000 0.00000 -1.00000
vn 0.00000 -0.00000 -1.00000
vn 0.00000 -0.00000 -1.00000
vn 0.00000 0.00000 -1.00000
vn 0.00000 0.00000 -1.00000
vn 0.00000 0.00000 -1.00000
vn 0.00000 0.00000 -1.00000
vn 0.00000 0.00000 -1.00000
vn 0.00000 0.00000 -1.00000
vn 0.70710 0.00000 0.70711
vn 0.70711 0.00000 0.70711
vn 0.70711 0.00000 0.70711
vn 0.70711 0.00000 0.70711
vn 0.70711 0.00000 0.70711
vn 0.70711 -0.00000 0.70711
vn 0.70711 -0.00000 0.70711
vn 0.70711 0.00000 0.70711
vn 0.70711 -0.00000 0.70711
vn 0.70711 -0.00000 0.70711
vn 0.70711 0.00000 0.70711
vn 0.70711 0.00000 0.70711
vn -0.70711 0.00000 0.70711
vn -0.70711 0.00000 0.70711
vn -0.70711 0.00000 0.70711
vn -0.70711 0.00000 0.70711
g Corner_Corner_StraightToRound_sub0
usemtl BoardBlockMaterial
f 1/1/1 3/3/3 2/2/2
f 4/4/4 6/6/6 5/5/5
f 7/7/7 9/9/9 8/8/8
f 7/7/7 10/10/10 9/9/9
f 11/11/11 9/9/9 10/10/10
f 11/11/11 10/10/10 12/12/12
f 12/12/12 13/13/13 11/11/11
f 13/13/13 12/12/12 14/14/14
f 13/13/13 14/14/14 15/15/15
f 15/15/15 14/14/14 16/16/16
f 15/15/15 16/16/16 17/17/17
f 17/17/17 16/16/16 18/18/18
f 17/17/17 18/18/18 19/19/19
f 19/19/19 18/18/18 20/20/20
f 19/19/19 20/20/20 21/21/21
f 21/21/21 20/20/20 22/22/22
f 21/21/21 22/22/22 23/23/23
f 24/24/24 26/26/26 25/25/25
f 24/24/24 25/25/25 27/27/27
f 27/27/27 28/28/28 24/24/24
f 28/28/28 29/29/29 24/24/24
f 28/28/28 30/30/30 29/29/29
f 28/28/28 31/31/31 30/30/30
f 31/31/31 32/32/32 30/30/30
f 31/31/31 33/33/33 32/32/32
f 31/31/31 34/34/34 33/33/33
f 35/35/35 37/37/37 36/36/36
f 35/35/35 36/36/36 38/38/38
f 38/38/38 39/39/39 35/35/35
f 38/38/38 40/40/40 39/39/39
f 40/40/40 41/41/41 39/39/39
f 42/42/42 39/39/39 41/41/41
f 41/41/41 43/43/43 42/42/42
f 41/41/41 44/44/44 43/43/43
f 41/41/41 45/45/45 44/44/44
f 41/41/41 46/46/46 45/45/45
f 47/47/47 49/49/49 48/48/48
f 47/47/47 50/50/50 49/49/49
