# Corner_Round - exported from Blocked In (Unity mesh, z negated to right-handed)
mtllib Corner_Round.mtl
o Corner_Round
v 0.443203 0.171692 -0.443203
v 0.441887 0.175012 -0.441887
v 0.436424 0.187033 -0.436424
v 0.433311 0.183294 -0.442922
v 0.425030 0.206080 -0.425030
v 0.408917 0.202012 -0.442922
v 0.416836 0.216521 -0.416836
v 0.414672 0.218937 -0.414672
v 0.416495 0.166477 -0.466929
v 0.431433 0.147008 -0.466929
v 0.448111 0.157113 -0.448111
v 0.452484 0.138833 -0.452484
v 0.440824 0.124337 -0.466929
v 0.454219 0.128118 -0.454219
v 0.456098 0.100007 -0.456098
v 0.444027 0.100007 -0.466929
v 0.413245 0.116947 -0.485004
v 0.425030 0.100007 -0.479937
v 0.415475 0.100007 -0.485004
v 0.406707 0.132732 -0.485004
v 0.382458 0.108697 -0.496229
v 0.388850 0.100007 -0.494924
v 0.383602 0.100007 -0.496229
v 0.350024 0.100007 -0.500035
v 0.379103 0.116796 -0.496229
v 0.396305 0.146288 -0.485004
v 0.397026 0.181416 -0.466929
v 0.373767 0.123750 -0.496229
v 0.350024 0.100007 -0.500035
v 0.366813 0.129086 -0.496229
v 0.382750 0.156689 -0.485004
v 0.380509 0.213779 -0.442922
v 0.374354 0.190807 -0.466929
v 0.366964 0.163228 -0.485004
v 0.358715 0.132440 -0.496229
v 0.350024 0.100007 -0.500035
v 0.350024 0.133584 -0.496229
v 0.350024 0.165458 -0.485004
v 0.350024 0.194010 -0.466929
v 0.350024 0.217792 -0.442922
v 0.350024 0.235597 -0.414200
v 0.385118 0.230977 -0.414200
v 0.387393 0.240401 -0.387393
v 0.403061 0.229920 -0.403061
v 0.382376 0.242870 -0.382376
v 0.350024 0.246521 -0.382222
v 0.350024 0.250017 -0.350024
v 0.377478 0.244906 -0.377478
v 0.388850 -0.250017 -0.494924
v 0.350024 0.100007 -0.500035
v 0.350024 -0.250017 -0.500035
v 0.383602 0.100007 -0.496229
v 0.388850 0.100007 -0.494924
v 0.425030 -0.250017 -0.479937
v 0.415475 0.100007 -0.485004
v 0.425030 0.100007 -0.479937
v 0.456098 -0.250017 -0.456098
v 0.444027 0.100007 -0.466929
v 0.456098 0.100007 -0.456098
v 0.350024 -0.250017 -0.350024
v 0.456098 0.100007 -0.456098
v 0.456098 -0.250017 -0.456098
v 0.454219 0.128118 -0.454219
v 0.452484 0.138833 -0.452484
v 0.443203 0.171692 -0.443203
v 0.441887 0.175012 -0.441887
v 0.448111 0.157113 -0.448111
v 0.436424 0.187033 -0.436424
v 0.416836 0.216521 -0.416836
v 0.425030 0.206080 -0.425030
v 0.414672 0.218937 -0.414672
v 0.403061 0.229920 -0.403061
v 0.387393 0.240401 -0.387393
v 0.382376 0.242870 -0.382376
v 0.350024 0.250017 -0.350024
v 0.377478 0.244906 -0.377478
v 0.200014 0.100007 -0.500035
v 0.200014 -0.250017 -0.500035
v 0.350024 -0.250017 -0.500035
v 0.350024 0.100007 -0.500035
v 0.350024 -0.250017 -0.350024
v 0.350024 -0.250017 -0.500035
v 0.200014 -0.250017 -0.500035
v 0.388850 -0.250017 -0.494924
v 0.425030 -0.250017 -0.479937
v 0.456098 -0.250017 -0.456098
v 0.285849 0.235597 -0.414200
v 0.233120 0.194010 -0.466929
v 0.257127 0.217792 -0.442922
v 0.215045 0.165458 -0.485004
v 0.208532 0.149838 -0.491517
v 0.317827 0.246521 -0.382222
v 0.350024 0.250017 -0.350024
v 0.203820 0.133584 -0.496229
v 0.200014 0.100007 -0.500035
v 0.200969 0.116903 -0.499080
v 0.350024 -0.250017 -0.350024
v 0.200014 -0.250017 -0.500035
v 0.350024 0.100007 -0.500035
v 0.200969 0.116903 -0.499080
v 0.200014 0.100007 -0.500035
v 0.350024 0.133584 -0.496229
v 0.203820 0.133584 -0.496229
v 0.208532 0.149838 -0.491517
v 0.350024 0.165458 -0.485004
v 0.215045 0.165458 -0.485004
v 0.233120 0.194010 -0.466929
v 0.350024 0.194010 -0.466929
v 0.257127 0.217792 -0.442922
v 0.350024 0.217792 -0.442922
v 0.285849 0.235597 -0.414200
v 0.350024 0.235597 -0.414200
v 0.317827 0.246521 -0.382222
v 0.350024 0.246521 -0.382222
v 0.350024 0.250017 -0.350024
vt 0.582533 0.430085
vt 0.564094 0.423031
vt 0.497699 0.394373
vt 0.500000 0.428571
vt 0.391827 0.337309
vt 0.333333 0.428571
vt 0.331454 0.298074
vt 0.316972 0.287920
vt 0.500000 0.571429
vt 0.666667 0.571429
vt 0.664359 0.456967
vt 0.769405 0.481771
vt 0.833333 0.571429
vt 0.832237 0.491868
vt 1.000000 0.502982
vt 1.000000 0.571429
vt 0.833333 0.714286
vt 1.000000 0.668655
vt 1.000000 0.714286
vt 0.666667 0.714286
vt 0.833333 0.857143
vt 1.000000 0.834327
vt 1.000000 0.857143
vt 0.916667 1.000000
vt 0.666667 0.857143
vt 0.500000 0.714286
vt 0.333333 0.571429
vt 0.500000 0.857143
vt 0.583333 1.000000
vt 0.333333 0.857143
vt 0.333333 0.714286
vt 0.166667 0.428571
vt 0.166667 0.571429
vt 0.166667 0.714286
vt 0.166667 0.857143
vt 0.250000 1.000000
vt 0.000000 0.857143
vt 0.000000 0.714286
vt 0.000000 0.571429
vt 0.000000 0.428571
vt 0.000000 0.285714
vt 0.166667 0.285714
vt 0.165607 0.165280
vt 0.246752 0.234646
vt 0.141770 0.143519
vt 0.000000 0.142857
vt 0.000000 0.005964
vt 0.119206 0.122435
vt 0.666667 0.000000
vt 1.000000 1.000000
vt 1.000000 0.000000
vt 0.712571 1.000000
vt 0.666667 1.000000
vt 0.333333 0.000000
vt 0.425143 1.000000
vt 0.333333 1.000000
vt 0.000000 0.000000
vt 0.137714 1.000000
vt 0.000000 1.000000
vt 0.000000 0.000000
vt 1.000000 0.695825
vt 1.000000 0.000000
vt 0.982285 0.751708
vt 0.965926 0.773008
vt 0.878434 0.838329
vt 0.866025 0.844930
vt 0.924708 0.809347
vt 0.814522 0.868827
vt 0.629862 0.927447
vt 0.707107 0.906692
vt 0.609464 0.932251
vt 0.500000 0.954083
vt 0.352285 0.974918
vt 0.304988 0.979828
vt 0.000000 0.994036
vt 0.258819 0.983874
vt 0.000000 1.000000
vt 1.000000 1.000000
vt 1.000000 0.000000
vt 0.000000 0.000000
vt 0.584769 0.994036
vt 0.584769 0.000000
vt 0.005929 0.000000
vt 0.734584 0.033871
vt 0.874189 0.133176
vt 0.994071 0.291146
vt 0.427809 0.965369
vt 0.779307 0.882697
vt 0.619270 0.929974
vt 0.899797 0.825937
vt 0.943214 0.794886
vt 0.214638 0.987086
vt 0.000000 0.994036
vt 0.974627 0.762575
vt 1.000000 0.695825
vt 0.993637 0.729414
vt 0.000000 0.000000
vt 1.000000 0.000000
vt 0.000000 1.000000
vt 0.071429 0.012290
vt 0.000000 0.005964
vt 0.142857 1.000000
vt 0.142857 0.031185
vt 0.214286 0.062411
vt 0.285714 1.000000
vt 0.285714 0.105569
vt 0.428571 0.225341
vt 0.428571 1.000000
vt 0.571429 0.384423
vt 0.571429 1.000000
vt 0.714286 0.574743
vt 0.714286 1.000000
vt 0.857143 0.786642
vt 0.857143 1.000000
vt 0.994036 1.000000
vn 0.62112 0.47786 -0.62118
vn 0.61237 0.50001 -0.61237
vn 0.57594 0.58014 -0.57596
vn 0.55519 0.55521 -0.61928
vn 0.49998 0.70711 -0.50002
vn 0.39259 0.67998 -0.61927
vn 0.44538 0.77670 -0.44539
vn 0.43092 0.79282 -0.43098
vn 0.44310 0.44311 -0.77931
vn 0.54270 0.31332 -0.77930
vn 0.65384 0.38069 -0.65389
vn 0.68300 0.25882 -0.68302
vn 0.60530 0.16219 -0.77930
vn 0.69456 0.18739 -0.69460
vn 0.70709 0.00002 -0.70712
vn 0.62664 -0.00001 -0.77931
vn 0.42145 0.11295 -0.89979
vn 0.50002 0.00003 -0.86601
vn 0.43629 0.00002 -0.89981
vn 0.37785 0.21815 -0.89980
vn 0.21620 0.05791 -0.97463
vn 0.25882 -0.00000 -0.96593
vn 0.22383 0.00001 -0.97463
vn 0.00003 0.00003 -1.00000
vn 0.19384 0.11191 -0.97463
vn 0.30852 0.30852 -0.89980
vn 0.31332 0.54270 -0.77930
vn 0.15827 0.15827 -0.97463
vn 0.00003 0.00003 -1.00000
vn 0.11191 0.19384 -0.97463
vn 0.21815 0.37785 -0.89980
vn 0.20321 0.75844 -0.61925
vn 0.16219 0.60530 -0.77930
vn 0.11292 0.42144 -0.89980
vn 0.05793 0.21620 -0.97463
vn 0.00003 0.00003 -1.00000
vn 0.00002 0.22385 -0.97462
vn -0.00001 0.43631 -0.89980
vn 0.00002 0.62665 -0.77930
vn 0.00002 0.78518 -0.61927
vn 0.00001 0.90387 -0.42781
vn 0.23393 0.87307 -0.42781
vn 0.24909 0.93589 -0.24914
vn 0.35353 0.86603 -0.35357
vn 0.21565 0.95236 -0.21566
vn 0.00000 0.97669 -0.21464
vn 0.00001 1.00000 -0.00004
vn 0.18298 0.96594 -0.18300
vn 0.25882 -0.00000 -0.96593
vn 0.00003 0.00003 -1.00000
vn 0.00003 -0.00047 -1.00000
vn 0.22383 0.00001 -0.97463
vn 0.25882 -0.00000 -0.96593
vn 0.50001 0.00000 -0.86602
vn 0.43629 0.00002 -0.89981
vn 0.50002 0.00003 -0.86601
vn 0.70709 -0.00000 -0.70712
vn 0.62664 -0.00001 -0.77931
vn 0.70709 0.00002 -0.70712
vn 0.70711 0.00000 0.70711
vn 0.70711 0.00000 0.70711
vn 0.70711 0.00000 0.70711
vn 0.70711 0.00000 0.70711
vn 0.70711 -0.00000 0.70711
vn 0.70712 0.00000 0.70709
vn 0.70711 0.00000 0.70710
vn 0.70711 -0.00000 0.70711
vn 0.70711 -0.00000 0.70711
vn 0.70711 0.00000 0.70710
vn 0.70711 -0.00000 0.70711
vn 0.70711 0.00000 0.70711
vn 0.70711 0.00000 0.70711
vn 0.70710 0.00000 0.70711
vn 0.70711 0.00000 0.70711
vn 0.70711 0.00000 0.70711
vn 0.70711 0.00000 0.70711
vn -0.00000 0.00000 -1.00000
vn 0.00000 0.00000 -1.00000
vn 0.00003 -0.00047 -1.00000
vn 0.00003 0.00003 -1.00000
vn 0.00000 -1.00000 -0.00000
vn -0.00000 -1.00000 -0.00000
vn 0.00000 -1.00000 -0.00000
vn -0.00000 -1.00000 -0.00000
vn -0.00000 -1.00000 -0.00000
vn 0.00000 -1.00000 -0.00000
vn -0.70711 0.00000 0.70711
vn -0.70711 0.00000 0.70711
vn -0.70711 0.00000 0.70711
vn -0.70711 0.00000 0.70710
vn -0.70711 -0.00000 0.70711
vn -0.70711 0.00000 0.70711
vn -0.70711 0.00000 0.70711
vn -0.70711 -0.00000 0.70711
vn -0.70711 0.00000 0.70711
vn -0.70711 0.00000 0.70711
vn -0.70711 0.00000 0.70711
vn -0.70711 0.00000 0.70711
vn 0.00003 0.00003 -1.00000
vn 0.00000 0.11261 -0.99364
vn -0.00000 0.00000 -1.00000
vn 0.00002 0.22385 -0.97462
vn 0.00000 0.22381 -0.97463
vn 0.00000 0.33216 -0.94322
vn -0.00001 0.43631 -0.89980
vn -0.00000 0.43632 -0.89979
vn -0.00000 0.62665 -0.77930
vn 0.00002 0.62665 -0.77930
vn -0.00000 0.78518 -0.61927
vn 0.00002 0.78518 -0.61927
vn -0.00000 0.90386 -0.42783
vn 0.00001 0.90387 -0.42781
vn 0.00000 0.97669 -0.21465
vn 0.00000 0.97669 -0.21464
vn 0.00001 1.00000 -0.00004
g Corner_Round_sub0
usemtl BoardBlockMaterial
f 1/1/1 3/3/3 2/2/2
f 1/1/1 4/4/4 3/3/3
f 5/5/5 3/3/3 4/4/4
f 5/5/5 4/4/4 6/6/6
f 6/6/6 7/7/7 5/5/5
f 8/8/8 7/7/7 6/6/6
f 9/9/9 4/4/4 1/1/1
f 9/9/9 6/6/6 4/4/4
f 1/1/1 10/10/10 9/9/9
f 1/1/1 11/11/11 10/10/10
f 10/10/10 11/11/11 12/12/12
f 12/12/12 13/13/13 10/10/10
f 12/12/12 14/14/14 13/13/13
f 15/15/15 13/13/13 14/14/14
f 15/15/15 16/16/16 13/13/13
f 17/17/17 13/13/13 16/16/16
f 17/17/17 10/10/10 13/13/13
f 17/17/17 16/16/16 18/18/18
f 18/18/18 19/19/19 17/17/17
f 17/17/17 20/20/20 10/10/10
f 20/20/20 9/9/9 10/10/10
f 21/21/21 17/17/17 19/19/19
f 21/21/21 20/20/20 17/17/17
f 21/21/21 19/19/19 22/22/22
f 22/22/22 23/23/23 21/21/21
f 24/24/24 21/21/21 23/23/23
f 24/24/24 25/25/25 21/21/21
f 21/21/21 25/25/25 20/20/20
f 20/20/20 26/26/26 9/9/9
f 25/25/25 26/26/26 20/20/20
f 26/26/26 27/27/27 9/9/9
f 9/9/9 27/27/27 6/6/6
f 25/25/25 28/28/28 26/26/26
f 29/29/29 28/28/28 25/25/25
f 29/29/29 30/30/30 28/28/28
f 28/28/28 31/31/31 26/26/26
f 26/26/26 31/31/31 27/27/27
f 28/28/28 30/30/30 31/31/31
f 27/27/27 32/32/32 6/6/6
f 8/8/8 6/6/6 32/32/32
f 31/31/31 33/33/33 27/27/27
f 27/27/27 33/33/33 32/32/32
f 30/30/30 34/34/34 31/31/31
f 31/31/31 34/34/34 33/33/33
f 30/30/30 35/35/35 34/34/34
f 36/36/36 35/35/35 30/30/30
f 36/36/36 37/37/37 35/35/35
f 35/35/35 37/37/37 38/38/38
f 35/35/35 38/38/38 34/34/34
f 34/34/34 38/38/38 39/39/39
f 34/34/34 39/39/39 33/33/33
f 33/33/33 39/39/39 40/40/40
f 33/33/33 40/40/40 32/32/32
f 32/32/32 40/40/40 41/41/41
f 32/32/32 42/42/42 8/8/8
f 32/32/32 41/41/41 42/42/42
f 8/8/8 42/42/42 43/43/43
f 8/8/8 43/43/43 44/44/44
f 45/45/45 43/43/43 42/42/42
f 45/45/45 42/42/42 41/41/41
f 41/41/41 46/46/46 45/45/45
f 45/45/45 46/46/46 47/47/47
f 45/45/45 47/47/47 48/48/48
f 49/49/49 51/51/51 50/50/50
f 49/49/49 50/50/50 52/52/52
f 52/52/52 53/53/53 49/49/49
f 54/54/54 49/49/49 53/53/53
f 54/54/54 53/53/53 55/55/55
f 55/55/55 56/56/56 54/54/54
f 57/57/57 54/54/54 56/56/56
f 57/57/57 56/56/56 58/58/58
f 58/58/58 59/59/59 57/57/57
f 60/60/60 62/62/62 61/61/61
f 60/60/60 61/61/61 63/63/63
f 60/60/60 63/63/63 64/64/64
f 64/64/64 65/65/65 60/60/60
f 65/65/65 66/66/66 60/60/60
f 64/64/64 67/67/67 65/65/65
f 60/60/60 66/66/66 68/68/68
f 68/68/68 69/69/69 60/60/60
f 68/68/68 70/70/70 69/69/69
f 60/60/60 69/69/69 71/71/71
f 60/60/60 71/71/71 72/72/72
f 60/60/60 72/72/72 73/73/73
f 73/73/73 74/74/74 60/60/60
f 74/74/74 75/75/75 60/60/60
f 74/74/74 76/76/76 75/75/75
f 77/77/77 79/79/79 78/78/78
f 77/77/77 80/80/80 79/79/79
f 81/81/81 83/83/83 82/82/82
f 81/81/81 82/82/82 84/84/84
f 81/81/81 84/84/84 85/85/85
f 85/85/85 86/86/86 81/81/81
f 87/87/87 89/89/89 88/88/88
f 87/87/87 88/88/88 90/90/90
f 90/90/90 91/91/91 87/87/87
f 91/91/91 92/92/92 87/87/87
f 91/91/91 93/93/93 92/92/92
f 93/93/93 91/91/91 94/94/94
f 94/94/94 95/95/95 93/93/93
f 94/94/94 96/96/96 95/95/95
f 95/95/95 97/97/97 93/93/93
f 95/95/95 98/98/98 97/97/97
f 99/99/99 101/101/101 100/100/100
f 100/100/100 102/102/102 99/99/99
f 100/100/100 103/103/103 102/102/102
f 102/102/102 103/103/103 104/104/104
f 104/104/104 105/105/105 102/102/102
f 104/104/104 106/106/106 105/105/105
f 107/107/107 105/105/105 106/106/106
f 107/107/107 108/108/108 105/105/105
f 109/109/109 108/108/108 107/107/107
f 109/109/109 110/110/110 108/108/108
f 111/111/111 110/110/110 109/109/109
f 111/111/111 112/112/112 110/110/110
f 113/113/113 112/112/112 111/111/111
f 113/113/113 114/114/114 112/112/112
f 115/115/115 114/114/114 113/113/113
