# Padding - exported from Blocked In (Unity mesh, z negated to right-handed)
mtllib Padding.mtl
o Padding
v 0.500000 0.250017 -0.500000
v 0.500000 0.250017 0.500000
v -0.500000 0.250017 0.500000
v -0.500000 0.250017 -0.500000
vt 0.000000 0.000000
vt 0.000000 1.000000
vt 1.000000 1.000000
vt 1.000000 0.000000
vn 0.00000 1.00000 -0.00000
vn 0.00000 1.00000 -0.00000
vn 0.00000 1.00000 -0.00000
vn 0.00000 1.00000 -0.00000
g Padding_sub0
usemtl BoardBlockMaterial
f 1/1/1 3/3/3 2/2/2
f 1/1/1 4/4/4 3/3/3
