# Corner_TopRight - exported from Blocked In (Unity mesh, z negated to right-handed)
mtllib Corner_TopRight.mtl
o Corner_TopRight
v 0.468804 0.286434 -0.271340
v 0.492515 0.255238 -0.337178
v 0.500000 0.255238 -0.271340
v 0.462122 0.286434 -0.329034
v 0.383440 0.371798 -0.271340
v 0.470569 0.255238 -0.390161
v 0.378954 0.371798 -0.306750
v 0.362982 0.392255 -0.271340
v 0.359024 0.392255 -0.301409
v 0.443319 0.286434 -0.374428
v 0.435658 0.255238 -0.435658
v 0.368753 0.371798 -0.331377
v 0.350884 0.392255 -0.321061
v 0.413408 0.286434 -0.413408
v 0.390161 0.255238 -0.470569
v 0.352526 0.371798 -0.352526
v 0.337935 0.392255 -0.337935
v 0.374428 0.286434 -0.443319
v 0.337178 0.255238 -0.492515
v 0.331377 0.371798 -0.368753
v 0.321061 0.392255 -0.350884
v 0.329034 0.286434 -0.462122
v 0.271340 0.255238 -0.500000
v 0.271340 0.286434 -0.468804
v 0.306750 0.371798 -0.378954
v 0.301409 0.392255 -0.359024
v 0.271340 0.371798 -0.383440
v 0.271340 0.392255 -0.362982
v 0.271340 0.255238 -0.500000
v 0.271340 -0.207231 -0.500000
v 0.337178 -0.207231 -0.492515
v 0.337178 0.255238 -0.492515
v 0.390161 -0.207231 -0.470569
v 0.390161 0.255238 -0.470569
v 0.435658 -0.207231 -0.435658
v 0.435658 0.255238 -0.435658
v 0.470569 -0.207231 -0.390161
v 0.470569 0.255238 -0.390161
v 0.492515 -0.207231 -0.337178
v 0.492515 0.255238 -0.337178
v 0.500000 -0.207231 -0.271340
v 0.500000 0.255238 -0.271340
v 0.271340 -0.207231 -0.362982
v 0.337178 -0.207231 -0.492515
v 0.271340 -0.207231 -0.500000
v 0.301409 -0.207231 -0.359024
v 0.390161 -0.207231 -0.470569
v 0.321061 -0.207231 -0.350884
v 0.435658 -0.207231 -0.435658
v 0.337935 -0.207231 -0.337935
v 0.470569 -0.207231 -0.390161
v 0.350884 -0.207231 -0.321061
v 0.492515 -0.207231 -0.337178
v 0.359024 -0.207231 -0.301409
v 0.500000 -0.207231 -0.271340
v 0.362982 -0.207231 -0.271340
vt 0.871361 0.646640
vt 0.890216 0.698807
vt 0.896169 0.646640
vt 0.866048 0.692354
vt 0.803479 0.646640
vt 0.872765 0.740787
vt 0.799912 0.674697
vt 0.787211 0.646640
vt 0.784063 0.670465
vt 0.851096 0.728321
vt 0.845003 0.776837
vt 0.791800 0.694211
vt 0.777591 0.686036
vt 0.827310 0.759208
vt 0.808824 0.804499
vt 0.778896 0.710967
vt 0.767294 0.699407
vt 0.796313 0.782908
vt 0.766692 0.821888
vt 0.762079 0.723825
vt 0.753875 0.709666
vt 0.760216 0.797806
vt 0.714337 0.827819
vt 0.714337 0.803101
vt 0.742495 0.731908
vt 0.738248 0.716116
vt 0.714337 0.735462
vt 0.714337 0.719253
vt 0.714337 0.827819
vt 0.714337 0.827819
vt 0.766692 0.821888
vt 0.766692 0.821888
vt 0.808824 0.804499
vt 0.808824 0.804499
vt 0.845003 0.776837
vt 0.845003 0.776837
vt 0.872765 0.740787
vt 0.872765 0.740787
vt 0.890216 0.698807
vt 0.890216 0.698807
vt 0.896169 0.646640
vt 0.896169 0.646640
vt 0.525478 0.467516
vt 0.532008 0.480317
vt 0.525478 0.481057
vt 0.528460 0.467124
vt 0.537263 0.478148
vt 0.530409 0.466320
vt 0.541775 0.474698
vt 0.532083 0.465040
vt 0.545238 0.470202
vt 0.533367 0.463373
vt 0.547414 0.464965
vt 0.534174 0.461431
vt 0.548157 0.458459
vt 0.534567 0.458459
vn 0.70384 0.70555 -0.08248
vn 0.68186 0.70976 -0.17693
vn 0.70406 0.70554 -0.08075
vn 0.68181 0.70970 -0.17737
vn 0.70323 0.70558 -0.08734
vn 0.60974 0.71014 -0.35203
vn 0.68134 0.70955 -0.17977
vn 0.70280 0.70559 -0.09063
vn 0.68101 0.70944 -0.18141
vn 0.60974 0.71014 -0.35203
vn 0.49785 0.71014 -0.49785
vn 0.60974 0.71014 -0.35203
vn 0.60974 0.71014 -0.35203
vn 0.49785 0.71014 -0.49785
vn 0.35203 0.71014 -0.60974
vn 0.49785 0.71014 -0.49785
vn 0.49785 0.71014 -0.49785
vn 0.35203 0.71014 -0.60974
vn 0.17693 0.70976 -0.68186
vn 0.35203 0.71014 -0.60974
vn 0.35203 0.71014 -0.60974
vn 0.17737 0.70970 -0.68181
vn 0.08075 0.70554 -0.70406
vn 0.08248 0.70555 -0.70384
vn 0.17977 0.70955 -0.68134
vn 0.18141 0.70944 -0.68101
vn 0.08734 0.70558 -0.70323
vn 0.09063 0.70559 -0.70280
vn 0.11297 0.00000 -0.99360
vn 0.11297 0.00000 -0.99360
vn 0.25026 0.00000 -0.96818
vn 0.25026 0.00000 -0.96818
vn 0.50000 0.00000 -0.86603
vn 0.50000 0.00000 -0.86603
vn 0.70711 0.00000 -0.70711
vn 0.70711 0.00000 -0.70711
vn 0.86603 0.00000 -0.50000
vn 0.86603 0.00000 -0.50000
vn 0.96818 0.00000 -0.25026
vn 0.96818 0.00000 -0.25026
vn 0.99360 0.00000 -0.11297
vn 0.99360 0.00000 -0.11297
vn 0.00000 -1.00000 -0.00000
vn 0.00000 -1.00000 -0.00000
vn 0.00000 -1.00000 -0.00000
vn 0.00000 -1.00000 -0.00000
vn -0.00000 -1.00000 -0.00000
vn -0.00000 -1.00000 -0.00000
vn -0.00000 -1.00000 -0.00000
vn -0.00000 -1.00000 -0.00000
vn -0.00000 -1.00000 -0.00000
vn -0.00000 -1.00000 -0.00000
vn -0.00000 -1.00000 -0.00000
vn -0.00000 -1.00000 -0.00000
vn 0.00000 -1.00000 -0.00000
vn 0.00000 -1.00000 -0.00000
g Corner_TopRight_sub0
usemtl PieceBlock_Blue
f 1/1/1 3/3/3 2/2/2
f 1/1/1 2/2/2 4/4/4
f 5/5/5 1/1/1 4/4/4
f 4/4/4 2/2/2 6/6/6
f 5/5/5 4/4/4 7/7/7
f 8/8/8 5/5/5 7/7/7
f 8/8/8 7/7/7 9/9/9
f 4/4/4 6/6/6 10/10/10
f 7/7/7 4/4/4 10/10/10
f 10/10/10 6/6/6 11/11/11
f 9/9/9 7/7/7 12/12/12
f 7/7/7 10/10/10 12/12/12
f 9/9/9 12/12/12 13/13/13
f 10/10/10 11/11/11 14/14/14
f 12/12/12 10/10/10 14/14/14
f 14/14/14 11/11/11 15/15/15
f 13/13/13 12/12/12 16/16/16
f 12/12/12 14/14/14 16/16/16
f 13/13/13 16/16/16 17/17/17
f 14/14/14 15/15/15 18/18/18
f 16/16/16 14/14/14 18/18/18
f 18/18/18 15/15/15 19/19/19
f 17/17/17 16/16/16 20/20/20
f 16/16/16 18/18/18 20/20/20
f 17/17/17 20/20/20 21/21/21
f 18/18/18 19/19/19 22/22/22
f 20/20/20 18/18/18 22/22/22
f 22/22/22 19/19/19 23/23/23
f 22/22/22 23/23/23 24/24/24
f 21/21/21 20/20/20 25/25/25
f 20/20/20 22/22/22 25/25/25
f 25/25/25 22/22/22 24/24/24
f 21/21/21 25/25/25 26/26/26
f 25/25/25 24/24/24 27/27/27
f 26/26/26 25/25/25 27/27/27
f 26/26/26 27/27/27 28/28/28
f 29/29/29 31/31/31 30/30/30
f 29/29/29 32/32/32 31/31/31
f 32/32/32 33/33/33 31/31/31
f 32/32/32 34/34/34 33/33/33
f 34/34/34 35/35/35 33/33/33
f 34/34/34 36/36/36 35/35/35
f 36/36/36 37/37/37 35/35/35
f 36/36/36 38/38/38 37/37/37
f 38/38/38 39/39/39 37/37/37
f 38/38/38 40/40/40 39/39/39
f 40/40/40 41/41/41 39/39/39
f 40/40/40 42/42/42 41/41/41
f 43/43/43 45/45/45 44/44/44
f 43/43/43 44/44/44 46/46/46
f 46/46/46 44/44/44 47/47/47
f 46/46/46 47/47/47 48/48/48
f 48/48/48 47/47/47 49/49/49
f 48/48/48 49/49/49 50/50/50
f 50/50/50 49/49/49 51/51/51
f 50/50/50 51/51/51 52/52/52
f 52/52/52 51/51/51 53/53/53
f 52/52/52 53/53/53 54/54/54
f 54/54/54 53/53/53 55/55/55
f 54/54/54 55/55/55 56/56/56
