# Corner_TopLeft - exported from Blocked In (Unity mesh, z negated to right-handed)
mtllib Corner_TopLeft.mtl
o Corner_TopLeft
v -0.271340 0.392255 -0.362982
v -0.337178 0.255238 -0.492515
v -0.271340 0.255238 -0.500000
v -0.301409 0.392255 -0.359024
v -0.390161 0.255238 -0.470569
v -0.321061 0.392255 -0.350884
v -0.435658 0.255238 -0.435658
v -0.337935 0.392255 -0.337935
v -0.470569 0.255238 -0.390161
v -0.350884 0.392255 -0.321061
v -0.492515 0.255238 -0.337178
v -0.359024 0.392255 -0.301409
v -0.500000 0.255238 -0.271340
v -0.362982 0.392255 -0.271340
v -0.271340 0.255238 -0.500000
v -0.337178 -0.207231 -0.492515
v -0.271340 -0.207231 -0.500000
v -0.337178 0.255238 -0.492515
v -0.390161 -0.207231 -0.470569
v -0.390161 0.255238 -0.470569
v -0.435658 -0.207231 -0.435658
v -0.435658 0.255238 -0.435658
v -0.470569 -0.207231 -0.390161
v -0.470569 0.255238 -0.390161
v -0.492515 -0.207231 -0.337178
v -0.492515 0.255238 -0.337178
v -0.500000 -0.207231 -0.271340
v -0.500000 0.255238 -0.271340
v -0.301409 -0.207231 -0.359024
v -0.271340 -0.207231 -0.362982
v -0.271340 -0.207231 -0.500000
v -0.337178 -0.207231 -0.492515
v -0.321061 -0.207231 -0.350884
v -0.390161 -0.207231 -0.470569
v -0.337935 -0.207231 -0.337935
v -0.435658 -0.207231 -0.435658
v -0.350884 -0.207231 -0.321061
v -0.470569 -0.207231 -0.390161
v -0.359024 -0.207231 -0.301409
v -0.492515 -0.207231 -0.337178
v -0.362982 -0.207231 -0.271340
v -0.500000 -0.207231 -0.271340
vt 0.282794 0.719253
vt 0.230439 0.821888
vt 0.282794 0.827819
vt 0.258883 0.716116
vt 0.188307 0.804499
vt 0.243256 0.709666
vt 0.152127 0.776837
vt 0.229837 0.699407
vt 0.127310 0.741156
vt 0.219540 0.686036
vt 0.111815 0.700651
vt 0.213067 0.670465
vt 0.107019 0.646640
vt 0.209919 0.646640
vt 0.282794 0.827819
vt 0.230439 0.821888
vt 0.282794 0.827819
vt 0.230439 0.821888
vt 0.188307 0.804499
vt 0.188307 0.804499
vt 0.152127 0.776837
vt 0.152127 0.776837
vt 0.127310 0.741156
vt 0.127310 0.741156
vt 0.111815 0.700651
vt 0.111815 0.700651
vt 0.107019 0.646640
vt 0.107019 0.646640
vt 0.468670 0.467124
vt 0.471653 0.467516
vt 0.471653 0.481057
vt 0.465123 0.480317
vt 0.466721 0.466320
vt 0.459868 0.478148
vt 0.465048 0.465040
vt 0.455355 0.474698
vt 0.463763 0.463373
vt 0.451893 0.470202
vt 0.462956 0.461431
vt 0.449716 0.464965
vt 0.462563 0.458459
vt 0.448974 0.458459
vn -0.08396 0.70556 -0.70366
vn -0.17851 0.70966 -0.68155
vn -0.08396 0.70556 -0.70366
vn -0.17811 0.70966 -0.68166
vn -0.35203 0.71014 -0.60974
vn -0.35203 0.71014 -0.60974
vn -0.49785 0.71014 -0.49785
vn -0.49785 0.71014 -0.49785
vn -0.60974 0.71014 -0.35203
vn -0.60974 0.71014 -0.35203
vn -0.68155 0.70966 -0.17851
vn -0.68166 0.70966 -0.17811
vn -0.70366 0.70556 -0.08396
vn -0.70366 0.70556 -0.08396
vn -0.11297 0.00000 -0.99360
vn -0.25026 0.00000 -0.96818
vn -0.11297 0.00000 -0.99360
vn -0.25026 0.00000 -0.96818
vn -0.50000 0.00000 -0.86603
vn -0.50000 0.00000 -0.86603
vn -0.70711 0.00000 -0.70711
vn -0.70711 0.00000 -0.70711
vn -0.86603 0.00000 -0.50000
vn -0.86603 0.00000 -0.50000
vn -0.96818 0.00000 -0.25026
vn -0.96818 0.00000 -0.25026
vn -0.99360 0.00000 -0.11297
vn -0.99360 0.00000 -0.11297
vn 0.00000 -1.00000 -0.00000
vn 0.00000 -1.00000 -0.00000
vn 0.00000 -1.00000 -0.00000
vn 0.00000 -1.00000 -0.00000
vn 0.00000 -1.00000 -0.00000
vn 0.00000 -1.00000 -0.00000
vn 0.00000 -1.00000 -0.00000
vn 0.00000 -1.00000 -0.00000
vn 0.00000 -1.00000 -0.00000
vn 0.00000 -1.00000 -0.00000
vn 0.00000 -1.00000 -0.00000
vn 0.00000 -1.00000 -0.00000
vn 0.00000 -1.00000 -0.00000
vn 0.00000 -1.00000 -0.00000
g Corner_TopLeft_sub0
usemtl PieceBlock_Blue
f 1/1/1 3/3/3 2/2/2
f 1/1/1 2/2/2 4/4/4
f 4/4/4 2/2/2 5/5/5
f 4/4/4 5/5/5 6/6/6
f 6/6/6 5/5/5 7/7/7
f 6/6/6 7/7/7 8/8/8
f 8/8/8 7/7/7 9/9/9
f 8/8/8 9/9/9 10/10/10
f 10/10/10 9/9/9 11/11/11
f 10/10/10 11/11/11 12/12/12
f 12/12/12 11/11/11 13/13/13
f 12/12/12 13/13/13 14/14/14
f 15/15/15 17/17/17 16/16/16
f 15/15/15 16/16/16 18/18/18
f 18/18/18 16/16/16 19/19/19
f 18/18/18 19/19/19 20/20/20
f 20/20/20 19/19/19 21/21/21
f 20/20/20 21/21/21 22/22/22
f 22/22/22 21/21/21 23/23/23
f 22/22/22 23/23/23 24/24/24
f 24/24/24 23/23/23 25/25/25
f 24/24/24 25/25/25 26/26/26
f 26/26/26 25/25/25 27/27/27
f 26/26/26 27/27/27 28/28/28
f 29/29/29 31/31/31 30/30/30
f 29/29/29 32/32/32 31/31/31
f 33/33/33 32/32/32 29/29/29
f 33/33/33 34/34/34 32/32/32
f 35/35/35 34/34/34 33/33/33
f 35/35/35 36/36/36 34/34/34
f 37/37/37 36/36/36 35/35/35
f 37/37/37 38/38/38 36/36/36
f 39/39/39 38/38/38 37/37/37
f 39/39/39 40/40/40 38/38/38
f 41/41/41 40/40/40 39/39/39
f 41/41/41 42/42/42 40/40/40
