# CornerToStraight_BottomRight - exported from Blocked In (Unity mesh, z negated to right-handed)
mtllib CornerToStraight_BottomRight.mtl
o CornerToStraight_BottomRight
v 0.500000 -0.207231 0.500000
v 0.500000 0.255238 0.500000
v 0.500000 0.255238 0.271340
v 0.500000 -0.207231 0.271340
v 0.500000 0.255238 0.271340
v 0.500000 0.255238 0.500000
v 0.362982 0.392255 0.271340
v 0.359024 0.392255 0.301409
v 0.350884 0.392255 0.321061
v 0.337935 0.392255 0.337935
v 0.321061 0.392255 0.350884
v 0.301409 0.392255 0.359024
v 0.271340 0.392255 0.362982
v 0.271340 0.255238 0.500000
v 0.271340 0.255238 0.500000
v 0.500000 0.255238 0.500000
v 0.500000 -0.207231 0.500000
v 0.271340 -0.207231 0.500000
v 0.500000 -0.207231 0.271340
v 0.362982 -0.207231 0.271340
v 0.500000 -0.207231 0.500000
v 0.359024 -0.207231 0.301409
v 0.350884 -0.207231 0.321061
v 0.337935 -0.207231 0.337935
v 0.321061 -0.207231 0.350884
v 0.301409 -0.207231 0.359024
v 0.271340 -0.207231 0.362982
v 0.271340 -0.207231 0.500000
vt 0.896169 0.035467
vt 0.896169 0.035467
vt 0.896169 0.216646
vt 0.896169 0.216646
vt 0.896169 0.216646
vt 0.896169 0.035467
vt 0.787211 0.216646
vt 0.784063 0.192821
vt 0.777591 0.177250
vt 0.767294 0.163879
vt 0.753875 0.153620
vt 0.738248 0.147170
vt 0.714337 0.144033
vt 0.714337 0.035467
vt 0.714337 0.035467
vt 0.896169 0.035467
vt 0.896169 0.035467
vt 0.714337 0.035467
vt 0.548157 0.404827
vt 0.534567 0.404827
vt 0.548157 0.382230
vt 0.534174 0.401856
vt 0.533367 0.399914
vt 0.532083 0.398246
vt 0.530409 0.396966
vt 0.528460 0.396162
vt 0.525478 0.395771
vt 0.525478 0.382230
vn 1.00000 0.00000 -0.00000
vn 1.00000 0.00000 -0.00000
vn 1.00000 0.00000 -0.00000
vn 1.00000 0.00000 -0.00000
vn 0.70711 0.70711 -0.00000
vn 0.39918 0.82542 0.39918
vn 0.67239 0.73912 0.03998
vn 0.59494 0.79392 0.12542
vn 0.47078 0.84474 0.25452
vn 0.36283 0.85832 0.36283
vn 0.25452 0.84474 0.47078
vn 0.12542 0.79392 0.59494
vn 0.03998 0.73912 0.67239
vn 0.00000 0.70711 0.70711
vn 0.00000 0.00000 1.00000
vn 0.00000 0.00000 1.00000
vn 0.00000 0.00000 1.00000
vn 0.00000 0.00000 1.00000
vn 0.00000 -1.00000 -0.00000
vn -0.00000 -1.00000 -0.00000
vn 0.00000 -1.00000 -0.00000
vn -0.00000 -1.00000 -0.00000
vn 0.00000 -1.00000 -0.00000
vn 0.00000 -1.00000 -0.00000
vn 0.00000 -1.00000 -0.00000
vn 0.00000 -1.00000 -0.00000
vn 0.00000 -1.00000 -0.00000
vn 0.00000 -1.00000 -0.00000
g CornerToStraight_BottomRight_sub0
usemtl PieceBlock_Blue
f 1/1/1 3/3/3 2/2/2
f 1/1/1 4/4/4 3/3/3
f 5/5/5 7/7/7 6/6/6
f 8/8/8 6/6/6 7/7/7
f 9/9/9 6/6/6 8/8/8
f 10/10/10 6/6/6 9/9/9
f 11/11/11 6/6/6 10/10/10
f 12/12/12 6/6/6 11/11/11
f 13/13/13 6/6/6 12/12/12
f 14/14/14 6/6/6 13/13/13
f 15/15/15 17/17/17 16/16/16
f 15/15/15 18/18/18 17/17/17
f 19/19/19 21/21/21 20/20/20
f 22/22/22 20/20/20 21/21/21
f 23/23/23 22/22/22 21/21/21
f 24/24/24 23/23/23 21/21/21
f 25/25/25 24/24/24 21/21/21
f 26/26/26 25/25/25 21/21/21
f 27/27/27 26/26/26 21/21/21
f 28/28/28 27/27/27 21/21/21
