# Corner_BottomRight - exported from Blocked In (Unity mesh, z negated to right-handed)
mtllib Corner_BottomRight.mtl
o Corner_BottomRight
v 0.468804 0.286434 0.271340
v 0.500000 0.255238 0.271340
v 0.492515 0.255238 0.337178
v 0.462122 0.286434 0.329034
v 0.383734 0.371503 0.271340
v 0.470569 0.255238 0.390161
v 0.379241 0.371503 0.306827
v 0.362982 0.392255 0.271340
v 0.359024 0.392255 0.301409
v 0.443319 0.286434 0.374428
v 0.435658 0.255238 0.435658
v 0.369011 0.371503 0.331526
v 0.350884 0.392255 0.321061
v 0.413408 0.286434 0.413408
v 0.390161 0.255238 0.470569
v 0.352736 0.371503 0.352736
v 0.337935 0.392255 0.337935
v 0.374428 0.286434 0.443319
v 0.337178 0.255238 0.492515
v 0.331526 0.371503 0.369011
v 0.321061 0.392255 0.350884
v 0.329034 0.286434 0.462122
v 0.271340 0.255238 0.500000
v 0.271340 0.286434 0.468804
v 0.306827 0.371503 0.379241
v 0.301409 0.392255 0.359024
v 0.271340 0.371503 0.383734
v 0.271340 0.392255 0.362982
v 0.271340 0.255238 0.500000
v 0.337178 -0.207231 0.492515
v 0.271340 -0.207231 0.500000
v 0.337178 0.255238 0.492515
v 0.390161 -0.207231 0.470569
v 0.390161 0.255238 0.470569
v 0.435658 -0.207231 0.435658
v 0.435658 0.255238 0.435658
v 0.470569 -0.207231 0.390161
v 0.470569 0.255238 0.390161
v 0.492515 -0.207231 0.337178
v 0.492515 0.255238 0.337178
v 0.500000 -0.207231 0.271340
v 0.500000 0.255238 0.271340
v 0.301409 -0.207231 0.359024
v 0.271340 -0.207231 0.362982
v 0.271340 -0.207231 0.500000
v 0.337178 -0.207231 0.492515
v 0.321061 -0.207231 0.350884
v 0.390161 -0.207231 0.470569
v 0.337935 -0.207231 0.337935
v 0.435658 -0.207231 0.435658
v 0.350884 -0.207231 0.321061
v 0.470569 -0.207231 0.390161
v 0.359024 -0.207231 0.301409
v 0.492515 -0.207231 0.337178
v 0.362982 -0.207231 0.271340
v 0.500000 -0.207231 0.271340
vt 0.871361 0.216646
vt 0.896169 0.216646
vt 0.890216 0.164479
vt 0.866048 0.170932
vt 0.803714 0.216646
vt 0.872765 0.122499
vt 0.800141 0.188528
vt 0.787211 0.216646
vt 0.784063 0.192821
vt 0.851096 0.134964
vt 0.845003 0.086449
vt 0.792005 0.168958
vt 0.777591 0.177250
vt 0.827310 0.104078
vt 0.808824 0.058787
vt 0.779063 0.152152
vt 0.767294 0.163879
vt 0.796313 0.080379
vt 0.766692 0.041398
vt 0.762197 0.139257
vt 0.753875 0.153620
vt 0.760216 0.065480
vt 0.714337 0.035467
vt 0.714337 0.060185
vt 0.742556 0.131150
vt 0.738248 0.147170
vt 0.714337 0.127590
vt 0.714337 0.144033
vt 0.714337 0.035467
vt 0.766692 0.041398
vt 0.714337 0.035467
vt 0.766692 0.041398
vt 0.808824 0.058787
vt 0.808824 0.058787
vt 0.845003 0.086449
vt 0.845003 0.086449
vt 0.872765 0.122499
vt 0.872765 0.122499
vt 0.890216 0.164479
vt 0.890216 0.164479
vt 0.896169 0.216646
vt 0.896169 0.216646
vt 0.528460 0.396162
vt 0.525478 0.395771
vt 0.525478 0.382230
vt 0.532008 0.382969
vt 0.530409 0.396966
vt 0.537263 0.385138
vt 0.532083 0.398246
vt 0.541775 0.388588
vt 0.533367 0.399914
vt 0.545238 0.393085
vt 0.534174 0.401856
vt 0.547414 0.398321
vt 0.534567 0.404827
vt 0.548157 0.404827
vn 0.70384 0.70555 0.08247
vn 0.70406 0.70554 0.08075
vn 0.68186 0.70976 0.17693
vn 0.68181 0.70970 0.17737
vn 0.70323 0.70558 0.08732
vn 0.60974 0.71014 0.35203
vn 0.68134 0.70955 0.17976
vn 0.70281 0.70559 0.09061
vn 0.68102 0.70945 0.18139
vn 0.60974 0.71014 0.35203
vn 0.49785 0.71014 0.49785
vn 0.60974 0.71014 0.35203
vn 0.60974 0.71014 0.35203
vn 0.49785 0.71014 0.49785
vn 0.35203 0.71014 0.60974
vn 0.49785 0.71014 0.49785
vn 0.49785 0.71014 0.49785
vn 0.35203 0.71014 0.60974
vn 0.17693 0.70976 0.68186
vn 0.35203 0.71014 0.60974
vn 0.35203 0.71014 0.60974
vn 0.17737 0.70970 0.68181
vn 0.08075 0.70554 0.70406
vn 0.08247 0.70555 0.70384
vn 0.17976 0.70955 0.68134
vn 0.18139 0.70945 0.68102
vn 0.08732 0.70558 0.70323
vn 0.09061 0.70559 0.70281
vn 0.11297 0.00000 0.99360
vn 0.25026 0.00000 0.96818
vn 0.11297 0.00000 0.99360
vn 0.25026 0.00000 0.96818
vn 0.50000 0.00000 0.86603
vn 0.50000 0.00000 0.86603
vn 0.70711 0.00000 0.70711
vn 0.70711 0.00000 0.70711
vn 0.86603 0.00000 0.50000
vn 0.86603 0.00000 0.50000
vn 0.96818 0.00000 0.25026
vn 0.96818 0.00000 0.25026
vn 0.99360 0.00000 0.11297
vn 0.99360 0.00000 0.11297
vn 0.00000 -1.00000 -0.00000
vn 0.00000 -1.00000 -0.00000
vn 0.00000 -1.00000 -0.00000
vn 0.00000 -1.00000 -0.00000
vn -0.00000 -1.00000 -0.00000
vn -0.00000 -1.00000 -0.00000
vn -0.00000 -1.00000 -0.00000
vn -0.00000 -1.00000 -0.00000
vn -0.00000 -1.00000 -0.00000
vn -0.00000 -1.00000 -0.00000
vn -0.00000 -1.00000 -0.00000
vn -0.00000 -1.00000 -0.00000
vn 0.00000 -1.00000 -0.00000
vn 0.00000 -1.00000 -0.00000
g Corner_BottomRight_sub0
usemtl PieceBlock_Blue
f 1/1/1 3/3/3 2/2/2
f 1/1/1 4/4/4 3/3/3
f 5/5/5 4/4/4 1/1/1
f 4/4/4 6/6/6 3/3/3
f 5/5/5 7/7/7 4/4/4
f 8/8/8 7/7/7 5/5/5
f 8/8/8 9/9/9 7/7/7
f 4/4/4 10/10/10 6/6/6
f 7/7/7 10/10/10 4/4/4
f 10/10/10 11/11/11 6/6/6
f 9/9/9 12/12/12 7/7/7
f 7/7/7 12/12/12 10/10/10
f 9/9/9 13/13/13 12/12/12
f 10/10/10 14/14/14 11/11/11
f 12/12/12 14/14/14 10/10/10
f 14/14/14 15/15/15 11/11/11
f 13/13/13 16/16/16 12/12/12
f 12/12/12 16/16/16 14/14/14
f 13/13/13 17/17/17 16/16/16
f 14/14/14 18/18/18 15/15/15
f 16/16/16 18/18/18 14/14/14
f 18/18/18 19/19/19 15/15/15
f 17/17/17 20/20/20 16/16/16
f 16/16/16 20/20/20 18/18/18
f 17/17/17 21/21/21 20/20/20
f 18/18/18 22/22/22 19/19/19
f 20/20/20 22/22/22 18/18/18
f 22/22/22 23/23/23 19/19/19
f 22/22/22 24/24/24 23/23/23
f 21/21/21 25/25/25 20/20/20
f 20/20/20 25/25/25 22/22/22
f 25/25/25 24/24/24 22/22/22
f 21/21/21 26/26/26 25/25/25
f 25/25/25 27/27/27 24/24/24
f 26/26/26 27/27/27 25/25/25
f 26/26/26 28/28/28 27/27/27
f 29/29/29 31/31/31 30/30/30
f 29/29/29 30/30/30 32/32/32
f 32/32/32 30/30/30 33/33/33
f 32/32/32 33/33/33 34/34/34
f 34/34/34 33/33/33 35/35/35
f 34/34/34 35/35/35 36/36/36
f 36/36/36 35/35/35 37/37/37
f 36/36/36 37/37/37 38/38/38
f 38/38/38 37/37/37 39/39/39
f 38/38/38 39/39/39 40/40/40
f 40/40/40 39/39/39 41/41/41
f 40/40/40 41/41/41 42/42/42
f 43/43/43 45/45/45 44/44/44
f 43/43/43 46/46/46 45/45/45
f 47/47/47 46/46/46 43/43/43
f 47/47/47 48/48/48 46/46/46
f 49/49/49 48/48/48 47/47/47
f 49/49/49 50/50/50 48/48/48
f 51/51/51 50/50/50 49/49/49
f 51/51/51 52/52/52 50/50/50
f 53/53/53 52/52/52 51/51/51
f 53/53/53 54/54/54 52/52/52
f 55/55/55 54/54/54 53/53/53
f 55/55/55 56/56/56 54/54/54
