# CornerToStraight_TopLeft - exported from Blocked In (Unity mesh, z negated to right-handed)
mtllib CornerToStraight_TopLeft.mtl
o CornerToStraight_TopLeft
v -0.500000 -0.207231 -0.500000
v -0.500000 0.255238 -0.500000
v -0.500000 0.255238 -0.271340
v -0.500000 -0.207231 -0.271340
v -0.500000 0.255238 -0.271340
v -0.500000 0.255238 -0.500000
v -0.362982 0.392255 -0.271340
v -0.359024 0.392255 -0.301409
v -0.350884 0.392255 -0.321061
v -0.337935 0.392255 -0.337935
v -0.321061 0.392255 -0.350884
v -0.301409 0.392255 -0.359024
v -0.271340 0.392255 -0.362982
v -0.271340 0.255238 -0.500000
v -0.271340 0.255238 -0.500000
v -0.500000 0.255238 -0.500000
v -0.500000 -0.207231 -0.500000
v -0.271340 -0.207231 -0.500000
v -0.500000 -0.207231 -0.271340
v -0.362982 -0.207231 -0.271340
v -0.500000 -0.207231 -0.500000
v -0.359024 -0.207231 -0.301409
v -0.350884 -0.207231 -0.321061
v -0.337935 -0.207231 -0.337935
v -0.321061 -0.207231 -0.350884
v -0.301409 -0.207231 -0.359024
v -0.271340 -0.207231 -0.362982
v -0.271340 -0.207231 -0.500000
vt 0.117349 0.827819
vt 0.117349 0.827819
vt 0.117349 0.646640
vt 0.117349 0.646640
vt 0.117349 0.646640
vt 0.117349 0.827819
vt 0.209919 0.646640
vt 0.213067 0.670465
vt 0.219540 0.686036
vt 0.229837 0.699407
vt 0.243256 0.709666
vt 0.258883 0.716116
vt 0.282794 0.719253
vt 0.282794 0.827819
vt 0.282794 0.827819
vt 0.117349 0.827819
vt 0.117349 0.827819
vt 0.282794 0.827819
vt 0.448974 0.458459
vt 0.462563 0.458459
vt 0.448974 0.481057
vt 0.462956 0.461431
vt 0.463763 0.463373
vt 0.465048 0.465040
vt 0.466721 0.466320
vt 0.468670 0.467124
vt 0.471653 0.467516
vt 0.471653 0.481057
vn -1.00000 0.00000 -0.00000
vn -1.00000 0.00000 -0.00000
vn -1.00000 0.00000 -0.00000
vn -1.00000 0.00000 -0.00000
vn -0.70711 0.70711 -0.00000
vn -0.39918 0.82542 -0.39918
vn -0.67239 0.73912 -0.03998
vn -0.59494 0.79392 -0.12542
vn -0.47078 0.84474 -0.25452
vn -0.36283 0.85832 -0.36283
vn -0.25452 0.84474 -0.47078
vn -0.12542 0.79392 -0.59494
vn -0.03998 0.73912 -0.67239
vn 0.00000 0.70711 -0.70711
vn 0.00000 0.00000 -1.00000
vn 0.00000 0.00000 -1.00000
vn 0.00000 0.00000 -1.00000
vn 0.00000 0.00000 -1.00000
vn 0.00000 -1.00000 -0.00000
vn 0.00000 -1.00000 -0.00000
vn 0.00000 -1.00000 -0.00000
vn 0.00000 -1.00000 -0.00000
vn -0.00000 -1.00000 -0.00000
vn -0.00000 -1.00000 -0.00000
vn 0.00000 -1.00000 -0.00000
vn 0.00000 -1.00000 -0.00000
vn 0.00000 -1.00000 -0.00000
vn 0.00000 -1.00000 -0.00000
g CornerToStraight_TopLeft_sub0
usemtl PieceBlock_Blue
f 1/1/1 3/3/3 2/2/2
f 1/1/1 4/4/4 3/3/3
f 5/5/5 7/7/7 6/6/6
f 8/8/8 6/6/6 7/7/7
f 9/9/9 6/6/6 8/8/8
f 10/10/10 6/6/6 9/9/9
f 11/11/11 6/6/6 10/10/10
f 12/12/12 6/6/6 11/11/11
f 13/13/13 6/6/6 12/12/12
f 14/14/14 6/6/6 13/13/13
f 15/15/15 17/17/17 16/16/16
f 15/15/15 18/18/18 17/17/17
f 19/19/19 21/21/21 20/20/20
f 22/22/22 20/20/20 21/21/21
f 23/23/23 22/22/22 21/21/21
f 24/24/24 23/23/23 21/21/21
f 25/25/25 24/24/24 21/21/21
f 26/26/26 25/25/25 21/21/21
f 27/27/27 26/26/26 21/21/21
f 28/28/28 27/27/27 21/21/21
