# Cover_Horizontal - exported from Blocked In (Unity mesh, z negated to right-handed)
mtllib Cover_Horizontal.mtl
o Cover_Horizontal
v 0.500000 0.398299 -0.266913
v 0.036657 0.392255 -0.362982
v 0.500000 0.398299 -0.362982
v 0.036657 0.392255 -0.266913
v 0.500000 0.398299 0.271736
v 0.036657 0.392255 0.271736
v 0.500000 0.398299 0.362982
v 0.036657 0.392255 0.362982
v 0.500000 0.261282 0.500000
v 0.036657 0.255238 0.500000
v 0.036657 0.392255 0.362982
v 0.500000 0.398299 0.362982
v 0.500000 0.398299 -0.362982
v 0.036657 0.392255 -0.362982
v 0.036657 0.255238 -0.500000
v 0.500000 0.261282 -0.500000
v 0.036657 0.255238 -0.500000
v 0.036657 -0.207231 -0.500000
v 0.500000 -0.201187 -0.500000
v 0.500000 0.261282 -0.500000
v 0.500000 0.261282 0.500000
v 0.500000 -0.201187 0.500000
v 0.036657 -0.207231 0.500000
v 0.036657 0.255238 0.500000
vt 0.498565 0.635751
vt 0.498565 0.720331
vt 0.498565 0.720331
vt 0.498565 0.635751
vt 0.498565 0.216868
vt 0.498565 0.216868
vt 0.498565 0.144322
vt 0.498565 0.144322
vt 0.498565 0.035560
vt 0.498565 0.035560
vt 0.498565 0.144322
vt 0.498565 0.144322
vt 0.498565 0.720331
vt 0.498565 0.720331
vt 0.498565 0.828420
vt 0.498565 0.828420
vt 0.498565 0.828420
vt 0.498565 0.828420
vt 0.498565 0.828420
vt 0.498565 0.828420
vt 0.498565 0.035560
vt 0.498565 0.035560
vt 0.498565 0.035560
vt 0.498565 0.035560
vn -0.01304 0.99992 -0.00000
vn -0.01304 0.99992 -0.00000
vn -0.01304 0.99992 -0.00000
vn -0.01304 0.99992 -0.00000
vn -0.01304 0.99992 -0.00000
vn -0.01304 0.99992 -0.00000
vn -0.01304 0.99992 -0.00000
vn -0.01304 0.99992 -0.00000
vn -0.00922 0.70708 0.70708
vn -0.00922 0.70708 0.70708
vn -0.00922 0.70708 0.70708
vn -0.00922 0.70708 0.70708
vn -0.00922 0.70708 -0.70708
vn -0.00922 0.70708 -0.70708
vn -0.00922 0.70708 -0.70708
vn -0.00922 0.70708 -0.70708
vn 0.00000 0.00000 -1.00000
vn 0.00000 0.00000 -1.00000
vn 0.00000 0.00000 -1.00000
vn 0.00000 0.00000 -1.00000
vn 0.00000 0.00000 1.00000
vn 0.00000 0.00000 1.00000
vn 0.00000 0.00000 1.00000
vn 0.00000 0.00000 1.00000
g Cover_Horizontal_sub0
usemtl PieceBlock_Blue
f 1/1/1 3/3/3 2/2/2
f 1/1/1 2/2/2 4/4/4
f 5/5/5 1/1/1 4/4/4
f 5/5/5 4/4/4 6/6/6
f 7/7/7 5/5/5 6/6/6
f 7/7/7 6/6/6 8/8/8
f 9/9/9 11/11/11 10/10/10
f 9/9/9 12/12/12 11/11/11
f 13/13/13 15/15/15 14/14/14
f 13/13/13 16/16/16 15/15/15
f 17/17/17 19/19/19 18/18/18
f 17/17/17 20/20/20 19/19/19
f 21/21/21 23/23/23 22/22/22
f 21/21/21 24/24/24 23/23/23
