# Cover_Vertical - exported from Blocked In (Unity mesh, z negated to right-handed)
mtllib Cover_Vertical.mtl
o Cover_Vertical
v 0.299558 0.398299 0.500000
v 0.362982 0.392255 -0.001236
v 0.362982 0.398299 0.500000
v 0.299558 0.392255 -0.001236
v -0.284896 0.398299 0.500000
v -0.284896 0.392255 -0.001236
v -0.362982 0.398299 0.500000
v -0.362982 0.392255 -0.001236
v -0.500000 0.261282 0.500000
v -0.500000 0.255238 -0.001236
v -0.362982 0.392255 -0.001236
v -0.362982 0.398299 0.500000
v 0.362982 0.398299 0.500000
v 0.362982 0.392255 -0.001236
v 0.500000 0.255238 -0.001236
v 0.500000 0.261282 0.500000
v 0.500000 0.255238 -0.001236
v 0.500000 -0.207231 -0.001236
v 0.500000 -0.207231 0.500000
v 0.500000 0.261282 0.500000
v -0.500000 0.261282 0.500000
v -0.500000 -0.207231 0.500000
v -0.500000 -0.207231 -0.001236
v -0.500000 0.255238 -0.001236
vt 0.736740 0.421465
vt 0.787184 0.435349
vt 0.787184 0.421465
vt 0.736740 0.435349
vt 0.271897 0.421465
vt 0.271897 0.435349
vt 0.209791 0.421465
vt 0.209791 0.435349
vt 0.107023 0.421465
vt 0.107023 0.435349
vt 0.209791 0.435349
vt 0.209791 0.421465
vt 0.787184 0.421465
vt 0.787184 0.435349
vt 0.895850 0.435349
vt 0.895850 0.421465
vt 0.895850 0.435349
vt 0.895850 0.435349
vt 0.895850 0.421465
vt 0.895850 0.421465
vt 0.107023 0.421465
vt 0.107023 0.421465
vt 0.107023 0.435349
vt 0.107023 0.435349
vn 0.00000 0.99993 -0.01206
vn 0.00000 0.99993 -0.01206
vn 0.00000 0.99993 -0.01206
vn 0.00000 0.99993 -0.01206
vn 0.00000 0.99993 -0.01206
vn 0.00000 0.99993 -0.01206
vn 0.00000 0.99993 -0.01206
vn 0.00000 0.99993 -0.01206
vn -0.70708 0.70708 -0.00853
vn -0.70708 0.70708 -0.00853
vn -0.70708 0.70708 -0.00853
vn -0.70708 0.70708 -0.00853
vn 0.70708 0.70708 -0.00853
vn 0.70708 0.70708 -0.00853
vn 0.70708 0.70708 -0.00853
vn 0.70708 0.70708 -0.00853
vn 1.00000 0.00000 -0.00000
vn 1.00000 0.00000 -0.00000
vn 1.00000 0.00000 -0.00000
vn 1.00000 0.00000 -0.00000
vn -1.00000 0.00000 -0.00000
vn -1.00000 0.00000 -0.00000
vn -1.00000 0.00000 -0.00000
vn -1.00000 0.00000 -0.00000
g Cover_Vertical_sub0
usemtl PieceBlock_Blue
f 1/1/1 3/3/3 2/2/2
f 1/1/1 2/2/2 4/4/4
f 5/5/5 1/1/1 4/4/4
f 5/5/5 4/4/4 6/6/6
f 7/7/7 5/5/5 6/6/6
f 7/7/7 6/6/6 8/8/8
f 9/9/9 11/11/11 10/10/10
f 9/9/9 12/12/12 11/11/11
f 13/13/13 15/15/15 14/14/14
f 13/13/13 16/16/16 15/15/15
f 17/17/17 19/19/19 18/18/18
f 17/17/17 20/20/20 19/19/19
f 21/21/21 23/23/23 22/22/22
f 21/21/21 24/24/24 23/23/23
