# Edge_Left - exported from Blocked In (Unity mesh, z negated to right-handed)
mtllib Edge_Left.mtl
o Edge_Left
v -0.500000 0.255238 -0.000000
v -0.500000 0.255238 -0.271340
v -0.362982 0.392255 -0.271340
v -0.362982 0.392255 -0.000000
v -0.362982 0.392255 0.271340
v -0.500000 0.255238 0.271340
v -0.500000 -0.207231 -0.000000
v -0.500000 0.255238 0.271340
v -0.500000 -0.207231 0.271340
v -0.500000 0.255238 -0.000000
v -0.500000 -0.207231 -0.271340
v -0.500000 0.255238 -0.271340
v -0.362982 -0.207231 -0.271340
v -0.500000 -0.207231 -0.271340
v -0.500000 -0.207231 -0.000000
v -0.362982 -0.207231 -0.000000
v -0.362982 -0.207231 0.271340
v -0.500000 -0.207231 0.271340
vt 0.107023 0.431643
vt 0.107023 0.646640
vt 0.209919 0.646640
vt 0.209919 0.431643
vt 0.209919 0.216646
vt 0.107023 0.216646
vt 0.107023 0.431643
vt 0.107023 0.216646
vt 0.107023 0.216646
vt 0.107023 0.431643
vt 0.107023 0.646640
vt 0.107023 0.646640
vt 0.462563 0.458459
vt 0.448974 0.458459
vt 0.448974 0.431643
vt 0.462563 0.431643
vt 0.462563 0.404827
vt 0.448974 0.404827
vn -0.70711 0.70711 -0.00000
vn -0.70711 0.70711 -0.00000
vn -0.70711 0.70711 -0.00000
vn -0.70711 0.70711 -0.00000
vn -0.70711 0.70711 -0.00000
vn -0.70711 0.70711 -0.00000
vn -1.00000 0.00000 -0.00000
vn -1.00000 0.00000 -0.00000
vn -1.00000 0.00000 -0.00000
vn -1.00000 0.00000 -0.00000
vn -1.00000 0.00000 -0.00000
vn -1.00000 0.00000 -0.00000
vn 0.00000 -1.00000 -0.00000
vn 0.00000 -1.00000 -0.00000
vn 0.00000 -1.00000 -0.00000
vn 0.00000 -1.00000 -0.00000
vn 0.00000 -1.00000 -0.00000
vn 0.00000 -1.00000 -0.00000
g Edge_Left_sub0
usemtl PieceBlock_Blue
f 1/1/1 3/3/3 2/2/2
f 1/1/1 4/4/4 3/3/3
f 5/5/5 4/4/4 1/1/1
f 5/5/5 1/1/1 6/6/6
f 7/7/7 9/9/9 8/8/8
f 7/7/7 8/8/8 10/10/10
f 11/11/11 7/7/7 10/10/10
f 11/11/11 10/10/10 12/12/12
f 13/13/13 15/15/15 14/14/14
f 13/13/13 16/16/16 15/15/15
f 15/15/15 16/16/16 17/17/17
f 15/15/15 17/17/17 18/18/18
