# Edge_Right - exported from Blocked In (Unity mesh, z negated to right-handed)
mtllib Edge_Right.mtl
o Edge_Right
v 0.500000 0.255238 -0.000000
v 0.468804 0.286434 -0.271340
v 0.500000 0.255238 -0.271340
v 0.468804 0.286434 -0.000000
v 0.500000 0.255238 0.271340
v 0.397237 0.358001 -0.271340
v 0.468804 0.286434 0.271340
v 0.397237 0.358001 -0.000000
v 0.362982 0.392255 -0.271340
v 0.397237 0.358001 0.271340
v 0.362982 0.392255 -0.000000
v 0.362982 0.392255 0.271340
v 0.500000 0.255238 -0.000000
v 0.500000 -0.207231 0.271340
v 0.500000 0.255238 0.271340
v 0.500000 -0.207231 -0.000000
v 0.500000 0.255238 -0.271340
v 0.500000 -0.207231 -0.271340
v 0.500000 -0.207231 -0.000000
v 0.500000 -0.207231 -0.271340
v 0.362982 -0.207231 -0.271340
v 0.362982 -0.207231 -0.000000
v 0.362982 -0.207231 0.271340
v 0.500000 -0.207231 0.271340
vt 0.896169 0.431643
vt 0.871361 0.646640
vt 0.896169 0.646640
vt 0.871361 0.431643
vt 0.896169 0.216646
vt 0.814451 0.646640
vt 0.871361 0.216646
vt 0.814451 0.431643
vt 0.787211 0.646640
vt 0.814451 0.216646
vt 0.787211 0.431643
vt 0.787211 0.216646
vt 0.896169 0.431643
vt 0.896169 0.216646
vt 0.896169 0.216646
vt 0.896169 0.431643
vt 0.896169 0.646640
vt 0.896169 0.646640
vt 0.548157 0.431643
vt 0.548157 0.458459
vt 0.534567 0.458459
vt 0.534567 0.431643
vt 0.534567 0.404827
vt 0.548157 0.404827
vn 0.70711 0.70711 -0.00000
vn 0.70711 0.70711 -0.00000
vn 0.70711 0.70711 -0.00000
vn 0.70711 0.70711 -0.00000
vn 0.70711 0.70711 -0.00000
vn 0.70711 0.70711 -0.00000
vn 0.70711 0.70711 -0.00000
vn 0.70711 0.70711 -0.00000
vn 0.70711 0.70711 -0.00000
vn 0.70711 0.70711 -0.00000
vn 0.70711 0.70711 -0.00000
vn 0.70711 0.70711 -0.00000
vn 1.00000 0.00000 -0.00000
vn 1.00000 0.00000 -0.00000
vn 1.00000 0.00000 -0.00000
vn 1.00000 0.00000 -0.00000
vn 1.00000 0.00000 -0.00000
vn 1.00000 0.00000 -0.00000
vn 0.00000 -1.00000 -0.00000
vn 0.00000 -1.00000 -0.00000
vn 0.00000 -1.00000 -0.00000
vn 0.00000 -1.00000 -0.00000
vn 0.00000 -1.00000 -0.00000
vn 0.00000 -1.00000 -0.00000
g Edge_Right_sub0
usemtl PieceBlock_Blue
f 1/1/1 3/3/3 2/2/2
f 1/1/1 2/2/2 4/4/4
f 5/5/5 1/1/1 4/4/4
f 4/4/4 2/2/2 6/6/6
f 5/5/5 4/4/4 7/7/7
f 4/4/4 6/6/6 8/8/8
f 7/7/7 4/4/4 8/8/8
f 8/8/8 6/6/6 9/9/9
f 7/7/7 8/8/8 10/10/10
f 8/8/8 9/9/9 11/11/11
f 10/10/10 8/8/8 11/11/11
f 10/10/10 11/11/11 12/12/12
f 13/13/13 15/15/15 14/14/14
f 13/13/13 14/14/14 16/16/16
f 17/17/17 13/13/13 16/16/16
f 17/17/17 16/16/16 18/18/18
f 19/19/19 21/21/21 20/20/20
f 19/19/19 22/22/22 21/21/21
f 23/23/23 22/22/22 19/19/19
f 23/23/23 19/19/19 24/24/24
