# Edge_Bottom - exported from Blocked In (Unity mesh, z negated to right-handed)
mtllib Edge_Bottom.mtl
o Edge_Bottom
v -0.000000 0.255238 0.500000
v -0.271340 0.255238 0.500000
v -0.271340 0.286434 0.468804
v -0.000000 0.286434 0.468804
v 0.271340 0.255238 0.500000
v -0.271340 0.358001 0.397237
v 0.271340 0.286434 0.468804
v -0.000000 0.358001 0.397237
v -0.271340 0.392255 0.362982
v 0.271340 0.358001 0.397237
v -0.000000 0.392255 0.362982
v 0.271340 0.392255 0.362982
v -0.000000 -0.207231 0.500000
v 0.271340 0.255238 0.500000
v 0.271340 -0.207231 0.500000
v -0.000000 0.255238 0.500000
v -0.271340 -0.207231 0.500000
v -0.271340 0.255238 0.500000
v -0.271340 -0.207231 0.362982
v -0.271340 -0.207231 0.500000
v -0.000000 -0.207231 0.500000
v -0.000000 -0.207231 0.362982
v 0.271340 -0.207231 0.362982
v 0.271340 -0.207231 0.500000
vt 0.498565 0.035467
vt 0.282794 0.035467
vt 0.282794 0.060185
vt 0.498565 0.060185
vt 0.714337 0.035467
vt 0.282794 0.116892
vt 0.714337 0.060185
vt 0.498565 0.116892
vt 0.282794 0.144033
vt 0.714337 0.116892
vt 0.498565 0.144033
vt 0.714337 0.144033
vt 0.498565 0.035467
vt 0.714337 0.035467
vt 0.714337 0.035467
vt 0.498565 0.035467
vt 0.282794 0.035467
vt 0.282794 0.035467
vt 0.471653 0.395771
vt 0.471653 0.382230
vt 0.498565 0.382230
vt 0.498565 0.395771
vt 0.525478 0.395771
vt 0.525478 0.382230
vn 0.00000 0.70711 0.70711
vn -0.00000 0.70711 0.70711
vn -0.00000 0.70711 0.70711
vn -0.00000 0.70711 0.70711
vn 0.00000 0.70711 0.70711
vn -0.00000 0.70711 0.70711
vn 0.00000 0.70711 0.70711
vn -0.00000 0.70711 0.70711
vn -0.00000 0.70711 0.70711
vn -0.00000 0.70711 0.70711
vn -0.00000 0.70711 0.70711
vn -0.00000 0.70711 0.70711
vn -0.00000 0.00000 1.00000
vn 0.00000 0.00000 1.00000
vn 0.00000 0.00000 1.00000
vn -0.00000 0.00000 1.00000
vn -0.00000 0.00000 1.00000
vn -0.00000 0.00000 1.00000
vn 0.00000 -1.00000 -0.00000
vn 0.00000 -1.00000 -0.00000
vn 0.00000 -1.00000 -0.00000
vn 0.00000 -1.00000 -0.00000
vn 0.00000 -1.00000 -0.00000
vn 0.00000 -1.00000 -0.00000
g Edge_Bottom_sub0
usemtl PieceBlock_Blue
f 1/1/1 3/3/3 2/2/2
f 1/1/1 4/4/4 3/3/3
f 5/5/5 4/4/4 1/1/1
f 4/4/4 6/6/6 3/3/3
f 5/5/5 7/7/7 4/4/4
f 4/4/4 8/8/8 6/6/6
f 7/7/7 8/8/8 4/4/4
f 8/8/8 9/9/9 6/6/6
f 7/7/7 10/10/10 8/8/8
f 8/8/8 11/11/11 9/9/9
f 10/10/10 11/11/11 8/8/8
f 10/10/10 12/12/12 11/11/11
f 13/13/13 15/15/15 14/14/14
f 13/13/13 14/14/14 16/16/16
f 17/17/17 13/13/13 16/16/16
f 17/17/17 16/16/16 18/18/18
f 19/19/19 21/21/21 20/20/20
f 19/19/19 22/22/22 21/21/21
f 21/21/21 22/22/22 23/23/23
f 21/21/21 23/23/23 24/24/24
