# FrontFace - exported from Blocked In (Unity mesh, z negated to right-handed)
mtllib FrontFace.mtl
o FrontFace
v 0.321061 0.392255 -0.350884
v 0.271340 0.392255 -0.362982
v 0.301409 0.392255 -0.359024
v 0.337935 0.392255 -0.337935
v 0.350884 0.392255 -0.321061
v 0.359024 0.392255 -0.301409
v 0.362982 0.392255 -0.271340
v 0.271340 0.392255 -0.271340
v 0.000000 0.392255 -0.362982
v 0.271340 0.392255 -0.000000
v 0.362982 0.392255 -0.000000
v 0.000000 0.392255 -0.271340
v 0.271340 0.392255 0.271340
v 0.362982 0.392255 0.271340
v 0.359024 0.392255 0.301409
v 0.350884 0.392255 0.321061
v 0.337935 0.392255 0.337935
v 0.321061 0.392255 0.350884
v 0.301409 0.392255 0.359024
v 0.271340 0.392255 0.362982
v -0.271340 0.392255 -0.271340
v -0.271340 0.392255 -0.362982
v 0.000000 0.392255 0.000000
v 0.000000 0.392255 0.271340
v 0.000000 0.392255 0.362982
v -0.271340 0.392255 0.362982
v -0.271340 0.392255 0.271340
v -0.301409 0.392255 0.359024
v -0.321061 0.392255 0.350884
v -0.337935 0.392255 0.337935
v -0.350884 0.392255 0.321061
v -0.359024 0.392255 0.301409
v -0.362982 0.392255 0.271340
v -0.362982 0.392255 -0.000000
v -0.271340 0.392255 0.000000
v -0.362982 0.392255 -0.271340
v -0.359024 0.392255 -0.301409
v -0.350884 0.392255 -0.321061
v -0.337935 0.392255 -0.337935
v -0.321061 0.392255 -0.350884
v -0.301409 0.392255 -0.359024
v 0.271340 -0.207231 -0.362982
v 0.321061 -0.207231 -0.350884
v 0.301409 -0.207231 -0.359024
v 0.337935 -0.207231 -0.337935
v 0.350884 -0.207231 -0.321061
v 0.359024 -0.207231 -0.301409
v 0.271340 -0.207231 -0.271340
v 0.362982 -0.207231 -0.271340
v 0.000000 -0.207231 -0.362982
v 0.271340 -0.207231 -0.000000
v 0.362982 -0.207231 -0.000000
v 0.000000 -0.207231 -0.271340
v 0.271340 -0.207231 0.271340
v 0.362982 -0.207231 0.271340
v 0.359024 -0.207231 0.301409
v 0.350884 -0.207231 0.321061
v 0.337935 -0.207231 0.337935
v 0.321061 -0.207231 0.350884
v 0.301409 -0.207231 0.359024
v 0.271340 -0.207231 0.362982
v -0.271340 -0.207231 -0.271340
v -0.271340 -0.207231 -0.362982
v 0.000000 -0.207231 0.000000
v 0.000000 -0.207231 0.271340
v 0.000000 -0.207231 0.362982
v -0.271340 -0.207231 0.362982
v -0.271340 -0.207231 0.271340
v -0.301409 -0.207231 0.359024
v -0.321061 -0.207231 0.350884
v -0.337935 -0.207231 0.337935
v -0.350884 -0.207231 0.321061
v -0.359024 -0.207231 0.301409
v -0.362982 -0.207231 0.271340
v -0.362982 -0.207231 -0.000000
v -0.271340 -0.207231 0.000000
v -0.362982 -0.207231 -0.271340
v -0.359024 -0.207231 -0.301409
v -0.350884 -0.207231 -0.321061
v -0.337935 -0.207231 -0.337935
v -0.321061 -0.207231 -0.350884
v -0.301409 -0.207231 -0.359024
vt 0.753875 0.709666
vt 0.714337 0.719253
vt 0.738248 0.716116
vt 0.767294 0.699407
vt 0.777591 0.686036
vt 0.784063 0.670465
vt 0.787211 0.646640
vt 0.714337 0.646640
vt 0.498565 0.719253
vt 0.714337 0.431643
vt 0.787211 0.431643
vt 0.498565 0.646640
vt 0.714337 0.216646
vt 0.787211 0.216646
vt 0.784063 0.192821
vt 0.777591 0.177250
vt 0.767294 0.163879
vt 0.753875 0.153620
vt 0.738248 0.147170
vt 0.714337 0.144033
vt 0.282794 0.646640
vt 0.282794 0.719253
vt 0.498565 0.431643
vt 0.498565 0.216646
vt 0.498565 0.144033
vt 0.282794 0.144033
vt 0.282794 0.216646
vt 0.258883 0.147170
vt 0.243256 0.153620
vt 0.229837 0.163879
vt 0.219540 0.177250
vt 0.213067 0.192821
vt 0.209919 0.216646
vt 0.209919 0.431643
vt 0.282794 0.431643
vt 0.209919 0.646640
vt 0.213067 0.670465
vt 0.219540 0.686036
vt 0.229837 0.699407
vt 0.243256 0.709666
vt 0.258883 0.716116
vt 0.525478 0.467516
vt 0.530409 0.466320
vt 0.528460 0.467124
vt 0.532083 0.465040
vt 0.533367 0.463373
vt 0.534174 0.461431
vt 0.525478 0.458459
vt 0.534567 0.458459
vt 0.498565 0.467516
vt 0.525478 0.431643
vt 0.534567 0.431643
vt 0.498565 0.458459
vt 0.525478 0.404827
vt 0.534567 0.404827
vt 0.534174 0.401856
vt 0.533367 0.399914
vt 0.532083 0.398246
vt 0.530409 0.396966
vt 0.528460 0.396162
vt 0.525478 0.395771
vt 0.471653 0.458459
vt 0.471653 0.467516
vt 0.498565 0.431643
vt 0.498565 0.404827
vt 0.498565 0.395771
vt 0.471653 0.395771
vt 0.471653 0.404827
vt 0.468670 0.396162
vt 0.466721 0.396966
vt 0.465048 0.398246
vt 0.463763 0.399914
vt 0.462956 0.401856
vt 0.462563 0.404827
vt 0.462563 0.431643
vt 0.471653 0.431643
vt 0.462563 0.458459
vt 0.462956 0.461431
vt 0.463763 0.463373
vt 0.465048 0.465040
vt 0.466721 0.466320
vt 0.468670 0.467124
vn -0.00000 1.00000 -0.00000
vn -0.00000 1.00000 -0.00000
vn -0.00000 1.00000 -0.00000
vn -0.00000 1.00000 -0.00000
vn -0.00000 1.00000 -0.00000
vn -0.00000 1.00000 -0.00000
vn -0.00000 1.00000 -0.00000
vn -0.00000 1.00000 -0.00000
vn 0.00000 1.00000 -0.00000
vn 0.00000 1.00000 -0.00000
vn 0.00000 1.00000 -0.00000
vn 0.00000 1.00000 -0.00000
vn -0.00000 1.00000 -0.00000
vn -0.00000 1.00000 -0.00000
vn -0.00000 1.00000 -0.00000
vn -0.00000 1.00000 -0.00000
vn -0.00000 1.00000 -0.00000
vn -0.00000 1.00000 -0.00000
vn -0.00000 1.00000 -0.00000
vn -0.00000 1.00000 -0.00000
vn 0.00000 1.00000 -0.00000
vn 0.00000 1.00000 -0.00000
vn 0.00000 1.00000 -0.00000
vn 0.00000 1.00000 -0.00000
vn 0.00000 1.00000 -0.00000
vn 0.00000 1.00000 -0.00000
vn 0.00000 1.00000 -0.00000
vn 0.00000 1.00000 -0.00000
vn 0.00000 1.00000 -0.00000
vn 0.00000 1.00000 -0.00000
vn 0.00000 1.00000 -0.00000
vn 0.00000 1.00000 -0.00000
vn 0.00000 1.00000 -0.00000
vn 0.00000 1.00000 -0.00000
vn 0.00000 1.00000 -0.00000
vn 0.00000 1.00000 -0.00000
vn 0.00000 1.00000 -0.00000
vn 0.00000 1.00000 -0.00000
vn 0.00000 1.00000 -0.00000
vn 0.00000 1.00000 -0.00000
vn 0.00000 1.00000 -0.00000
vn 0.00000 -1.00000 -0.00000
vn 0.00000 -1.00000 -0.00000
vn 0.00000 -1.00000 -0.00000
vn 0.00000 -1.00000 -0.00000
vn 0.00000 -1.00000 -0.00000
vn 0.00000 -1.00000 -0.00000
vn 0.00000 -1.00000 -0.00000
vn 0.00000 -1.00000 -0.00000
vn 0.00000 -1.00000 -0.00000
vn 0.00000 -1.00000 -0.00000
vn 0.00000 -1.00000 -0.00000
vn 0.00000 -1.00000 -0.00000
vn 0.00000 -1.00000 -0.00000
vn 0.00000 -1.00000 -0.00000
vn 0.00000 -1.00000 -0.00000
vn 0.00000 -1.00000 -0.00000
vn 0.00000 -1.00000 -0.00000
vn 0.00000 -1.00000 -0.00000
vn 0.00000 -1.00000 -0.00000
vn 0.00000 -1.00000 -0.00000
vn 0.00000 -1.00000 -0.00000
vn -0.00000 -1.00000 -0.00000
vn 0.00000 -1.00000 -0.00000
vn 0.00000 -1.00000 -0.00000
vn 0.00000 -1.00000 -0.00000
vn 0.00000 -1.00000 -0.00000
vn 0.00000 -1.00000 -0.00000
vn -0.00000 -1.00000 -0.00000
vn -0.00000 -1.00000 -0.00000
vn -0.00000 -1.00000 -0.00000
vn -0.00000 -1.00000 -0.00000
vn -0.00000 -1.00000 -0.00000
vn -0.00000 -1.00000 -0.00000
vn -0.00000 -1.00000 -0.00000
vn 0.00000 -1.00000 -0.00000
vn -0.00000 -1.00000 -0.00000
vn -0.00000 -1.00000 -0.00000
vn -0.00000 -1.00000 -0.00000
vn -0.00000 -1.00000 -0.00000
vn -0.00000 -1.00000 -0.00000
vn -0.00000 -1.00000 -0.00000
g FrontFace_sub0
usemtl PieceBlock_Blue
f 1/1/1 3/3/3 2/2/2
f 4/4/4 1/1/1 2/2/2
f 5/5/5 4/4/4 2/2/2
f 6/6/6 5/5/5 2/2/2
f 7/7/7 6/6/6 2/2/2
f 2/2/2 8/8/8 7/7/7
f 9/9/9 8/8/8 2/2/2
f 7/7/7 8/8/8 10/10/10
f 7/7/7 10/10/10 11/11/11
f 9/9/9 12/12/12 8/8/8
f 12/12/12 10/10/10 8/8/8
f 11/11/11 10/10/10 13/13/13
f 11/11/11 13/13/13 14/14/14
f 15/15/15 14/14/14 13/13/13
f 16/16/16 15/15/15 13/13/13
f 17/17/17 16/16/16 13/13/13
f 18/18/18 17/17/17 13/13/13
f 19/19/19 18/18/18 13/13/13
f 13/13/13 20/20/20 19/19/19
f 21/21/21 12/12/12 9/9/9
f 21/21/21 9/9/9 22/22/22
f 12/12/12 23/23/23 10/10/10
f 23/23/23 13/13/13 10/10/10
f 23/23/23 12/12/12 21/21/21
f 20/20/20 13/13/13 24/24/24
f 23/23/23 24/24/24 13/13/13
f 20/20/20 24/24/24 25/25/25
f 24/24/24 26/26/26 25/25/25
f 24/24/24 27/27/27 26/26/26
f 28/28/28 26/26/26 27/27/27
f 27/27/27 29/29/29 28/28/28
f 27/27/27 30/30/30 29/29/29
f 27/27/27 31/31/31 30/30/30
f 27/27/27 32/32/32 31/31/31
f 27/27/27 33/33/33 32/32/32
f 34/34/34 33/33/33 27/27/27
f 24/24/24 23/23/23 35/35/35
f 24/24/24 35/35/35 27/27/27
f 34/34/34 27/27/27 35/35/35
f 36/36/36 34/34/34 35/35/35
f 23/23/23 21/21/21 35/35/35
f 36/36/36 35/35/35 21/21/21
f 37/37/37 36/36/36 21/21/21
f 21/21/21 22/22/22 37/37/37
f 22/22/22 38/38/38 37/37/37
f 22/22/22 39/39/39 38/38/38
f 22/22/22 40/40/40 39/39/39
f 22/22/22 41/41/41 40/40/40
f 42/42/42 44/44/44 43/43/43
f 42/42/42 43/43/43 45/45/45
f 42/42/42 45/45/45 46/46/46
f 42/42/42 46/46/46 47/47/47
f 48/48/48 42/42/42 47/47/47
f 47/47/47 49/49/49 48/48/48
f 50/50/50 42/42/42 48/48/48
f 49/49/49 51/51/51 48/48/48
f 49/49/49 52/52/52 51/51/51
f 50/50/50 48/48/48 53/53/53
f 53/53/53 48/48/48 51/51/51
f 52/52/52 54/54/54 51/51/51
f 52/52/52 55/55/55 54/54/54
f 54/54/54 55/55/55 56/56/56
f 54/54/54 56/56/56 57/57/57
f 54/54/54 57/57/57 58/58/58
f 54/54/54 58/58/58 59/59/59
f 54/54/54 59/59/59 60/60/60
f 60/60/60 61/61/61 54/54/54
f 62/62/62 50/50/50 53/53/53
f 62/62/62 63/63/63 50/50/50
f 53/53/53 51/51/51 64/64/64
f 64/64/64 51/51/51 54/54/54
f 64/64/64 62/62/62 53/53/53
f 61/61/61 65/65/65 54/54/54
f 64/64/64 54/54/54 65/65/65
f 61/61/61 66/66/66 65/65/65
f 65/65/65 66/66/66 67/67/67
f 65/65/65 67/67/67 68/68/68
f 68/68/68 67/67/67 69/69/69
f 69/69/69 70/70/70 68/68/68
f 70/70/70 71/71/71 68/68/68
f 71/71/71 72/72/72 68/68/68
f 72/72/72 73/73/73 68/68/68
f 73/73/73 74/74/74 68/68/68
f 75/75/75 68/68/68 74/74/74
f 65/65/65 76/76/76 64/64/64
f 65/65/65 68/68/68 76/76/76
f 75/75/75 76/76/76 68/68/68
f 64/64/64 76/76/76 62/62/62
f 77/77/77 76/76/76 75/75/75
f 77/77/77 62/62/62 76/76/76
f 63/63/63 62/62/62 77/77/77
f 77/77/77 78/78/78 63/63/63
f 78/78/78 79/79/79 63/63/63
f 79/79/79 80/80/80 63/63/63
f 80/80/80 81/81/81 63/63/63
f 81/81/81 82/82/82 63/63/63
