# Socket_Bottom - exported from Blocked In (Unity mesh, z negated to right-handed)
mtllib Socket_Bottom.mtl
o Socket_Bottom
v -0.271340 -0.207231 0.500000
v -0.271340 0.255238 0.500000
v -0.150627 0.255238 0.500000
v -0.150627 -0.207231 0.500000
v 0.000202 -0.207231 0.500000
v 0.000202 0.255238 0.500000
v 0.151030 0.255238 0.500000
v 0.151030 -0.207231 0.500000
v 0.271340 -0.207231 0.500000
v 0.271340 0.255238 0.500000
v -0.271340 0.286434 0.468804
v -0.150627 0.255238 0.500000
v -0.271340 0.255238 0.500000
v -0.150627 0.286434 0.468804
v -0.271340 0.371503 0.383734
v -0.150627 0.371503 0.383734
v -0.271340 0.392255 0.362982
v -0.150627 0.392255 0.362982
v 0.000202 0.392255 0.362982
v 0.000202 0.371503 0.383734
v 0.151030 0.371503 0.383734
v 0.151030 0.392255 0.362982
v 0.271340 0.392255 0.362982
v 0.271340 0.371503 0.383734
v 0.151030 0.286434 0.468804
v 0.271340 0.286434 0.468804
v 0.151030 0.255238 0.500000
v 0.271340 0.255238 0.500000
v -0.150627 0.371503 0.383734
v -0.096055 0.371503 0.383734
v -0.123341 0.360792 0.390814
v -0.143316 0.343049 0.410158
v -0.150627 0.319164 0.436581
v -0.143316 0.343049 0.410158
v -0.143316 0.255238 0.410158
v -0.150627 0.255238 0.436581
v -0.150627 0.319164 0.436581
v -0.150627 0.255238 0.468804
v -0.150627 0.286434 0.468804
v -0.150627 0.255238 0.500000
v -0.123341 0.360792 0.390814
v -0.143316 0.255238 0.410158
v -0.143316 0.343049 0.410158
v -0.123341 0.255238 0.390814
v -0.096055 0.371503 0.383734
v -0.096055 0.255238 0.383734
v 0.000202 0.371503 0.383734
v 0.000202 0.255238 0.383734
v 0.096458 0.255238 0.383734
v 0.096458 0.371503 0.383734
v 0.123744 0.255238 0.390814
v 0.123744 0.360792 0.390814
v 0.143719 0.255238 0.410158
v 0.143719 0.343049 0.410158
v 0.000202 0.255238 0.500000
v -0.150627 0.255238 0.500000
v -0.150627 0.255238 0.468804
v 0.000202 0.255238 0.468804
v 0.151030 0.255238 0.468804
v 0.151030 0.255238 0.500000
v 0.151030 0.255238 0.436581
v 0.000202 0.255238 0.436581
v -0.150627 0.255238 0.436581
v 0.143719 0.255238 0.410158
v 0.000202 0.255238 0.410158
v -0.143316 0.255238 0.410158
v -0.123341 0.255238 0.390814
v 0.000202 0.255238 0.383734
v -0.096055 0.255238 0.383734
v 0.123744 0.255238 0.390814
v 0.096458 0.255238 0.383734
v 0.151030 0.371503 0.383734
v 0.123744 0.360792 0.390814
v 0.096458 0.371503 0.383734
v 0.143719 0.343049 0.410158
v 0.151030 0.319164 0.436581
v 0.143719 0.343049 0.410158
v 0.151030 0.255238 0.436581
v 0.143719 0.255238 0.410158
v 0.151030 0.319164 0.436581
v 0.151030 0.255238 0.468804
v 0.151030 0.286434 0.468804
v 0.151030 0.255238 0.500000
v -0.271340 -0.207231 0.362982
v -0.271340 -0.207231 0.500000
v -0.000000 -0.207231 0.500000
v -0.000000 -0.207231 0.362982
v 0.271340 -0.207231 0.362982
v 0.271340 -0.207231 0.500000
vt 0.282794 0.035467
vt 0.282794 0.035467
vt 0.389529 0.035467
vt 0.389529 0.035467
vt 0.498565 0.035467
vt 0.498565 0.035467
vt 0.607602 0.035467
vt 0.607602 0.035467
vt 0.714337 0.035467
vt 0.714337 0.035467
vt 0.282794 0.060185
vt 0.389529 0.035467
vt 0.282794 0.035467
vt 0.389529 0.060185
vt 0.282794 0.116892
vt 0.389529 0.116892
vt 0.282794 0.144033
vt 0.389529 0.144033
vt 0.498565 0.144033
vt 0.498565 0.116892
vt 0.607602 0.116892
vt 0.607602 0.144033
vt 0.714337 0.144033
vt 0.714337 0.116892
vt 0.607602 0.060185
vt 0.714337 0.060185
vt 0.607602 0.035467
vt 0.714337 0.035467
vt 0.389529 0.116892
vt 0.428980 0.116892
vt 0.409255 0.111282
vt 0.394814 0.095955
vt 0.389529 0.075019
vt 0.759209 0.934417
vt 0.759209 0.934417
vt 0.758405 0.900932
vt 0.758405 0.900932
vt 0.758405 0.877208
vt 0.758405 0.877208
vt 0.758405 0.839645
vt 0.774111 0.958930
vt 0.759209 0.934417
vt 0.759209 0.934417
vt 0.774111 0.958930
vt 0.794468 0.967903
vt 0.794468 0.967903
vt 0.866281 0.967903
vt 0.866281 0.967903
vt 0.938094 0.967903
vt 0.938094 0.967903
vt 0.958451 0.958930
vt 0.958451 0.958930
vt 0.973353 0.934417
vt 0.973353 0.934417
vt 0.866281 0.839645
vt 0.758405 0.839645
vt 0.758405 0.877208
vt 0.866281 0.877839
vt 0.976347 0.877208
vt 0.976347 0.839645
vt 0.976347 0.900932
vt 0.866281 0.900932
vt 0.758405 0.900932
vt 0.973353 0.934417
vt 0.866281 0.934417
vt 0.759209 0.934417
vt 0.774111 0.958930
vt 0.866281 0.967903
vt 0.794468 0.967903
vt 0.958451 0.958930
vt 0.938094 0.967903
vt 0.607602 0.116892
vt 0.587876 0.111282
vt 0.568151 0.116892
vt 0.602316 0.095955
vt 0.607602 0.075019
vt 0.973353 0.934417
vt 0.976347 0.900932
vt 0.973353 0.934417
vt 0.976347 0.900932
vt 0.976347 0.877208
vt 0.976347 0.877208
vt 0.976347 0.839645
vt 0.471653 0.395771
vt 0.471653 0.382230
vt 0.498565 0.382230
vt 0.498565 0.395771
vt 0.525478 0.395771
vt 0.525478 0.382230
vn 0.00000 0.00000 1.00000
vn 0.00000 0.00000 1.00000
vn 0.00000 0.00000 1.00000
vn 0.00000 0.00000 1.00000
vn 0.00000 0.00000 1.00000
vn 0.00000 0.00000 1.00000
vn 0.00000 0.00000 1.00000
vn 0.00000 0.00000 1.00000
vn 0.00000 0.00000 1.00000
vn 0.00000 0.00000 1.00000
vn 0.00000 0.70711 0.70711
vn 0.00000 0.70711 0.70711
vn 0.00000 0.70711 0.70711
vn 0.00000 0.70711 0.70711
vn 0.00000 0.70711 0.70711
vn 0.00000 0.70711 0.70711
vn 0.00000 0.70711 0.70711
vn 0.00000 0.70711 0.70711
vn 0.00000 0.70711 0.70711
vn 0.00000 0.70711 0.70711
vn 0.00000 0.70711 0.70711
vn 0.00000 0.70711 0.70711
vn 0.00000 0.70711 0.70711
vn 0.00000 0.70711 0.70711
vn -0.00000 0.70711 0.70711
vn -0.00000 0.70711 0.70711
vn -0.00000 0.70711 0.70711
vn -0.00000 0.70711 0.70711
vn 0.07709 0.65525 0.75147
vn 0.00000 0.55142 0.83423
vn 0.03156 0.60585 0.79495
vn 0.18592 0.69384 0.69572
vn 0.21670 0.69363 0.68697
vn 0.96379 0.00000 0.26668
vn 0.96379 0.00000 0.26668
vn 0.99091 0.00000 0.13456
vn 0.97971 0.00000 0.20040
vn 1.00000 0.00000 -0.00000
vn 1.00000 0.00000 -0.00000
vn 1.00000 0.00000 -0.00000
vn 0.41526 0.00000 0.90970
vn 0.69566 0.00000 0.71837
vn 0.69566 0.00000 0.71837
vn 0.48958 0.00000 0.87196
vn 0.11004 0.00000 0.99393
vn 0.12660 0.00000 0.99195
vn 0.00000 0.00000 1.00000
vn 0.00000 0.00000 1.00000
vn -0.12660 0.00000 0.99195
vn -0.11004 0.00000 0.99393
vn -0.48958 0.00000 0.87196
vn -0.41526 0.00000 0.90970
vn -0.69566 0.00000 0.71837
vn -0.69566 0.00000 0.71837
vn 0.00000 1.00000 -0.00000
vn 0.00000 1.00000 -0.00000
vn 0.00000 1.00000 -0.00000
vn 0.00000 1.00000 -0.00000
vn 0.00000 1.00000 -0.00000
vn 0.00000 1.00000 -0.00000
vn 0.00000 1.00000 -0.00000
vn 0.00000 1.00000 -0.00000
vn 0.00000 1.00000 -0.00000
vn 0.00000 1.00000 -0.00000
vn 0.00000 1.00000 -0.00000
vn 0.00000 1.00000 -0.00000
vn -0.00000 1.00000 -0.00000
vn 0.00000 1.00000 -0.00000
vn -0.00000 1.00000 -0.00000
vn 0.00000 1.00000 -0.00000
vn 0.00000 1.00000 -0.00000
vn -0.07709 0.65525 0.75147
vn -0.03156 0.60585 0.79495
vn 0.00000 0.55142 0.83423
vn -0.18592 0.69384 0.69572
vn -0.21670 0.69363 0.68697
vn -0.96379 0.00000 0.26668
vn -0.99091 0.00000 0.13456
vn -0.96379 0.00000 0.26668
vn -0.97971 0.00000 0.20040
vn -1.00000 0.00000 -0.00000
vn -1.00000 0.00000 -0.00000
vn -1.00000 0.00000 -0.00000
vn 0.00000 -1.00000 -0.00000
vn 0.00000 -1.00000 -0.00000
vn 0.00000 -1.00000 -0.00000
vn 0.00000 -1.00000 -0.00000
vn 0.00000 -1.00000 -0.00000
vn 0.00000 -1.00000 -0.00000
g Socket_Bottom_sub0
usemtl PieceBlock_Blue
f 1/1/1 3/3/3 2/2/2
f 1/1/1 4/4/4 3/3/3
f 3/3/3 4/4/4 5/5/5
f 3/3/3 5/5/5 6/6/6
f 7/7/7 6/6/6 5/5/5
f 7/7/7 5/5/5 8/8/8
f 9/9/9 7/7/7 8/8/8
f 9/9/9 10/10/10 7/7/7
f 11/11/11 13/13/13 12/12/12
f 11/11/11 12/12/12 14/14/14
f 15/15/15 11/11/11 14/14/14
f 15/15/15 14/14/14 16/16/16
f 17/17/17 15/15/15 16/16/16
f 17/17/17 16/16/16 18/18/18
f 16/16/16 19/19/19 18/18/18
f 16/16/16 20/20/20 19/19/19
f 21/21/21 19/19/19 20/20/20
f 21/21/21 22/22/22 19/19/19
f 23/23/23 22/22/22 21/21/21
f 23/23/23 21/21/21 24/24/24
f 24/24/24 21/21/21 25/25/25
f 24/24/24 25/25/25 26/26/26
f 26/26/26 25/25/25 27/27/27
f 26/26/26 27/27/27 28/28/28
f 29/29/29 31/31/31 30/30/30
f 29/29/29 32/32/32 31/31/31
f 32/32/32 29/29/29 33/33/33
f 34/34/34 36/36/36 35/35/35
f 34/34/34 37/37/37 36/36/36
f 37/37/37 38/38/38 36/36/36
f 37/37/37 39/39/39 38/38/38
f 39/39/39 40/40/40 38/38/38
f 41/41/41 43/43/43 42/42/42
f 41/41/41 42/42/42 44/44/44
f 45/45/45 41/41/41 44/44/44
f 45/45/45 44/44/44 46/46/46
f 47/47/47 45/45/45 46/46/46
f 47/47/47 46/46/46 48/48/48
f 47/47/47 48/48/48 49/49/49
f 47/47/47 49/49/49 50/50/50
f 50/50/50 49/49/49 51/51/51
f 50/50/50 51/51/51 52/52/52
f 52/52/52 51/51/51 53/53/53
f 52/52/52 53/53/53 54/54/54
f 55/55/55 57/57/57 56/56/56
f 55/55/55 58/58/58 57/57/57
f 55/55/55 59/59/59 58/58/58
f 55/55/55 60/60/60 59/59/59
f 58/58/58 59/59/59 61/61/61
f 57/57/57 58/58/58 62/62/62
f 58/58/58 61/61/61 62/62/62
f 57/57/57 62/62/62 63/63/63
f 62/62/62 61/61/61 64/64/64
f 63/63/63 62/62/62 65/65/65
f 62/62/62 64/64/64 65/65/65
f 63/63/63 65/65/65 66/66/66
f 67/67/67 66/66/66 65/65/65
f 68/68/68 65/65/65 64/64/64
f 65/65/65 68/68/68 67/67/67
f 68/68/68 69/69/69 67/67/67
f 64/64/64 70/70/70 68/68/68
f 70/70/70 71/71/71 68/68/68
f 72/72/72 74/74/74 73/73/73
f 72/72/72 73/73/73 75/75/75
f 75/75/75 76/76/76 72/72/72
f 77/77/77 79/79/79 78/78/78
f 77/77/77 78/78/78 80/80/80
f 80/80/80 78/78/78 81/81/81
f 80/80/80 81/81/81 82/82/82
f 82/82/82 81/81/81 83/83/83
f 84/84/84 86/86/86 85/85/85
f 84/84/84 87/87/87 86/86/86
f 86/86/86 87/87/87 88/88/88
f 86/86/86 88/88/88 89/89/89
