# Socket_Left - exported from Blocked In (Unity mesh, z negated to right-handed)
mtllib Socket_Left.mtl
o Socket_Left
v -0.500000 -0.207231 -0.271340
v -0.500000 0.255238 -0.271340
v -0.500000 0.255238 -0.150716
v -0.500000 -0.207231 -0.150716
v -0.500000 -0.207231 0.000112
v -0.500000 0.255238 0.000112
v -0.500000 0.255238 0.150941
v -0.500000 -0.207231 0.150941
v -0.500000 -0.207231 0.271340
v -0.500000 0.255238 0.271340
v -0.468804 0.286434 -0.271340
v -0.500000 0.255238 -0.150716
v -0.500000 0.255238 -0.271340
v -0.468804 0.286434 -0.150716
v -0.382380 0.372857 -0.271340
v -0.382380 0.372857 -0.150716
v -0.362982 0.392255 -0.271340
v -0.362982 0.392255 -0.150716
v -0.362982 0.392255 0.000112
v -0.382380 0.372857 0.000112
v -0.382380 0.372857 0.150941
v -0.362982 0.392255 0.150941
v -0.362982 0.392255 0.271340
v -0.382380 0.372857 0.271340
v -0.468804 0.286434 0.150941
v -0.468804 0.286434 0.271340
v -0.500000 0.255238 0.150941
v -0.500000 0.255238 0.271340
v -0.382380 0.372857 -0.150716
v -0.382380 0.372857 -0.096144
v -0.389460 0.362146 -0.123430
v -0.408804 0.344403 -0.143405
v -0.435227 0.320518 -0.150716
v -0.408804 0.344403 -0.143405
v -0.408804 0.255238 -0.143405
v -0.435227 0.255238 -0.150716
v -0.435227 0.320518 -0.150716
v -0.468804 0.255238 -0.150716
v -0.468804 0.286434 -0.150716
v -0.500000 0.255238 -0.150716
v -0.389460 0.362146 -0.123430
v -0.408804 0.255238 -0.143405
v -0.408804 0.344403 -0.143405
v -0.389460 0.255238 -0.123430
v -0.382380 0.372857 -0.096144
v -0.382380 0.255238 -0.096144
v -0.382380 0.372857 0.000112
v -0.382380 0.255238 0.000112
v -0.382380 0.255238 0.096369
v -0.382380 0.372857 0.096369
v -0.389460 0.255238 0.123655
v -0.389460 0.362146 0.123655
v -0.408804 0.255238 0.143630
v -0.408804 0.344403 0.143630
v -0.500000 0.255238 0.000112
v -0.500000 0.255238 -0.150716
v -0.468804 0.255238 -0.150716
v -0.468804 0.255238 0.000112
v -0.468804 0.255238 0.150941
v -0.500000 0.255238 0.150941
v -0.435227 0.255238 0.150941
v -0.435227 0.255238 0.000112
v -0.435227 0.255238 -0.150716
v -0.408804 0.255238 0.000112
v -0.408804 0.255238 0.143630
v -0.389460 0.255238 0.123655
v -0.382380 0.255238 0.096369
v -0.382380 0.255238 0.000112
v -0.408804 0.255238 -0.143405
v -0.382380 0.255238 -0.096144
v -0.389460 0.255238 -0.123430
v -0.382380 0.372857 0.150941
v -0.389460 0.362146 0.123655
v -0.382380 0.372857 0.096369
v -0.408804 0.344403 0.143630
v -0.435227 0.320518 0.150941
v -0.408804 0.344403 0.143630
v -0.435227 0.255238 0.150941
v -0.408804 0.255238 0.143630
v -0.435227 0.320518 0.150941
v -0.468804 0.255238 0.150941
v -0.468804 0.286434 0.150941
v -0.500000 0.255238 0.150941
v -0.362982 -0.207231 -0.271340
v -0.500000 -0.207231 -0.271340
v -0.500000 -0.207231 -0.000000
v -0.362982 -0.207231 -0.000000
v -0.362982 -0.207231 0.271340
v -0.500000 -0.207231 0.271340
vt 0.117349 0.646640
vt 0.117349 0.646640
vt 0.117349 0.540288
vt 0.117349 0.540288
vt 0.117349 0.431643
vt 0.117349 0.431643
vt 0.117349 0.322998
vt 0.117349 0.322998
vt 0.117349 0.216646
vt 0.117349 0.216646
vt 0.125769 0.646640
vt 0.117349 0.540288
vt 0.117349 0.646640
vt 0.125769 0.540288
vt 0.182680 0.646640
vt 0.182680 0.540288
vt 0.209919 0.646640
vt 0.209919 0.540288
vt 0.209919 0.431643
vt 0.182680 0.431643
vt 0.182680 0.322998
vt 0.209919 0.322998
vt 0.209919 0.216646
vt 0.182680 0.216646
vt 0.125769 0.322998
vt 0.125769 0.216646
vt 0.117349 0.322998
vt 0.117349 0.216646
vt 0.182680 0.540288
vt 0.182680 0.500978
vt 0.177050 0.520633
vt 0.161668 0.535021
vt 0.140656 0.540288
vt 0.034875 0.944947
vt 0.034875 0.944947
vt 0.029501 0.916210
vt 0.029501 0.916210
vt 0.029501 0.895849
vt 0.029501 0.895849
vt 0.029501 0.836448
vt 0.049558 0.965985
vt 0.034875 0.944947
vt 0.034875 0.944947
vt 0.049558 0.965985
vt 0.069614 0.973685
vt 0.069614 0.973685
vt 0.140366 0.973685
vt 0.140366 0.973685
vt 0.211118 0.973685
vt 0.211118 0.973685
vt 0.231174 0.965985
vt 0.231174 0.965985
vt 0.245857 0.944947
vt 0.245857 0.944947
vt 0.140366 0.836448
vt 0.029501 0.836448
vt 0.029501 0.895849
vt 0.140366 0.895849
vt 0.251231 0.895849
vt 0.251231 0.836448
vt 0.251231 0.916210
vt 0.140366 0.916210
vt 0.029501 0.916210
vt 0.140366 0.944795
vt 0.245857 0.944947
vt 0.231174 0.965985
vt 0.211118 0.973685
vt 0.140366 0.973685
vt 0.034875 0.944947
vt 0.069614 0.973685
vt 0.049558 0.965985
vt 0.182680 0.322998
vt 0.177050 0.342653
vt 0.182680 0.362307
vt 0.161668 0.328265
vt 0.140656 0.322998
vt 0.245857 0.944947
vt 0.251231 0.916210
vt 0.245857 0.944947
vt 0.251231 0.916210
vt 0.251231 0.895849
vt 0.251231 0.895849
vt 0.251231 0.836448
vt 0.462563 0.458459
vt 0.448974 0.458459
vt 0.448974 0.431643
vt 0.462563 0.431643
vt 0.462563 0.404827
vt 0.448974 0.404827
vn -1.00000 0.00000 -0.00000
vn -1.00000 0.00000 -0.00000
vn -1.00000 0.00000 -0.00000
vn -1.00000 0.00000 -0.00000
vn -1.00000 0.00000 -0.00000
vn -1.00000 0.00000 -0.00000
vn -1.00000 0.00000 -0.00000
vn -1.00000 0.00000 -0.00000
vn -1.00000 0.00000 -0.00000
vn -1.00000 0.00000 -0.00000
vn -0.70711 0.70711 -0.00000
vn -0.70711 0.70711 -0.00000
vn -0.70711 0.70711 -0.00000
vn -0.70711 0.70711 -0.00000
vn -0.70711 0.70711 -0.00000
vn -0.70711 0.70711 -0.00000
vn -0.70711 0.70711 -0.00000
vn -0.70711 0.70711 -0.00000
vn -0.70711 0.70711 -0.00000
vn -0.70711 0.70711 -0.00000
vn -0.70711 0.70711 -0.00000
vn -0.70711 0.70711 -0.00000
vn -0.70711 0.70711 -0.00000
vn -0.70711 0.70711 -0.00000
vn -0.70711 0.70711 -0.00000
vn -0.70711 0.70711 -0.00000
vn -0.70711 0.70711 -0.00000
vn -0.70711 0.70711 -0.00000
vn -0.75147 0.65525 0.07709
vn -0.83423 0.55142 -0.00000
vn -0.79495 0.60585 0.03156
vn -0.69572 0.69384 0.18592
vn -0.68697 0.69363 0.21670
vn -0.26668 0.00000 0.96379
vn -0.26668 0.00000 0.96379
vn -0.13456 0.00000 0.99091
vn -0.20038 0.00000 0.97972
vn 0.00000 0.00000 1.00000
vn 0.00000 0.00000 1.00000
vn 0.00000 0.00000 1.00000
vn -0.90970 0.00000 0.41526
vn -0.71837 0.00000 0.69566
vn -0.71837 0.00000 0.69566
vn -0.87196 0.00000 0.48958
vn -0.99393 0.00000 0.11004
vn -0.99195 0.00000 0.12660
vn -1.00000 0.00000 -0.00000
vn -1.00000 0.00000 -0.00000
vn -0.99195 0.00000 -0.12660
vn -0.99393 0.00000 -0.11004
vn -0.87196 0.00000 -0.48958
vn -0.90970 0.00000 -0.41526
vn -0.71837 0.00000 -0.69566
vn -0.71837 0.00000 -0.69566
vn 0.00000 1.00000 -0.00000
vn 0.00000 1.00000 -0.00000
vn 0.00000 1.00000 -0.00000
vn 0.00000 1.00000 -0.00000
vn 0.00000 1.00000 -0.00000
vn 0.00000 1.00000 -0.00000
vn 0.00000 1.00000 -0.00000
vn 0.00000 1.00000 -0.00000
vn 0.00000 1.00000 -0.00000
vn 0.00000 1.00000 -0.00000
vn 0.00000 1.00000 -0.00000
vn 0.00000 1.00000 -0.00000
vn 0.00000 1.00000 -0.00000
vn -0.00000 1.00000 -0.00000
vn 0.00000 1.00000 -0.00000
vn -0.00000 1.00000 -0.00000
vn -0.00000 1.00000 -0.00000
vn -0.75147 0.65525 -0.07709
vn -0.79495 0.60585 -0.03156
vn -0.83423 0.55142 -0.00000
vn -0.69572 0.69384 -0.18592
vn -0.68697 0.69362 -0.21670
vn -0.26668 0.00000 -0.96379
vn -0.13456 0.00000 -0.99091
vn -0.26668 0.00000 -0.96379
vn -0.20038 0.00000 -0.97972
vn 0.00000 0.00000 -1.00000
vn 0.00000 0.00000 -1.00000
vn 0.00000 0.00000 -1.00000
vn 0.00000 -1.00000 -0.00000
vn 0.00000 -1.00000 -0.00000
vn 0.00000 -1.00000 -0.00000
vn 0.00000 -1.00000 -0.00000
vn 0.00000 -1.00000 -0.00000
vn 0.00000 -1.00000 -0.00000
g Socket_Left_sub0
usemtl PieceBlock_Blue
f 1/1/1 3/3/3 2/2/2
f 1/1/1 4/4/4 3/3/3
f 3/3/3 4/4/4 5/5/5
f 3/3/3 5/5/5 6/6/6
f 7/7/7 6/6/6 5/5/5
f 7/7/7 5/5/5 8/8/8
f 9/9/9 7/7/7 8/8/8
f 9/9/9 10/10/10 7/7/7
f 11/11/11 13/13/13 12/12/12
f 11/11/11 12/12/12 14/14/14
f 15/15/15 11/11/11 14/14/14
f 15/15/15 14/14/14 16/16/16
f 17/17/17 15/15/15 16/16/16
f 17/17/17 16/16/16 18/18/18
f 16/16/16 19/19/19 18/18/18
f 16/16/16 20/20/20 19/19/19
f 21/21/21 19/19/19 20/20/20
f 21/21/21 22/22/22 19/19/19
f 23/23/23 22/22/22 21/21/21
f 23/23/23 21/21/21 24/24/24
f 24/24/24 21/21/21 25/25/25
f 24/24/24 25/25/25 26/26/26
f 26/26/26 25/25/25 27/27/27
f 26/26/26 27/27/27 28/28/28
f 29/29/29 31/31/31 30/30/30
f 29/29/29 32/32/32 31/31/31
f 32/32/32 29/29/29 33/33/33
f 34/34/34 36/36/36 35/35/35
f 34/34/34 37/37/37 36/36/36
f 37/37/37 38/38/38 36/36/36
f 37/37/37 39/39/39 38/38/38
f 39/39/39 40/40/40 38/38/38
f 41/41/41 43/43/43 42/42/42
f 41/41/41 42/42/42 44/44/44
f 45/45/45 41/41/41 44/44/44
f 45/45/45 44/44/44 46/46/46
f 47/47/47 45/45/45 46/46/46
f 47/47/47 46/46/46 48/48/48
f 47/47/47 48/48/48 49/49/49
f 47/47/47 49/49/49 50/50/50
f 50/50/50 49/49/49 51/51/51
f 50/50/50 51/51/51 52/52/52
f 52/52/52 51/51/51 53/53/53
f 52/52/52 53/53/53 54/54/54
f 55/55/55 57/57/57 56/56/56
f 55/55/55 58/58/58 57/57/57
f 55/55/55 59/59/59 58/58/58
f 55/55/55 60/60/60 59/59/59
f 58/58/58 59/59/59 61/61/61
f 57/57/57 58/58/58 62/62/62
f 58/58/58 61/61/61 62/62/62
f 57/57/57 62/62/62 63/63/63
f 63/63/63 62/62/62 64/64/64
f 62/62/62 61/61/61 65/65/65
f 62/62/62 65/65/65 64/64/64
f 64/64/64 65/65/65 66/66/66
f 66/66/66 67/67/67 64/64/64
f 67/67/67 68/68/68 64/64/64
f 63/63/63 64/64/64 69/69/69
f 64/64/64 68/68/68 70/70/70
f 70/70/70 69/69/69 64/64/64
f 70/70/70 71/71/71 69/69/69
f 72/72/72 74/74/74 73/73/73
f 72/72/72 73/73/73 75/75/75
f 75/75/75 76/76/76 72/72/72
f 77/77/77 79/79/79 78/78/78
f 77/77/77 78/78/78 80/80/80
f 80/80/80 78/78/78 81/81/81
f 80/80/80 81/81/81 82/82/82
f 82/82/82 81/81/81 83/83/83
f 84/84/84 86/86/86 85/85/85
f 84/84/84 87/87/87 86/86/86
f 86/86/86 87/87/87 88/88/88
f 86/86/86 88/88/88 89/89/89
