# Tab_Right - exported from Blocked In (Unity mesh, z negated to right-handed)
mtllib Tab_Right.mtl
o Tab_Right
v 0.383440 0.371798 0.150941
v 0.383440 0.371798 0.138846
v 0.468804 0.286434 0.150941
v 0.500000 -0.207231 -0.271340
v 0.500000 0.255238 -0.130465
v 0.500000 0.255238 -0.271340
v 0.500000 -0.207231 -0.130465
v 0.500000 0.255238 0.000112
v 0.500000 -0.207231 0.000112
v 0.500000 -0.207231 0.150941
v 0.500000 0.255238 0.150941
v 0.500000 -0.207231 0.271340
v 0.500000 0.255238 0.271340
v 0.468804 0.286434 -0.271340
v 0.500000 0.255238 -0.271340
v 0.500000 0.255238 -0.130465
v 0.468804 0.286434 -0.150717
v 0.383440 0.371798 -0.271340
v 0.468804 0.286434 0.000112
v 0.500000 0.255238 0.000112
v 0.383440 0.371798 -0.150717
v 0.500000 0.255238 0.150941
v 0.362982 0.392255 -0.271340
v 0.362982 0.392255 -0.150717
v 0.362982 0.392255 0.000112
v 0.383440 0.371798 0.000112
v 0.383440 0.371798 0.138846
v 0.362982 0.392255 0.150941
v 0.383440 0.371798 0.150941
v 0.468804 0.286434 0.150941
v 0.383440 0.371798 0.271340
v 0.362982 0.392255 0.271340
v 0.468804 0.286434 0.271340
v 0.500000 0.255238 0.271340
v 0.523968 0.286434 -0.123154
v 0.543312 0.286434 -0.103179
v 0.543312 0.358001 -0.122372
v 0.523968 0.358001 -0.142347
v 0.497545 0.286434 -0.130465
v 0.497545 0.358001 -0.149658
v 0.468804 0.286434 -0.150717
v 0.383440 0.371798 -0.150717
v 0.543312 0.286434 -0.103179
v 0.550392 0.358001 -0.095086
v 0.543312 0.358001 -0.122372
v 0.550392 0.286434 -0.075893
v 0.550392 0.358001 -0.019081
v 0.550392 0.286434 0.000112
v 0.550392 0.286434 0.096369
v 0.550392 0.358001 0.077176
v 0.543312 0.286434 0.123655
v 0.543312 0.358001 0.104462
v 0.523968 0.358001 -0.142347
v 0.383440 0.371798 -0.150717
v 0.497545 0.358001 -0.149658
v 0.543312 0.358001 -0.122372
v 0.550392 0.358001 -0.095086
v 0.550392 0.358001 -0.019081
v 0.383440 0.371798 0.000112
v 0.550392 0.358001 0.077176
v 0.543312 0.358001 0.104462
v 0.523968 0.358001 0.124437
v 0.497545 0.358001 0.131748
v 0.383440 0.371798 0.138846
v 0.497545 0.286434 -0.130465
v 0.543312 0.286434 -0.103179
v 0.523968 0.286434 -0.123154
v 0.550392 0.286434 -0.075893
v 0.468804 0.286434 -0.150717
v 0.468804 0.286434 0.000112
v 0.550392 0.286434 0.000112
v 0.550392 0.286434 0.096369
v 0.543312 0.286434 0.123655
v 0.523968 0.286434 0.143630
v 0.468804 0.286434 0.150941
v 0.497545 0.286434 0.150941
v 0.523968 0.286434 0.143630
v 0.543312 0.358001 0.104462
v 0.543312 0.286434 0.123655
v 0.523968 0.358001 0.124437
v 0.497545 0.286434 0.150941
v 0.497545 0.358001 0.131748
v 0.468804 0.286434 0.150941
v 0.383440 0.371798 0.138846
v 0.500000 -0.207231 -0.000000
v 0.500000 -0.207231 -0.271340
v 0.362982 -0.207231 -0.271340
v 0.362982 -0.207231 -0.000000
v 0.362982 -0.207231 0.271340
v 0.500000 -0.207231 0.271340
v 0.468804 0.286434 -0.150717
v 0.468804 0.286434 0.150941
v 0.383440 0.371798 0.138846
v 0.383440 0.371798 -0.150717
vt 0.735347 0.849469
vt 0.725629 0.849484
vt 0.735347 0.912888
vt 0.896169 0.646640
vt 0.896169 0.540288
vt 0.896169 0.646640
vt 0.896169 0.540288
vt 0.896169 0.431643
vt 0.896169 0.431643
vt 0.896169 0.322998
vt 0.896169 0.322998
vt 0.896169 0.216646
vt 0.896169 0.216646
vt 0.871361 0.646640
vt 0.896169 0.646640
vt 0.896169 0.540288
vt 0.871361 0.540288
vt 0.803479 0.646640
vt 0.871361 0.431643
vt 0.896169 0.431643
vt 0.803479 0.540288
vt 0.896169 0.322998
vt 0.787211 0.646640
vt 0.787211 0.540288
vt 0.787211 0.431643
vt 0.803479 0.431643
vt 0.804990 0.322998
vt 0.787211 0.322998
vt 0.804846 0.313992
vt 0.871361 0.322998
vt 0.803479 0.216646
vt 0.787211 0.216646
vt 0.871361 0.216646
vt 0.896169 0.216646
vt 0.531423 0.953870
vt 0.544199 0.968240
vt 0.531923 0.968240
vt 0.519148 0.953870
vt 0.526747 0.934240
vt 0.514471 0.934240
vt 0.513794 0.912888
vt 0.513200 0.849592
vt 0.544199 0.968240
vt 0.549375 0.973500
vt 0.531923 0.968240
vt 0.561650 0.973500
vt 0.610939 0.973500
vt 0.623214 0.973500
vt 0.700443 0.973500
vt 0.687876 0.973500
vt 0.717895 0.968240
vt 0.705327 0.968240
vt 0.519148 0.953870
vt 0.513200 0.849592
vt 0.514471 0.934240
vt 0.531923 0.968240
vt 0.549375 0.973500
vt 0.610939 0.973500
vt 0.623118 0.849469
vt 0.687876 0.973500
vt 0.705327 0.968240
vt 0.718103 0.953870
vt 0.722779 0.934240
vt 0.725629 0.849484
vt 0.526747 0.934240
vt 0.544199 0.968240
vt 0.531423 0.953870
vt 0.561650 0.973500
vt 0.513794 0.912888
vt 0.623214 0.912888
vt 0.623214 0.973500
vt 0.700443 0.973500
vt 0.717895 0.968240
vt 0.730670 0.953870
vt 0.735347 0.912888
vt 0.735347 0.934240
vt 0.730670 0.953870
vt 0.705327 0.968240
vt 0.717895 0.968240
vt 0.718103 0.953870
vt 0.735347 0.934240
vt 0.722779 0.934240
vt 0.735347 0.912888
vt 0.725629 0.849484
vt 0.548157 0.431643
vt 0.548157 0.458459
vt 0.534567 0.458459
vt 0.534567 0.431643
vt 0.534567 0.404827
vt 0.548157 0.404827
vt 0.871361 0.540288
vt 0.735347 0.912888
vt 0.725629 0.849484
vt 0.803479 0.540288
vn 0.70711 0.70711 -0.00000
vn 0.70711 0.70711 -0.00000
vn 0.70711 0.70711 -0.00000
vn 1.00000 0.00000 -0.00000
vn 1.00000 0.00000 -0.00000
vn 1.00000 0.00000 -0.00000
vn 1.00000 0.00000 -0.00000
vn 1.00000 0.00000 -0.00000
vn 1.00000 0.00000 -0.00000
vn 1.00000 0.00000 -0.00000
vn 1.00000 0.00000 -0.00000
vn 1.00000 0.00000 -0.00000
vn 1.00000 0.00000 -0.00000
vn 0.70711 0.70711 -0.00000
vn 0.70711 0.70711 -0.00000
vn 0.70711 0.70711 -0.00000
vn 0.70711 0.70711 -0.00000
vn 0.70711 0.70711 -0.00000
vn 0.70711 0.70711 -0.00000
vn 0.70711 0.70711 -0.00000
vn 0.70711 0.70711 -0.00000
vn 0.70711 0.70711 -0.00000
vn 0.70711 0.70711 -0.00000
vn 0.70711 0.70711 -0.00000
vn 0.70711 0.70711 -0.00000
vn 0.70711 0.70711 -0.00000
vn 0.70711 0.70711 -0.00000
vn 0.70711 0.70711 -0.00000
vn 0.70711 0.70711 -0.00000
vn 0.70711 0.70711 -0.00000
vn 0.70711 0.70711 -0.00000
vn 0.70711 0.70711 -0.00000
vn 0.70711 0.70711 -0.00000
vn 0.70711 0.70711 -0.00000
vn 0.51727 -0.22168 -0.82661
vn 0.70619 -0.18340 -0.68386
vn 0.70619 -0.18340 -0.68386
vn 0.47938 -0.22732 -0.84765
vn 0.20640 -0.15515 -0.96609
vn 0.19887 -0.14155 -0.96975
vn 0.14335 -0.04294 -0.98874
vn 0.14335 -0.04294 -0.98874
vn 0.96576 -0.06720 -0.25059
vn 0.98833 -0.03946 -0.14714
vn 0.96576 -0.06720 -0.25059
vn 0.99400 -0.02834 -0.10568
vn 1.00000 0.00000 -0.00000
vn 1.00000 0.00000 -0.00000
vn 0.98833 0.03946 0.14714
vn 0.99400 0.02834 0.10568
vn 0.96576 0.06720 0.25059
vn 0.96576 0.06720 0.25059
vn 0.08504 0.99625 -0.01597
vn 0.08504 0.99625 -0.01597
vn 0.08504 0.99625 -0.01597
vn 0.08504 0.99625 -0.01597
vn 0.08504 0.99625 -0.01597
vn 0.08529 0.99636 -0.00133
vn 0.08532 0.99635 0.00097
vn 0.08554 0.99621 0.01561
vn 0.08554 0.99621 0.01561
vn 0.08554 0.99621 0.01561
vn 0.08554 0.99621 0.01561
vn 0.08554 0.99621 0.01561
vn 0.00000 -1.00000 -0.00000
vn 0.00000 -1.00000 -0.00000
vn 0.00000 -1.00000 -0.00000
vn 0.00000 -1.00000 -0.00000
vn 0.00000 -1.00000 -0.00000
vn 0.00000 -1.00000 -0.00000
vn 0.00000 -1.00000 -0.00000
vn 0.00000 -1.00000 -0.00000
vn 0.00000 -1.00000 -0.00000
vn 0.00000 -1.00000 -0.00000
vn 0.00000 -1.00000 -0.00000
vn 0.00000 -1.00000 -0.00000
vn 0.47938 0.22732 0.84765
vn 0.70619 0.18340 0.68386
vn 0.70619 0.18340 0.68386
vn 0.51727 0.22168 0.82661
vn 0.16304 0.24195 0.95649
vn 0.16428 0.24207 0.95625
vn 0.07060 0.23183 0.97019
vn 0.07060 0.23183 0.97019
vn 0.00000 -1.00000 -0.00000
vn 0.00000 -1.00000 -0.00000
vn 0.00000 -1.00000 -0.00000
vn 0.00000 -1.00000 -0.00000
vn 0.00000 -1.00000 -0.00000
vn 0.00000 -1.00000 -0.00000
vn 0.70711 0.70711 -0.00000
vn 0.70711 0.70711 -0.00000
vn 0.70711 0.70711 -0.00000
vn 0.70711 0.70711 -0.00000
g Tab_Right_sub0
usemtl PieceBlock_Blue
f 1/1/1 3/3/3 2/2/2
f 4/4/4 6/6/6 5/5/5
f 4/4/4 5/5/5 7/7/7
f 8/8/8 7/7/7 5/5/5
f 8/8/8 9/9/9 7/7/7
f 8/8/8 10/10/10 9/9/9
f 8/8/8 11/11/11 10/10/10
f 12/12/12 10/10/10 11/11/11
f 12/12/12 11/11/11 13/13/13
f 14/14/14 16/16/16 15/15/15
f 14/14/14 17/17/17 16/16/16
f 18/18/18 17/17/17 14/14/14
f 16/16/16 17/17/17 19/19/19
f 16/16/16 19/19/19 20/20/20
f 18/18/18 21/21/21 17/17/17
f 22/22/22 20/20/20 19/19/19
f 23/23/23 21/21/21 18/18/18
f 23/23/23 24/24/24 21/21/21
f 21/21/21 24/24/24 25/25/25
f 21/21/21 25/25/25 26/26/26
f 27/27/27 26/26/26 25/25/25
f 27/27/27 25/25/25 28/28/28
f 29/29/29 27/27/27 28/28/28
f 22/22/22 19/19/19 30/30/30
f 31/31/31 29/29/29 28/28/28
f 31/31/31 30/30/30 29/29/29
f 28/28/28 32/32/32 31/31/31
f 31/31/31 33/33/33 30/30/30
f 33/33/33 22/22/22 30/30/30
f 33/33/33 34/34/34 22/22/22
f 35/35/35 37/37/37 36/36/36
f 35/35/35 38/38/38 37/37/37
f 39/39/39 38/38/38 35/35/35
f 39/39/39 40/40/40 38/38/38
f 41/41/41 40/40/40 39/39/39
f 41/41/41 42/42/42 40/40/40
f 43/43/43 45/45/45 44/44/44
f 43/43/43 44/44/44 46/46/46
f 47/47/47 46/46/46 44/44/44
f 47/47/47 48/48/48 46/46/46
f 47/47/47 49/49/49 48/48/48
f 47/47/47 50/50/50 49/49/49
f 51/51/51 49/49/49 50/50/50
f 51/51/51 50/50/50 52/52/52
f 53/53/53 55/55/55 54/54/54
f 56/56/56 53/53/53 54/54/54
f 57/57/57 56/56/56 54/54/54
f 58/58/58 57/57/57 54/54/54
f 54/54/54 59/59/59 58/58/58
f 60/60/60 58/58/58 59/59/59
f 61/61/61 60/60/60 59/59/59
f 62/62/62 61/61/61 59/59/59
f 63/63/63 62/62/62 59/59/59
f 59/59/59 64/64/64 63/63/63
f 65/65/65 67/67/67 66/66/66
f 65/65/65 66/66/66 68/68/68
f 69/69/69 65/65/65 68/68/68
f 70/70/70 69/69/69 68/68/68
f 68/68/68 71/71/71 70/70/70
f 70/70/70 71/71/71 72/72/72
f 70/70/70 72/72/72 73/73/73
f 70/70/70 73/73/73 74/74/74
f 75/75/75 70/70/70 74/74/74
f 74/74/74 76/76/76 75/75/75
f 77/77/77 79/79/79 78/78/78
f 77/77/77 78/78/78 80/80/80
f 81/81/81 77/77/77 80/80/80
f 81/81/81 80/80/80 82/82/82
f 83/83/83 81/81/81 82/82/82
f 83/83/83 82/82/82 84/84/84
f 85/85/85 87/87/87 86/86/86
f 85/85/85 88/88/88 87/87/87
f 89/89/89 88/88/88 85/85/85
f 89/89/89 85/85/85 90/90/90
f 91/91/91 93/93/93 92/92/92
f 91/91/91 94/94/94 93/93/93
