# Tab_Top - exported from Blocked In (Unity mesh, z negated to right-handed)
mtllib Tab_Top.mtl
o Tab_Top
v -0.271340 -0.207231 -0.500000
v -0.150627 0.255238 -0.500000
v -0.271340 0.255238 -0.500000
v -0.150627 -0.207231 -0.500000
v 0.000202 0.255238 -0.500000
v 0.000202 -0.207231 -0.500000
v 0.151030 -0.207231 -0.500000
v 0.151030 0.255238 -0.500000
v 0.271340 -0.207231 -0.500000
v 0.271340 0.255238 -0.500000
v -0.271340 0.286434 -0.468804
v -0.271340 0.255238 -0.500000
v -0.150627 0.255238 -0.500000
v -0.150627 0.286434 -0.468804
v -0.271340 0.372857 -0.382380
v 0.000202 0.286434 -0.468804
v 0.000202 0.255238 -0.500000
v 0.151030 0.255238 -0.500000
v 0.151030 0.286434 -0.468804
v -0.150627 0.372857 -0.382380
v -0.271340 0.392255 -0.362982
v -0.150627 0.392255 -0.362982
v 0.151030 0.372857 -0.382380
v 0.000202 0.372857 -0.382380
v 0.000202 0.392255 -0.362982
v 0.151030 0.392255 -0.362982
v 0.271340 0.392255 -0.362982
v 0.271340 0.372857 -0.382380
v 0.271340 0.286434 -0.468804
v 0.271340 0.255238 -0.500000
v -0.150627 0.286434 -0.497545
v -0.143316 0.286434 -0.523968
v -0.143316 0.372857 -0.497703
v -0.150627 0.372857 -0.471279
v -0.143316 0.286434 -0.523968
v -0.123341 0.372857 -0.517046
v -0.143316 0.372857 -0.497703
v -0.123341 0.286434 -0.543312
v -0.096055 0.372857 -0.524126
v -0.096055 0.286434 -0.550392
v 0.000202 0.372857 -0.524126
v 0.000202 0.286434 -0.550392
v 0.096458 0.286434 -0.550392
v 0.096458 0.372857 -0.524126
v 0.123744 0.286434 -0.543312
v 0.123744 0.372857 -0.517046
v 0.143719 0.286434 -0.523968
v 0.143719 0.372857 -0.497703
v -0.123341 0.286434 -0.543312
v 0.000202 0.286434 -0.550392
v -0.096055 0.286434 -0.550392
v -0.143316 0.286434 -0.523968
v -0.150627 0.286434 -0.497545
v -0.150627 0.286434 -0.468804
v 0.000202 0.286434 -0.468804
v 0.151030 0.286434 -0.497545
v 0.151030 0.286434 -0.468804
v 0.143719 0.286434 -0.523968
v 0.123744 0.286434 -0.543312
v 0.096458 0.286434 -0.550392
v 0.151030 0.286434 -0.497545
v 0.143719 0.372857 -0.497703
v 0.143719 0.286434 -0.523968
v 0.151030 0.372857 -0.471279
v 0.151030 0.372857 -0.382380
v 0.151030 0.286434 -0.468804
v -0.150627 0.286434 -0.468804
v -0.150627 0.286434 -0.497545
v -0.150627 0.372857 -0.471279
v -0.150627 0.372857 -0.382380
v -0.123341 0.372857 -0.517046
v -0.096055 0.372857 -0.524126
v 0.000202 0.372857 -0.524126
v 0.000202 0.372857 -0.517046
v 0.096458 0.372857 -0.524126
v 0.123744 0.372857 -0.517046
v -0.143316 0.372857 -0.497703
v 0.000202 0.372857 -0.497703
v 0.000202 0.372857 -0.471279
v 0.143719 0.372857 -0.497703
v -0.150627 0.372857 -0.471279
v 0.151030 0.372857 -0.471279
v -0.150627 0.372857 -0.382380
v 0.151030 0.372857 -0.382380
v 0.000202 0.372857 -0.382380
v 0.271340 -0.207231 -0.362982
v 0.271340 -0.207231 -0.500000
v 0.000000 -0.207231 -0.500000
v 0.000000 -0.207231 -0.362982
v -0.271340 -0.207231 -0.362982
v -0.271340 -0.207231 -0.500000
vt 0.282794 0.827819
vt 0.389529 0.827819
vt 0.282794 0.827819
vt 0.389529 0.827819
vt 0.498565 0.827819
vt 0.498565 0.827819
vt 0.607601 0.827819
vt 0.607602 0.827819
vt 0.714337 0.827819
vt 0.714337 0.827819
vt 0.282794 0.803101
vt 0.282794 0.827819
vt 0.389529 0.827819
vt 0.389529 0.803101
vt 0.282794 0.734623
vt 0.498565 0.803101
vt 0.498565 0.827819
vt 0.607602 0.827819
vt 0.607602 0.803101
vt 0.389529 0.734623
vt 0.282794 0.719253
vt 0.389529 0.719253
vt 0.607602 0.734623
vt 0.498565 0.734623
vt 0.498565 0.719253
vt 0.607602 0.719253
vt 0.714337 0.719253
vt 0.714337 0.734623
vt 0.714337 0.803101
vt 0.714337 0.827819
vt 0.278995 0.941017
vt 0.284437 0.955892
vt 0.282656 0.941346
vt 0.277213 0.924206
vt 0.284437 0.955892
vt 0.297526 0.953893
vt 0.282656 0.941346
vt 0.299753 0.970025
vt 0.317839 0.958486
vt 0.317839 0.975523
vt 0.389497 0.958486
vt 0.389497 0.975523
vt 0.461156 0.975523
vt 0.461156 0.958486
vt 0.480578 0.970251
vt 0.481469 0.953893
vt 0.495894 0.956119
vt 0.496339 0.941346
vt 0.299753 0.970025
vt 0.389497 0.975523
vt 0.317839 0.975523
vt 0.284437 0.955892
vt 0.278995 0.941017
vt 0.277213 0.922600
vt 0.389497 0.922600
vt 0.501782 0.941243
vt 0.501782 0.922600
vt 0.495894 0.956119
vt 0.480578 0.970251
vt 0.461156 0.975523
vt 0.501782 0.941243
vt 0.496339 0.941346
vt 0.495894 0.956119
vt 0.501782 0.924206
vt 0.500187 0.843767
vt 0.501782 0.922600
vt 0.277213 0.922600
vt 0.278995 0.941017
vt 0.277213 0.924206
vt 0.278715 0.843779
vt 0.297526 0.953893
vt 0.317839 0.958486
vt 0.389497 0.958486
vt 0.389497 0.953893
vt 0.461156 0.958486
vt 0.481469 0.953893
vt 0.282656 0.941346
vt 0.389497 0.941346
vt 0.389497 0.924206
vt 0.496339 0.941346
vt 0.277213 0.924206
vt 0.501782 0.924206
vt 0.278715 0.843779
vt 0.500187 0.843767
vt 0.389497 0.844984
vt 0.525478 0.467516
vt 0.525478 0.481057
vt 0.498565 0.481057
vt 0.498565 0.467516
vt 0.471653 0.467516
vt 0.471653 0.481057
vn 0.00000 0.00000 -1.00000
vn 0.00000 0.00000 -1.00000
vn 0.00000 0.00000 -1.00000
vn 0.00000 0.00000 -1.00000
vn 0.00000 0.00000 -1.00000
vn 0.00000 0.00000 -1.00000
vn 0.00000 0.00000 -1.00000
vn 0.00000 0.00000 -1.00000
vn 0.00000 0.00000 -1.00000
vn 0.00000 0.00000 -1.00000
vn 0.00000 0.70711 -0.70711
vn 0.00000 0.70711 -0.70711
vn 0.00000 0.70711 -0.70711
vn 0.00000 0.70711 -0.70711
vn 0.00000 0.70711 -0.70711
vn 0.00000 0.70711 -0.70711
vn 0.00000 0.70711 -0.70711
vn 0.00000 0.70711 -0.70711
vn 0.00000 0.70711 -0.70711
vn 0.00000 0.70711 -0.70711
vn 0.00000 0.70711 -0.70711
vn 0.00000 0.70711 -0.70711
vn 0.00000 0.70711 -0.70711
vn 0.00000 0.70711 -0.70711
vn 0.00000 0.70711 -0.70711
vn 0.00000 0.70711 -0.70711
vn 0.00000 0.70711 -0.70711
vn 0.00000 0.70711 -0.70711
vn 0.00000 0.70711 -0.70711
vn 0.00000 0.70711 -0.70711
vn -0.98609 0.04833 -0.15901
vn -0.96064 0.08078 -0.26581
vn -0.96064 0.08078 -0.26581
vn -0.99343 0.03329 -0.10953
vn -0.67965 0.21330 -0.70184
vn -0.49435 0.25277 -0.83170
vn -0.67965 0.21330 -0.70184
vn -0.45436 0.25904 -0.85232
vn -0.12413 0.28854 -0.94939
vn -0.11848 0.28874 -0.95005
vn 0.00000 0.29078 -0.95679
vn 0.00000 0.29078 -0.95679
vn 0.11848 0.28874 -0.95005
vn 0.12413 0.28854 -0.94939
vn 0.45436 0.25904 -0.85232
vn 0.49435 0.25277 -0.83170
vn 0.67965 0.21330 -0.70184
vn 0.67965 0.21330 -0.70184
vn 0.00000 -1.00000 -0.00000
vn -0.00000 -1.00000 -0.00000
vn 0.00000 -1.00000 -0.00000
vn 0.00000 -1.00000 -0.00000
vn 0.00000 -1.00000 -0.00000
vn 0.00000 -1.00000 -0.00000
vn -0.00000 -1.00000 -0.00000
vn -0.00000 -1.00000 -0.00000
vn -0.00000 -1.00000 -0.00000
vn -0.00000 -1.00000 -0.00000
vn -0.00000 -1.00000 -0.00000
vn -0.00000 -1.00000 -0.00000
vn 0.98609 0.04833 -0.15901
vn 0.96064 0.08078 -0.26581
vn 0.96064 0.08078 -0.26581
vn 0.99343 0.03329 -0.10953
vn 1.00000 0.00000 -0.00000
vn 1.00000 0.00000 -0.00000
vn -1.00000 0.00000 -0.00000
vn -0.98609 0.04833 -0.15901
vn -0.99343 0.03329 -0.10953
vn -1.00000 0.00000 -0.00000
vn 0.00000 1.00000 -0.00000
vn 0.00000 1.00000 -0.00000
vn 0.00000 1.00000 -0.00000
vn 0.00000 1.00000 -0.00000
vn 0.00000 1.00000 -0.00000
vn 0.00000 1.00000 -0.00000
vn 0.00000 1.00000 -0.00000
vn 0.00000 1.00000 -0.00000
vn 0.00000 1.00000 -0.00000
vn 0.00000 1.00000 -0.00000
vn 0.00000 1.00000 -0.00000
vn 0.00000 1.00000 -0.00000
vn 0.00000 1.00000 -0.00000
vn 0.00000 1.00000 -0.00000
vn 0.00000 1.00000 -0.00000
vn 0.00000 -1.00000 -0.00000
vn 0.00000 -1.00000 -0.00000
vn 0.00000 -1.00000 -0.00000
vn 0.00000 -1.00000 -0.00000
vn 0.00000 -1.00000 -0.00000
vn 0.00000 -1.00000 -0.00000
g Tab_Top_sub0
usemtl PieceBlock_Blue
f 1/1/1 3/3/3 2/2/2
f 1/1/1 2/2/2 4/4/4
f 5/5/5 4/4/4 2/2/2
f 5/5/5 6/6/6 4/4/4
f 5/5/5 7/7/7 6/6/6
f 5/5/5 8/8/8 7/7/7
f 9/9/9 7/7/7 8/8/8
f 9/9/9 8/8/8 10/10/10
f 11/11/11 13/13/13 12/12/12
f 11/11/11 14/14/14 13/13/13
f 15/15/15 14/14/14 11/11/11
f 13/13/13 14/14/14 16/16/16
f 13/13/13 16/16/16 17/17/17
f 18/18/18 17/17/17 16/16/16
f 18/18/18 16/16/16 19/19/19
f 15/15/15 20/20/20 14/14/14
f 21/21/21 20/20/20 15/15/15
f 21/21/21 22/22/22 20/20/20
f 14/14/14 20/20/20 23/23/23
f 14/14/14 23/23/23 19/19/19
f 24/24/24 20/20/20 22/22/22
f 24/24/24 22/22/22 25/25/25
f 26/26/26 24/24/24 25/25/25
f 26/26/26 23/23/23 24/24/24
f 27/27/27 23/23/23 26/26/26
f 27/27/27 28/28/28 23/23/23
f 28/28/28 19/19/19 23/23/23
f 28/28/28 29/29/29 19/19/19
f 29/29/29 18/18/18 19/19/19
f 29/29/29 30/30/30 18/18/18
f 31/31/31 33/33/33 32/32/32
f 31/31/31 34/34/34 33/33/33
f 35/35/35 37/37/37 36/36/36
f 35/35/35 36/36/36 38/38/38
f 38/38/38 36/36/36 39/39/39
f 38/38/38 39/39/39 40/40/40
f 41/41/41 40/40/40 39/39/39
f 41/41/41 42/42/42 40/40/40
f 41/41/41 43/43/43 42/42/42
f 41/41/41 44/44/44 43/43/43
f 45/45/45 43/43/43 44/44/44
f 45/45/45 44/44/44 46/46/46
f 47/47/47 45/45/45 46/46/46
f 47/47/47 46/46/46 48/48/48
f 49/49/49 51/51/51 50/50/50
f 52/52/52 49/49/49 50/50/50
f 53/53/53 52/52/52 50/50/50
f 54/54/54 53/53/53 50/50/50
f 50/50/50 55/55/55 54/54/54
f 55/55/55 50/50/50 56/56/56
f 56/56/56 57/57/57 55/55/55
f 50/50/50 58/58/58 56/56/56
f 50/50/50 59/59/59 58/58/58
f 50/50/50 60/60/60 59/59/59
f 61/61/61 63/63/63 62/62/62
f 61/61/61 62/62/62 64/64/64
f 65/65/65 61/61/61 64/64/64
f 65/65/65 66/66/66 61/61/61
f 67/67/67 69/69/69 68/68/68
f 67/67/67 70/70/70 69/69/69
f 71/71/71 73/73/73 72/72/72
f 71/71/71 74/74/74 73/73/73
f 74/74/74 75/75/75 73/73/73
f 74/74/74 76/76/76 75/75/75
f 77/77/77 74/74/74 71/71/71
f 78/78/78 76/76/76 74/74/74
f 77/77/77 78/78/78 74/74/74
f 79/79/79 78/78/78 77/77/77
f 78/78/78 80/80/80 76/76/76
f 79/79/79 80/80/80 78/78/78
f 79/79/79 77/77/77 81/81/81
f 79/79/79 82/82/82 80/80/80
f 81/81/81 83/83/83 79/79/79
f 84/84/84 82/82/82 79/79/79
f 79/79/79 83/83/83 85/85/85
f 79/79/79 85/85/85 84/84/84
f 86/86/86 88/88/88 87/87/87
f 86/86/86 89/89/89 88/88/88
f 88/88/88 89/89/89 90/90/90
f 88/88/88 90/90/90 91/91/91
