# Tab_Ice - exported from Blocked In (Unity mesh, z negated to right-handed)
mtllib Tab_Ice.mtl
o Tab_Ice
v -0.152954 0.285767 -0.505332
v -0.145530 0.373524 -0.523455
v -0.152954 0.373524 -0.491271
v -0.145530 0.285767 -0.533419
v -0.125247 0.373524 -0.547015
v -0.125247 0.285767 -0.553981
v -0.125247 0.285767 -0.553981
v -0.097540 0.373524 -0.555638
v -0.125247 0.373524 -0.547015
v -0.097540 0.285767 -0.561507
v 0.000202 0.373524 -0.555638
v 0.000202 0.285767 -0.561507
v 0.097943 0.285767 -0.561507
v 0.097943 0.373524 -0.555638
v 0.125650 0.285767 -0.553981
v 0.125650 0.373524 -0.547015
v -0.125247 0.285767 -0.553981
v 0.000202 0.285767 -0.561507
v -0.097540 0.285767 -0.561507
v -0.145530 0.285767 -0.533419
v -0.152954 0.285767 -0.505332
v -0.152954 0.285767 -0.474781
v 0.000202 0.285767 -0.474781
v 0.153357 0.285767 -0.505332
v 0.153357 0.285767 -0.474781
v 0.145933 0.285767 -0.533419
v 0.125650 0.285767 -0.553981
v 0.097943 0.285767 -0.561507
v 0.145933 0.285767 -0.533419
v 0.125650 0.373524 -0.547015
v 0.125650 0.285767 -0.553981
v 0.145933 0.373524 -0.523455
v 0.153357 0.285767 -0.505332
v 0.153357 0.373524 -0.491271
v 0.153357 0.373524 -0.382992
v 0.153357 0.285767 -0.474781
v -0.152954 0.285767 -0.474781
v -0.152954 0.285767 -0.505332
v -0.152954 0.373524 -0.491271
v -0.152954 0.373524 -0.382992
v -0.125247 0.373524 -0.547015
v -0.097540 0.373524 -0.555638
v 0.000202 0.373524 -0.555638
v 0.000202 0.373524 -0.547015
v 0.097943 0.373524 -0.555638
v 0.125650 0.373524 -0.547015
v -0.145530 0.373524 -0.523455
v 0.000202 0.373524 -0.523455
v 0.000202 0.373524 -0.491271
v 0.145933 0.373524 -0.523455
v -0.152954 0.373524 -0.491271
v 0.153357 0.373524 -0.491271
v -0.152954 0.373524 -0.382992
v 0.153357 0.373524 -0.382992
v 0.000202 0.373524 -0.382992
vt 0.278995 0.941017
vt 0.282656 0.941346
vt 0.277213 0.924206
vt 0.284437 0.955892
vt 0.297526 0.953893
vt 0.299753 0.970025
vt 0.299753 0.970025
vt 0.317839 0.958486
vt 0.297526 0.953893
vt 0.317839 0.975523
vt 0.389497 0.958486
vt 0.389497 0.975523
vt 0.461156 0.975523
vt 0.461156 0.958486
vt 0.480578 0.970251
vt 0.481469 0.953893
vt 0.299753 0.970025
vt 0.389497 0.975523
vt 0.317839 0.975523
vt 0.284437 0.955892
vt 0.278995 0.941017
vt 0.277213 0.922600
vt 0.389497 0.922600
vt 0.501782 0.941243
vt 0.501782 0.922600
vt 0.495894 0.956119
vt 0.480578 0.970251
vt 0.461156 0.975523
vt 0.495894 0.956119
vt 0.481469 0.953893
vt 0.480578 0.970251
vt 0.496339 0.941346
vt 0.501782 0.941243
vt 0.501782 0.924206
vt 0.500187 0.843767
vt 0.501782 0.922600
vt 0.277213 0.922600
vt 0.278995 0.941017
vt 0.277213 0.924206
vt 0.278715 0.843779
vt 0.297526 0.953893
vt 0.317839 0.958486
vt 0.389497 0.958486
vt 0.389497 0.953893
vt 0.461156 0.958486
vt 0.481469 0.953893
vt 0.282656 0.941346
vt 0.389497 0.941346
vt 0.389497 0.924206
vt 0.496339 0.941346
vt 0.277213 0.924206
vt 0.501782 0.924206
vt 0.278715 0.843779
vt 0.500187 0.843767
vt 0.389497 0.844984
vn -0.99103 0.01813 -0.13242
vn -0.88754 0.04948 -0.45807
vn -0.99399 0.01484 -0.10842
vn -0.87260 0.05154 -0.48570
vn -0.73458 0.06515 -0.67539
vn -0.73458 0.06515 -0.67539
vn -0.27911 0.07003 -0.95770
vn -0.14185 0.06908 -0.98748
vn -0.27911 0.07003 -0.95770
vn -0.14017 0.06906 -0.98772
vn 0.00000 0.06673 -0.99777
vn 0.00000 0.06673 -0.99777
vn 0.14017 0.06906 -0.98772
vn 0.14185 0.06908 -0.98748
vn 0.27911 0.07003 -0.95770
vn 0.27911 0.07003 -0.95770
vn 0.00000 -1.00000 -0.00000
vn 0.00000 -1.00000 -0.00000
vn 0.00000 -1.00000 -0.00000
vn 0.00000 -1.00000 -0.00000
vn 0.00000 -1.00000 -0.00000
vn 0.00000 -1.00000 -0.00000
vn 0.00000 -1.00000 -0.00000
vn 0.00000 -1.00000 -0.00000
vn 0.00000 -1.00000 -0.00000
vn 0.00000 -1.00000 -0.00000
vn 0.00000 -1.00000 -0.00000
vn 0.00000 -1.00000 -0.00000
vn 0.87260 0.05154 -0.48570
vn 0.73458 0.06515 -0.67539
vn 0.73458 0.06515 -0.67539
vn 0.88754 0.04948 -0.45807
vn 0.99103 0.01813 -0.13242
vn 0.99399 0.01484 -0.10842
vn 1.00000 0.00000 -0.00000
vn 1.00000 0.00000 -0.00000
vn -1.00000 0.00000 -0.00000
vn -0.99103 0.01813 -0.13242
vn -0.99399 0.01484 -0.10842
vn -1.00000 0.00000 -0.00000
vn 0.00000 1.00000 -0.00000
vn 0.00000 1.00000 -0.00000
vn 0.00000 1.00000 -0.00000
vn 0.00000 1.00000 -0.00000
vn 0.00000 1.00000 -0.00000
vn 0.00000 1.00000 -0.00000
vn 0.00000 1.00000 -0.00000
vn 0.00000 1.00000 -0.00000
vn 0.00000 1.00000 -0.00000
vn 0.00000 1.00000 -0.00000
vn 0.00000 1.00000 -0.00000
vn 0.00000 1.00000 -0.00000
vn 0.00000 1.00000 -0.00000
vn 0.00000 1.00000 -0.00000
vn 0.00000 1.00000 -0.00000
g Tab_Ice_sub0
usemtl BlockKnobIce
f 1/1/1 3/3/3 2/2/2
f 1/1/1 2/2/2 4/4/4
f 4/4/4 2/2/2 5/5/5
f 4/4/4 5/5/5 6/6/6
f 7/7/7 9/9/9 8/8/8
f 7/7/7 8/8/8 10/10/10
f 11/11/11 10/10/10 8/8/8
f 11/11/11 12/12/12 10/10/10
f 11/11/11 13/13/13 12/12/12
f 11/11/11 14/14/14 13/13/13
f 15/15/15 13/13/13 14/14/14
f 15/15/15 14/14/14 16/16/16
f 17/17/17 19/19/19 18/18/18
f 20/20/20 17/17/17 18/18/18
f 21/21/21 20/20/20 18/18/18
f 22/22/22 21/21/21 18/18/18
f 18/18/18 23/23/23 22/22/22
f 23/23/23 18/18/18 24/24/24
f 24/24/24 25/25/25 23/23/23
f 18/18/18 26/26/26 24/24/24
f 18/18/18 27/27/27 26/26/26
f 18/18/18 28/28/28 27/27/27
f 29/29/29 31/31/31 30/30/30
f 29/29/29 30/30/30 32/32/32
f 33/33/33 29/29/29 32/32/32
f 33/33/33 32/32/32 34/34/34
f 35/35/35 33/33/33 34/34/34
f 35/35/35 36/36/36 33/33/33
f 37/37/37 39/39/39 38/38/38
f 37/37/37 40/40/40 39/39/39
f 41/41/41 43/43/43 42/42/42
f 41/41/41 44/44/44 43/43/43
f 44/44/44 45/45/45 43/43/43
f 44/44/44 46/46/46 45/45/45
f 47/47/47 44/44/44 41/41/41
f 48/48/48 46/46/46 44/44/44
f 47/47/47 48/48/48 44/44/44
f 49/49/49 48/48/48 47/47/47
f 48/48/48 50/50/50 46/46/46
f 49/49/49 50/50/50 48/48/48
f 49/49/49 47/47/47 51/51/51
f 49/49/49 52/52/52 50/50/50
f 51/51/51 53/53/53 49/49/49
f 54/54/54 52/52/52 49/49/49
f 49/49/49 53/53/53 55/55/55
f 49/49/49 55/55/55 54/54/54
