# Rope_End_02 - exported from Blocked In (Unity mesh, z negated to right-handed)
mtllib Rope_End_02.mtl
o Rope_End_02
v 0.079947 -0.082247 -0.133492
v 0.112956 -0.081778 -0.152418
v 0.045528 -0.060734 -0.173335
v 0.030321 0.085739 -0.168210
v 0.048038 0.078172 -0.181116
v 0.058396 0.092735 -0.139514
v 0.079947 -0.082247 -0.133492
v 0.131435 -0.065479 -0.106571
v 0.112956 -0.081778 -0.152418
v -0.040951 0.085535 -0.087202
v 0.025064 0.104152 -0.094990
v 0.006581 0.109587 -0.059458
v -0.006786 0.094489 -0.144630
v 0.058396 0.092735 -0.139514
v 0.030321 0.085739 -0.168210
v 0.004571 0.067514 -0.177262
v 0.004571 0.067514 -0.177262
v -0.056103 0.054465 -0.123638
v -0.040678 0.012767 -0.154573
v -0.017491 0.022015 -0.176327
v -0.012051 -0.022070 -0.163499
v -0.001578 0.106252 -0.025885
v 0.000872 0.087178 -0.000000
v -0.045374 0.070150 -0.015555
v -0.058558 0.075295 -0.042276
v 0.006581 0.109587 -0.059458
v -0.071364 0.044894 -0.038027
v -0.040951 0.085535 -0.087202
v -0.076337 0.017615 -0.062861
v -0.076372 0.033682 -0.079040
v -0.056103 0.054465 -0.123638
v -0.060215 -0.011602 -0.086100
v -0.065650 -0.003997 -0.110557
v -0.040678 0.012767 -0.154573
v -0.021327 -0.042233 -0.100454
v -0.031512 -0.035546 -0.127289
v -0.012051 -0.022070 -0.163499
v 0.003583 -0.060047 -0.133066
v 0.030162 -0.064843 -0.096679
v 0.014912 -0.060535 -0.147307
v 0.058396 -0.078290 -0.120126
v -0.021327 -0.042233 -0.100454
v 0.011864 -0.079236 -0.070551
v 0.030162 -0.064843 -0.096679
v -0.060742 -0.053433 -0.069472
v -0.060215 -0.011602 -0.086100
v 0.001663 -0.089381 -0.044959
v -0.080311 -0.028170 -0.052169
v -0.076337 0.017615 -0.062861
v -0.069933 -0.065479 -0.027603
v -0.001880 -0.091179 -0.018195
v -0.056966 -0.061790 -0.000000
v 0.000000 -0.087178 -0.000000
v -0.092829 -0.022510 -0.000000
v -0.095091 -0.000246 -0.031122
v -0.100066 0.018951 -0.000000
v -0.100385 0.026341 -0.010455
v -0.071364 0.044894 -0.038027
v -0.070720 0.058663 -0.000000
v -0.045374 0.070150 -0.015555
v -0.036471 0.072438 -0.000000
v 0.000872 0.087178 -0.000000
v -0.001578 0.106252 -0.025885
v 0.038214 0.072438 0.000000
v 0.000872 0.087178 -0.000000
v 0.058505 0.075295 -0.032781
v 0.069935 0.044894 -0.028958
v 0.006581 0.109587 -0.059458
v 0.083594 0.017615 -0.040241
v 0.066225 0.084073 -0.059297
v 0.025064 0.104152 -0.094990
v 0.092431 0.033682 -0.046563
v 0.083225 -0.011602 -0.053660
v 0.106682 -0.004055 -0.058485
v 0.065690 -0.042233 -0.073096
v 0.079587 0.085214 -0.085605
v 0.058396 0.092735 -0.139514
v 0.086471 0.073434 -0.110075
v 0.112220 0.058663 -0.091696
v 0.112220 0.058663 -0.091696
v 0.105427 0.051201 -0.063137
v 0.127525 0.010869 -0.070933
v 0.134283 0.018951 -0.079066
v 0.128843 -0.022510 -0.082181
v 0.099655 -0.035546 -0.074675
v 0.088440 -0.060048 -0.091931
v 0.030162 -0.064843 -0.096679
v 0.101880 -0.061790 -0.097607
v 0.058396 -0.078290 -0.120126
v 0.065690 -0.042233 -0.073096
v 0.030162 -0.064843 -0.096679
v 0.011864 -0.079236 -0.070551
v 0.072778 -0.053433 -0.046686
v 0.083225 -0.011602 -0.053660
v 0.001663 -0.089381 -0.044959
v 0.082879 -0.028170 -0.034804
v 0.083594 0.017615 -0.040241
v 0.066717 -0.065479 -0.023373
v -0.001880 -0.091179 -0.018195
v 0.058710 -0.061790 -0.000000
v 0.000000 -0.087178 -0.000000
v 0.094573 -0.022510 -0.000000
v 0.092199 -0.000246 -0.023798
v 0.101809 0.018951 -0.000000
v 0.096900 0.026341 -0.014803
v 0.069935 0.044894 -0.028958
v 0.072464 0.058663 -0.000000
v 0.038214 0.072438 0.000000
v 0.038214 0.072438 -0.000000
v 0.000872 0.087178 -0.000000
v 0.048038 0.078172 -0.181116
v 0.030321 0.085739 -0.168210
v 0.004571 0.067514 -0.177262
v 0.056518 0.048720 -0.195635
v 0.005664 0.029529 -0.191152
v 0.081661 0.021293 -0.201351
v -0.017491 0.022015 -0.176327
v 0.032852 0.003244 -0.192537
v -0.012051 -0.022070 -0.163499
v 0.099591 -0.046252 -0.190006
v 0.066775 -0.021581 -0.191405
v -0.012051 -0.022070 -0.163499
v 0.045528 -0.060734 -0.173335
v 0.112956 -0.081778 -0.152418
v 0.099591 -0.046252 -0.190006
v 0.045528 -0.060734 -0.173335
v 0.149044 -0.077503 -0.162646
v 0.161254 -0.039726 -0.197242
v 0.191124 -0.064681 -0.173068
v 0.187706 -0.042233 -0.140131
v 0.162163 -0.053433 -0.119133
v 0.118986 -0.007009 -0.203684
v 0.066775 -0.021581 -0.191405
v 0.081661 0.021293 -0.201351
v 0.032852 0.003244 -0.192537
v -0.012051 -0.022070 -0.163499
v -0.012051 -0.022070 -0.163499
v 0.014912 -0.060535 -0.147307
v 0.045528 -0.060734 -0.173335
v 0.079947 -0.082247 -0.133492
v 0.058396 -0.078290 -0.120126
v 0.112956 -0.081778 -0.152418
v 0.131435 -0.065479 -0.106571
v 0.162163 -0.053433 -0.119133
v 0.149044 -0.077503 -0.162646
v 0.101880 -0.061790 -0.097607
v 0.079947 -0.082247 -0.133492
v 0.058396 -0.078290 -0.120126
v 0.131435 -0.065479 -0.106571
v 0.128843 -0.022510 -0.082181
v 0.162163 -0.053433 -0.119133
v 0.155261 -0.028170 -0.106312
v 0.177089 -0.011602 -0.118666
v 0.187706 -0.042233 -0.140131
v 0.161964 0.017614 -0.109575
v 0.148844 -0.000246 -0.094455
v 0.134283 0.018951 -0.079066
v 0.141663 0.026341 -0.086187
v 0.139969 0.044894 -0.108747
v 0.112220 0.058663 -0.091696
v 0.106678 0.070586 -0.115833
v 0.086471 0.073434 -0.110075
v 0.058396 0.092735 -0.139514
vt 1.855857 0.973362
vt 1.671281 0.973362
vt 1.809120 0.755861
vt 2.065405 0.257120
vt 2.217196 0.270647
vt 2.310370 0.089347
vt 1.855857 0.973362
vt 1.809120 0.755861
vt 1.671281 0.973362
vt 1.443802 0.202330
vt 1.312454 0.015562
vt 1.540177 0.015562
vt 1.210205 0.178129
vt 1.036006 0.015562
vt 1.036006 0.173561
vt 1.263262 0.257251
vt 1.263262 0.256348
vt 1.300877 0.352768
vt 1.134453 0.484957
vt 1.171769 0.441949
vt 1.036006 0.597038
vt 0.811608 0.015562
vt 0.978414 0.015562
vt 0.846526 0.196863
vt 0.685643 0.227449
vt 0.540177 0.015562
vt 0.732041 0.339607
vt 0.443802 0.202330
vt 0.603857 0.460968
vt 0.507616 0.409939
vt 0.300877 0.352768
vt 0.469625 0.587859
vt 0.336527 0.538292
vt 0.134453 0.484957
vt 0.352622 0.757141
vt 0.209171 0.664779
vt 0.036006 0.597038
vt 0.118923 0.786316
vt 0.284163 0.973362
vt 0.036006 0.779340
vt 0.036006 0.973362
vt 0.352622 0.757141
vt 0.484936 0.973362
vt 0.284163 0.973362
vt 0.591254 0.727633
vt 0.469625 0.587859
vt 0.671281 0.973362
vt 0.688804 0.628218
vt 0.603857 0.460968
vt 0.809120 0.755861
vt 0.855857 0.973362
vt 0.978414 0.777746
vt 0.978414 0.973362
vt 0.978414 0.600177
vt 0.796871 0.525362
vt 0.978414 0.460732
vt 0.900108 0.437572
vt 0.732041 0.339607
vt 0.978414 0.316484
vt 0.846526 0.196863
vt 0.978414 0.257120
vt 0.978414 0.015562
vt 0.811608 0.015562
vt 0.846526 0.196863
vt 0.978414 0.015562
vt 0.685643 0.227449
vt 0.732041 0.339607
vt 0.540177 0.015562
vt 0.603857 0.460968
vt 0.443802 0.202330
vt 0.312454 0.015562
vt 0.507616 0.409939
vt 0.469625 0.587859
vt 0.336527 0.538292
vt 0.352622 0.757141
vt 0.210205 0.178129
vt 0.036006 0.015562
vt 0.036006 0.173561
vt 0.036006 0.304473
vt 0.036006 0.303570
vt 0.300877 0.352768
vt 0.134453 0.484957
vt 0.036006 0.453755
vt 0.036006 0.597038
vt 0.209171 0.664779
vt 0.118923 0.786316
vt 0.284163 0.973362
vt 0.036006 0.779340
vt 0.036006 0.973362
vt 0.352622 0.757141
vt 0.284163 0.973362
vt 0.484936 0.973362
vt 0.591254 0.727633
vt 0.469625 0.587859
vt 0.671281 0.973362
vt 0.688804 0.628218
vt 0.603857 0.460968
vt 0.809120 0.755861
vt 0.855857 0.973362
vt 0.978414 0.777746
vt 0.978414 0.973362
vt 0.978414 0.600177
vt 0.796871 0.525362
vt 0.978414 0.460732
vt 0.900108 0.437572
vt 0.732041 0.339607
vt 0.978414 0.316484
vt 0.846526 0.196863
vt 0.978414 0.257120
vt 0.978414 0.015562
vt 2.217196 0.270647
vt 2.065405 0.257120
vt 2.292661 0.269262
vt 2.136318 0.413392
vt 2.231439 0.422815
vt 2.045762 0.534753
vt 2.196816 0.540419
vt 2.108334 0.575535
vt 1.978414 0.600177
vt 1.791894 0.727633
vt 1.860809 0.628218
vt 1.978414 0.600177
vt 1.809120 0.755861
vt 1.671281 0.973362
vt 1.791894 0.727633
vt 1.809120 0.755861
vt 1.716785 0.973362
vt 1.868276 0.830925
vt 1.819913 1.047147
vt 1.623312 0.757141
vt 1.791894 0.727633
vt 1.950933 0.661643
vt 1.860809 0.628218
vt 2.045762 0.534753
vt 2.108334 0.575535
vt 1.978414 0.600177
vt 0.978414 0.600177
vt 0.978414 0.777746
vt 0.809120 0.755861
vt 0.855857 0.973362
vt 0.978414 0.973362
vt 1.671281 0.973362
vt 1.809120 0.755861
vt 1.791894 0.727633
vt 1.716785 0.973362
vt 0.978414 0.777746
vt 0.855857 0.973362
vt 0.978414 0.973362
vt 0.809120 0.755861
vt 0.978414 0.600177
vt 0.591254 0.727633
vt 0.688804 0.628218
vt 0.469625 0.587859
vt 0.352622 0.757141
vt 0.603857 0.460968
vt 0.796871 0.525362
vt 0.978414 0.460732
vt 0.900108 0.437572
vt 0.732041 0.339607
vt 0.978414 0.316484
vt 0.846526 0.196863
vt 0.978414 0.257120
vt 0.978414 0.015562
vn 0.23340 -0.90309 0.36049
vn 0.49883 -0.86644 -0.02135
vn -0.38838 -0.70167 -0.59735
vn 0.28427 0.83918 -0.46364
vn -0.24625 0.95146 -0.18460
vn 0.11802 0.81815 -0.56276
vn 0.23340 -0.90309 0.36049
vn 0.19279 -0.74710 0.63614
vn 0.49883 -0.86644 -0.02135
vn -0.55200 0.78878 -0.27043
vn -0.14344 0.95642 0.25434
vn -0.26705 0.79943 0.53814
vn -0.48446 0.84264 -0.23505
vn 0.11802 0.81815 -0.56276
vn 0.28427 0.83918 -0.46364
vn 0.28951 0.74805 -0.59716
vn 0.28951 0.74805 -0.59716
vn -0.68403 0.46404 -0.56283
vn -0.81960 0.05944 -0.56985
vn -0.55750 0.22479 -0.79916
vn -0.71253 -0.58782 -0.38311
vn 0.61059 0.72502 0.31864
vn -0.07711 0.38631 0.91914
vn -0.89029 0.45537 -0.00511
vn -0.70253 0.69257 0.16369
vn -0.26705 0.79943 0.53814
vn -0.95431 0.19804 -0.22377
vn -0.55200 0.78878 -0.27043
vn -0.96172 0.24369 -0.12529
vn -0.97682 0.18008 -0.11570
vn -0.68403 0.46404 -0.56283
vn -0.94198 -0.21691 -0.25615
vn -0.89423 -0.35172 -0.27685
vn -0.81960 0.05944 -0.56985
vn -0.64037 -0.74255 -0.19634
vn -0.68608 -0.66725 -0.28994
vn -0.71253 -0.58782 -0.38311
vn -0.49776 -0.84980 -0.17342
vn -0.37692 -0.53632 0.75517
vn -0.49066 -0.80703 -0.32856
vn 0.17432 -0.98206 -0.07188
vn -0.35907 -0.82055 -0.44470
vn 0.56423 -0.77147 -0.29407
vn 0.32457 -0.39589 -0.85902
vn -0.57047 -0.35174 -0.74219
vn -0.67503 -0.58515 -0.44938
vn 0.46160 -0.84395 -0.27328
vn -0.96728 -0.19361 -0.16399
vn -0.91221 -0.16851 -0.37347
vn -0.67422 -0.73163 0.10067
vn 0.41068 -0.90098 0.13995
vn -0.43579 -0.84337 0.31435
vn -0.32499 -0.94225 -0.08092
vn -0.75079 -0.65560 0.08066
vn -0.89158 -0.04280 -0.45084
vn -0.92111 0.21522 0.32439
vn -0.74609 0.65550 -0.11696
vn -0.65300 0.74980 0.10673
vn -0.69030 0.16818 -0.70371
vn 0.00151 0.93182 0.36293
vn -0.05156 0.91242 0.40600
vn -0.37696 0.92580 0.02819
vn 0.61059 0.72502 0.31864
vn 0.84328 0.53634 -0.03494
vn -0.07711 0.38631 0.91914
vn 0.56814 0.67562 0.46985
vn 0.90508 0.09638 0.41417
vn -0.26705 0.79943 0.53814
vn 0.67913 0.15164 0.71818
vn 0.58149 0.76995 0.26277
vn -0.14344 0.95642 0.25434
vn 0.60040 0.18344 0.77837
vn 0.65196 -0.22632 0.72369
vn 0.47774 -0.24668 0.84316
vn 0.35846 -0.69781 0.62013
vn 0.33791 0.93300 0.12382
vn 0.11802 0.81815 -0.56276
vn 0.18869 0.97901 -0.07709
vn 0.80757 0.49964 -0.31336
vn 0.80757 0.49964 -0.31336
vn 0.77699 0.45860 0.43125
vn 0.62412 0.10539 0.77419
vn 0.62432 0.40667 0.66697
vn 0.49834 0.03302 0.86636
vn 0.32789 -0.52819 0.78327
vn 0.15887 -0.73866 0.65509
vn -0.37692 -0.53632 0.75517
vn 0.10212 -0.73337 0.67212
vn 0.17432 -0.98206 -0.07188
vn 0.57913 -0.80540 -0.12622
vn 0.32457 -0.39589 -0.85902
vn 0.56423 -0.77147 -0.29407
vn 0.82465 -0.37383 -0.42451
vn 0.85962 -0.50892 -0.04524
vn 0.46160 -0.84395 -0.27328
vn 0.95072 -0.30890 0.02652
vn 0.97436 -0.02379 -0.22374
vn 0.57932 -0.80427 0.13246
vn 0.41068 -0.90098 0.13995
vn 0.45763 -0.82655 0.32772
vn -0.32499 -0.94225 -0.08092
vn 0.95323 -0.23061 0.19537
vn 0.88888 -0.08533 -0.45012
vn 0.86909 0.39438 0.29858
vn 0.67582 0.57095 -0.46614
vn 0.55128 0.83431 -0.00518
vn 0.96873 0.16833 0.18228
vn -0.45253 -0.00267 -0.89175
vn -0.15668 0.01286 -0.98757
vn 0.46088 -0.64967 -0.60458
vn -0.24625 0.95146 -0.18460
vn 0.28427 0.83918 -0.46364
vn 0.28951 0.74805 -0.59716
vn -0.53530 0.38366 -0.75251
vn -0.18127 0.29415 -0.93841
vn -0.21268 -0.39507 -0.89369
vn -0.55750 0.22479 -0.79916
vn -0.10855 -0.25826 -0.95996
vn -0.71253 -0.58782 -0.38311
vn 0.03294 -0.28742 -0.95724
vn -0.46776 -0.23103 -0.85313
vn -0.71253 -0.58782 -0.38311
vn -0.38838 -0.70167 -0.59735
vn 0.49883 -0.86644 -0.02135
vn 0.03294 -0.28742 -0.95724
vn -0.38838 -0.70167 -0.59735
vn 0.60445 -0.78081 0.15804
vn -0.13440 -0.77454 -0.61809
vn 0.79071 -0.51051 -0.33787
vn 0.34445 -0.77549 0.52913
vn 0.74693 -0.40114 0.53027
vn -0.17070 -0.61231 -0.77197
vn -0.46776 -0.23103 -0.85313
vn -0.21268 -0.39507 -0.89369
vn -0.10855 -0.25826 -0.95996
vn -0.71253 -0.58782 -0.38311
vn -0.71253 -0.58782 -0.38311
vn -0.49066 -0.80703 -0.32856
vn -0.38838 -0.70167 -0.59735
vn 0.23340 -0.90309 0.36049
vn 0.17432 -0.98206 -0.07188
vn 0.49883 -0.86644 -0.02135
vn 0.19279 -0.74710 0.63614
vn 0.74693 -0.40114 0.53027
vn 0.60445 -0.78081 0.15804
vn 0.10212 -0.73337 0.67212
vn 0.23340 -0.90309 0.36049
vn 0.17432 -0.98206 -0.07188
vn 0.19279 -0.74710 0.63614
vn 0.49834 0.03302 0.86636
vn 0.74693 -0.40114 0.53027
vn 0.38354 -0.21732 0.89759
vn 0.40596 -0.49754 0.76659
vn 0.34445 -0.77549 0.52913
vn 0.60051 -0.09031 0.79450
vn 0.77032 -0.06751 0.63407
vn 0.62432 0.40667 0.66697
vn 0.70476 0.54266 0.45698
vn 0.24339 0.73274 0.63549
vn 0.80757 0.49964 -0.31336
vn -0.24967 0.91701 0.31106
vn 0.18869 0.97901 -0.07709
vn 0.11802 0.81815 -0.56276
g Rope_End_02_sub0
usemtl Rope
f 1/1/1 3/3/3 2/2/2
f 4/4/4 6/6/6 5/5/5
f 7/7/7 9/9/9 8/8/8
f 10/10/10 12/12/12 11/11/11
f 10/10/10 11/11/11 13/13/13
f 14/14/14 13/13/13 11/11/11
f 14/14/14 15/15/15 13/13/13
f 16/16/16 13/13/13 15/15/15
f 10/10/10 13/13/13 17/17/17
f 18/18/18 10/10/10 17/17/17
f 19/19/19 18/18/18 17/17/17
f 19/19/19 17/17/17 20/20/20
f 21/21/21 19/19/19 20/20/20
f 22/22/22 24/24/24 23/23/23
f 22/22/22 25/25/25 24/24/24
f 25/25/25 22/22/22 26/26/26
f 25/25/25 27/27/27 24/24/24
f 25/25/25 26/26/26 28/28/28
f 25/25/25 29/29/29 27/27/27
f 30/30/30 25/25/25 28/28/28
f 25/25/25 30/30/30 29/29/29
f 30/30/30 28/28/28 31/31/31
f 30/30/30 32/32/32 29/29/29
f 33/33/33 30/30/30 31/31/31
f 30/30/30 33/33/33 32/32/32
f 33/33/33 31/31/31 34/34/34
f 33/33/33 35/35/35 32/32/32
f 36/36/36 33/33/33 34/34/34
f 33/33/33 36/36/36 35/35/35
f 36/36/36 34/34/34 37/37/37
f 36/36/36 38/38/38 35/35/35
f 38/38/38 36/36/36 37/37/37
f 38/38/38 39/39/39 35/35/35
f 38/38/38 37/37/37 40/40/40
f 38/38/38 41/41/41 39/39/39
f 41/41/41 38/38/38 40/40/40
f 42/42/42 44/44/44 43/43/43
f 42/42/42 43/43/43 45/45/45
f 46/46/46 42/42/42 45/45/45
f 47/47/47 45/45/45 43/43/43
f 46/46/46 45/45/45 48/48/48
f 49/49/49 46/46/46 48/48/48
f 47/47/47 50/50/50 45/45/45
f 51/51/51 50/50/50 47/47/47
f 52/52/52 50/50/50 51/51/51
f 52/52/52 51/51/51 53/53/53
f 54/54/54 50/50/50 52/52/52
f 45/45/45 50/50/50 54/54/54
f 45/45/45 54/54/54 48/48/48
f 48/48/48 54/54/54 55/55/55
f 49/49/49 48/48/48 55/55/55
f 56/56/56 55/55/55 54/54/54
f 57/57/57 49/49/49 55/55/55
f 56/56/56 57/57/57 55/55/55
f 57/57/57 58/58/58 49/49/49
f 59/59/59 57/57/57 56/56/56
f 59/59/59 58/58/58 57/57/57
f 60/60/60 58/58/58 59/59/59
f 60/60/60 59/59/59 61/61/61
f 61/61/61 62/62/62 60/60/60
f 63/63/63 65/65/65 64/64/64
f 63/63/63 64/64/64 66/66/66
f 66/66/66 64/64/64 67/67/67
f 66/66/66 68/68/68 63/63/63
f 66/66/66 67/67/67 69/69/69
f 66/66/66 70/70/70 68/68/68
f 70/70/70 71/71/71 68/68/68
f 66/66/66 69/69/69 72/72/72
f 72/72/72 70/70/70 66/66/66
f 72/72/72 69/69/69 73/73/73
f 72/72/72 73/73/73 74/74/74
f 74/74/74 73/73/73 75/75/75
f 70/70/70 76/76/76 71/71/71
f 77/77/77 71/71/71 76/76/76
f 77/77/77 76/76/76 78/78/78
f 79/79/79 78/78/78 76/76/76
f 70/70/70 80/80/80 76/76/76
f 72/72/72 81/81/81 70/70/70
f 81/81/81 80/80/80 70/70/70
f 74/74/74 81/81/81 72/72/72
f 82/82/82 80/80/80 81/81/81
f 74/74/74 82/82/82 81/81/81
f 82/82/82 83/83/83 80/80/80
f 84/84/84 83/83/83 82/82/82
f 85/85/85 82/82/82 74/74/74
f 74/74/74 75/75/75 85/85/85
f 85/85/85 84/84/84 82/82/82
f 85/85/85 75/75/75 86/86/86
f 86/86/86 84/84/84 85/85/85
f 86/86/86 75/75/75 87/87/87
f 86/86/86 88/88/88 84/84/84
f 86/86/86 87/87/87 89/89/89
f 89/89/89 88/88/88 86/86/86
f 90/90/90 92/92/92 91/91/91
f 90/90/90 93/93/93 92/92/92
f 94/94/94 93/93/93 90/90/90
f 95/95/95 92/92/92 93/93/93
f 94/94/94 96/96/96 93/93/93
f 97/97/97 96/96/96 94/94/94
f 95/95/95 93/93/93 98/98/98
f 99/99/99 95/95/95 98/98/98
f 100/100/100 99/99/99 98/98/98
f 100/100/100 101/101/101 99/99/99
f 102/102/102 100/100/100 98/98/98
f 93/93/93 102/102/102 98/98/98
f 93/93/93 96/96/96 102/102/102
f 96/96/96 103/103/103 102/102/102
f 97/97/97 103/103/103 96/96/96
f 104/104/104 102/102/102 103/103/103
f 105/105/105 103/103/103 97/97/97
f 104/104/104 103/103/103 105/105/105
f 105/105/105 97/97/97 106/106/106
f 107/107/107 104/104/104 105/105/105
f 107/107/107 105/105/105 106/106/106
f 108/108/108 107/107/107 106/106/106
f 108/108/108 109/109/109 107/107/107
f 109/109/109 108/108/108 110/110/110
f 111/111/111 113/113/113 112/112/112
f 111/111/111 114/114/114 113/113/113
f 113/113/113 114/114/114 115/115/115
f 115/115/115 114/114/114 116/116/116
f 113/113/113 115/115/115 117/117/117
f 115/115/115 116/116/116 118/118/118
f 117/117/117 115/115/115 118/118/118
f 117/117/117 118/118/118 119/119/119
f 120/120/120 122/122/122 121/121/121
f 120/120/120 123/123/123 122/122/122
f 124/124/124 126/126/126 125/125/125
f 124/124/124 125/125/125 127/127/127
f 128/128/128 127/127/127 125/125/125
f 128/128/128 129/129/129 127/127/127
f 130/130/130 127/127/127 129/129/129
f 130/130/130 131/131/131 127/127/127
f 132/132/132 128/128/128 125/125/125
f 132/132/132 125/125/125 133/133/133
f 134/134/134 132/132/132 133/133/133
f 134/134/134 133/133/133 135/135/135
f 133/133/133 136/136/136 135/135/135
f 137/137/137 139/139/139 138/138/138
f 138/138/138 139/139/139 140/140/140
f 138/138/138 140/140/140 141/141/141
f 142/142/142 144/144/144 143/143/143
f 142/142/142 145/145/145 144/144/144
f 146/146/146 148/148/148 147/147/147
f 146/146/146 147/147/147 149/149/149
f 150/150/150 146/146/146 149/149/149
f 151/151/151 150/150/150 149/149/149
f 151/151/151 152/152/152 150/150/150
f 153/153/153 152/152/152 151/151/151
f 153/153/153 151/151/151 154/154/154
f 155/155/155 152/152/152 153/153/153
f 152/152/152 156/156/156 150/150/150
f 155/155/155 156/156/156 152/152/152
f 157/157/157 150/150/150 156/156/156
f 158/158/158 156/156/156 155/155/155
f 157/157/157 156/156/156 158/158/158
f 158/158/158 155/155/155 159/159/159
f 160/160/160 157/157/157 158/158/158
f 160/160/160 158/158/158 159/159/159
f 161/161/161 160/160/160 159/159/159
f 161/161/161 162/162/162 160/160/160
f 162/162/162 161/161/161 163/163/163
