# Rope_End_01 - exported from Blocked In (Unity mesh, z negated to right-handed)
mtllib Rope_End_01.mtl
o Rope_End_01
v 0.009026 0.105937 0.097403
v 0.029290 0.085644 0.119312
v -0.022198 0.069142 0.111790
v -0.046388 0.074569 0.099697
v -0.061055 0.039368 0.100179
v 0.000000 0.109653 0.078284
v -0.076860 0.008012 0.083074
v -0.056995 0.084073 0.073881
v 0.000000 0.102047 0.051059
v -0.084524 0.028419 0.076714
v -0.072002 -0.023829 0.066322
v -0.092748 -0.006491 0.056499
v -0.046245 -0.050254 0.053473
v -0.051267 0.085177 0.031983
v 0.000000 0.087178 -0.000000
v -0.037342 0.072438 -0.000000
v -0.071592 0.058663 -0.000000
v -0.090674 0.051201 0.052593
v -0.103386 0.010869 0.021044
v -0.100937 0.018951 -0.000000
v -0.093701 -0.022510 -0.000000
v -0.076281 -0.036231 0.035220
v -0.052750 -0.060094 0.017214
v -0.000872 -0.067014 0.040558
v -0.057838 -0.061790 -0.000000
v 0.000000 -0.087178 -0.000000
v 0.009026 0.105937 0.097403
v 0.064818 0.062777 0.100135
v 0.029290 0.085644 0.119312
v 0.059769 0.079317 0.093208
v 0.082354 0.031933 0.084519
v 0.000000 0.109653 0.078284
v 0.082723 0.002686 0.073521
v 0.056995 0.084132 0.073881
v 0.000000 0.102047 0.051059
v 0.088676 0.025326 0.072362
v 0.069063 -0.024593 0.064259
v 0.094483 -0.007586 0.053980
v 0.040461 -0.049422 0.053826
v 0.051267 0.085177 0.031983
v 0.000000 0.087178 -0.000000
v 0.037342 0.072438 -0.000000
v 0.071592 0.058663 -0.000000
v 0.090674 0.051201 0.052593
v 0.103386 0.010869 0.021044
v 0.100937 0.018951 -0.000000
v 0.093701 -0.022510 -0.000000
v 0.075212 -0.035554 0.035179
v 0.052402 -0.060077 0.017248
v -0.000872 -0.067014 0.040558
v 0.057838 -0.061790 -0.000000
v 0.000000 -0.087178 -0.000000
v -0.041823 -0.070788 0.116922
v 0.024192 -0.088580 0.122249
v 0.005709 -0.092199 0.091586
v -0.007658 -0.081549 0.162794
v 0.057524 -0.075342 0.154254
v 0.029449 -0.070325 0.178614
v 0.003700 -0.053119 0.186510
v 0.003700 -0.053119 0.186510
v -0.056974 -0.040088 0.147083
v -0.041549 0.003639 0.170735
v -0.018363 -0.005833 0.186899
v -0.012923 0.041384 0.175334
v -0.002450 -0.082499 0.056480
v -0.000872 -0.067014 0.040558
v -0.046245 -0.050254 0.053473
v -0.059430 -0.056455 0.076260
v 0.005709 -0.092199 0.091586
v -0.072236 -0.023738 0.066292
v -0.041823 -0.070788 0.116922
v -0.076860 0.008012 0.083074
v -0.077243 -0.016347 0.104473
v -0.056974 -0.040088 0.147083
v -0.061055 0.039368 0.100179
v -0.066522 0.021101 0.126728
v -0.041549 0.003639 0.170735
v -0.022198 0.069142 0.111790
v -0.032384 0.050069 0.134185
v -0.012923 0.041384 0.175334
v 0.002711 0.078596 0.140892
v 0.029290 0.085644 0.119312
v 0.014040 0.081669 0.159432
v 0.057524 0.099194 0.137265
v -0.002450 -0.082499 0.056480
v 0.040782 -0.049977 0.053926
v -0.000872 -0.067014 0.040558
v 0.057633 -0.055211 0.067516
v 0.069063 -0.024593 0.064259
v 0.005709 -0.092199 0.091586
v 0.082723 0.002686 0.073521
v 0.065354 -0.064567 0.089779
v 0.024192 -0.088580 0.122249
v 0.091560 -0.013381 0.078710
v 0.082354 0.031933 0.084519
v 0.105810 0.024360 0.088487
v 0.064818 0.062777 0.100135
v 0.078715 -0.065875 0.111445
v 0.057524 -0.075342 0.154254
v 0.085599 -0.054023 0.130647
v 0.111349 -0.038360 0.115743
v 0.111349 -0.038360 0.115743
v 0.104556 -0.030900 0.092314
v 0.126653 0.009418 0.098666
v 0.133411 0.001313 0.105285
v 0.127971 0.042657 0.107223
v 0.098783 0.055931 0.101280
v 0.087568 0.080563 0.114732
v 0.029290 0.085644 0.119312
v 0.101008 0.082132 0.118997
v 0.057524 0.099194 0.137265
v 0.160383 0.058226 0.198217
v 0.148173 0.096544 0.171022
v 0.190252 0.083614 0.179685
v 0.098719 0.066047 0.194246
v 0.112084 0.101573 0.163378
v 0.044657 0.081942 0.179944
v 0.118115 0.026378 0.203377
v -0.012923 0.041384 0.175334
v 0.065903 0.042186 0.194072
v 0.080789 -0.001066 0.200458
v 0.031981 0.016174 0.195788
v -0.018363 -0.005833 0.186899
v 0.004792 -0.012696 0.196916
v 0.055646 -0.029727 0.196462
v 0.003700 -0.053119 0.186510
v 0.047167 -0.060710 0.186173
v 0.029449 -0.070325 0.178614
v 0.057524 -0.075342 0.154254
v 0.079075 0.102867 0.147932
v 0.112084 0.101573 0.163378
v 0.044657 0.081942 0.179944
v 0.014040 0.081669 0.159432
v -0.012923 0.041384 0.175334
v 0.057524 0.099194 0.137265
v 0.186835 0.061430 0.153229
v 0.190252 0.083614 0.179685
v 0.148173 0.096544 0.171022
v 0.161292 0.072895 0.136082
v 0.176218 0.031197 0.136396
v 0.112084 0.101573 0.163378
v 0.154390 0.047868 0.126025
v 0.161092 0.002333 0.129610
v 0.130563 0.085370 0.126065
v 0.079075 0.102867 0.147932
v 0.101008 0.082132 0.118997
v 0.057524 0.099194 0.137265
v 0.127971 0.042657 0.107223
v 0.147972 0.020259 0.117207
v 0.133411 0.001313 0.105285
v 0.140792 -0.006100 0.111101
v 0.139097 -0.024680 0.129415
v 0.111349 -0.038360 0.115743
v 0.105806 -0.050363 0.135075
v 0.085599 -0.054023 0.130647
v 0.057524 -0.075342 0.154254
vt 0.811608 0.015562
vt 0.978414 0.015562
vt 0.846526 0.196863
vt 0.685643 0.227449
vt 0.732041 0.339607
vt 0.540177 0.015562
vt 0.603857 0.460968
vt 0.443802 0.202330
vt 0.312454 0.015562
vt 0.507616 0.409939
vt 0.469625 0.587859
vt 0.336527 0.538292
vt 0.352622 0.757141
vt 0.210205 0.178129
vt 0.036006 0.015562
vt 0.036006 0.173561
vt 0.036006 0.303832
vt 0.300877 0.352768
vt 0.134453 0.484957
vt 0.036006 0.453755
vt 0.036006 0.597038
vt 0.209171 0.664779
vt 0.118923 0.786316
vt 0.284163 0.973362
vt 0.036006 0.779340
vt 0.036006 0.973362
vt 0.811608 0.015562
vt 0.846526 0.196863
vt 0.978414 0.015562
vt 0.685643 0.227449
vt 0.732041 0.339607
vt 0.540177 0.015562
vt 0.603857 0.460968
vt 0.443802 0.202330
vt 0.312454 0.015562
vt 0.507616 0.409939
vt 0.458918 0.603350
vt 0.336527 0.538292
vt 0.352622 0.757141
vt 0.210205 0.178129
vt 0.036006 0.015562
vt 0.036006 0.173561
vt 0.036006 0.303832
vt 0.300877 0.352768
vt 0.134453 0.484957
vt 0.036006 0.453755
vt 0.036006 0.597038
vt 0.209171 0.664779
vt 0.118923 0.786316
vt 0.284163 0.973362
vt 0.036006 0.779340
vt 0.036006 0.973362
vt 2.383240 0.202330
vt 2.438848 -0.132016
vt 2.433052 0.015562
vt 2.386000 0.030551
vt 2.295965 -0.132016
vt 2.295965 0.025983
vt 2.295965 0.156895
vt 2.295965 0.155992
vt 2.309369 0.352768
vt 2.241513 0.480272
vt 2.213635 0.453755
vt 2.202738 0.533790
vt 0.811608 0.015562
vt 0.978414 0.015562
vt 0.846526 0.196863
vt 0.685643 0.227449
vt 0.540177 0.015562
vt 0.732041 0.339607
vt 0.443802 0.202330
vt 0.603857 0.460968
vt 0.507616 0.409939
vt 0.300877 0.352768
vt 0.469625 0.587859
vt 0.336527 0.538292
vt 0.134453 0.484957
vt 0.352622 0.757141
vt 0.209171 0.664779
vt 0.036006 0.597038
vt 0.118923 0.786316
vt 0.284163 0.973362
vt 0.036006 0.779340
vt 0.036006 0.973362
vt 0.811608 0.015562
vt 0.846526 0.196863
vt 0.978414 0.015562
vt 0.685643 0.227449
vt 0.732041 0.339607
vt 0.540177 0.015562
vt 0.603857 0.460968
vt 0.443802 0.202330
vt 0.312454 0.015562
vt 0.507616 0.409939
vt 0.469625 0.587859
vt 0.336527 0.538292
vt 0.352622 0.757141
vt 0.210205 0.178129
vt 0.036006 0.015562
vt 0.036006 0.173561
vt 0.036006 0.304473
vt 0.036006 0.303570
vt 0.300877 0.352768
vt 0.134453 0.484957
vt 0.036006 0.453755
vt 0.036006 0.597038
vt 0.209171 0.664779
vt 0.118923 0.786316
vt 0.284163 0.973362
vt 0.036006 0.779340
vt 0.036006 0.973362
vt 2.052854 0.609563
vt 2.011142 0.825784
vt 1.907372 0.825784
vt 2.066093 0.580054
vt 1.983961 0.973362
vt 2.055203 0.755861
vt 2.113327 0.440280
vt 2.183868 0.541615
vt 2.116512 0.480640
vt 2.182705 0.313390
vt 2.166313 0.363729
vt 2.226244 0.376401
vt 2.225725 0.289994
vt 2.248957 0.192029
vt 2.283149 0.161878
vt 2.198031 0.049284
vt 2.266198 0.109542
vt 2.266198 -0.132016
vt 0.855857 0.973362
vt 0.671281 0.973362
vt 0.809120 0.755861
vt 0.978414 0.777746
vt 0.978414 0.600177
vt 0.978414 0.973362
vt 0.352622 0.757141
vt 0.284163 0.973362
vt 0.484936 0.973362
vt 0.591254 0.727633
vt 0.469625 0.587859
vt 0.671281 0.973362
vt 0.688804 0.628218
vt 0.603857 0.460968
vt 0.809120 0.755861
vt 0.855857 0.973362
vt 0.978414 0.777746
vt 0.978414 0.973362
vt 0.978414 0.600177
vt 0.796871 0.525362
vt 0.978414 0.460732
vt 0.900108 0.437572
vt 0.732041 0.339607
vt 0.978414 0.316484
vt 0.846526 0.196863
vt 0.978414 0.257120
vt 0.978414 0.015562
vn 0.66218 0.72865 0.17491
vn 0.23834 0.12043 0.96369
vn -0.79140 0.31845 0.52180
vn -0.50481 0.55569 0.66059
vn -0.90891 0.03796 0.41526
vn -0.03531 0.77089 0.63599
vn -0.85530 0.10143 0.50811
vn -0.64772 0.75279 0.11733
vn -0.00015 0.98184 0.18973
vn -0.81630 0.12107 0.56480
vn -0.91934 -0.32479 0.22209
vn -0.85646 -0.31150 0.41163
vn -0.62750 -0.76646 0.13703
vn -0.34432 0.93410 -0.09439
vn -0.36237 0.78499 -0.50248
vn -0.08222 0.91257 -0.40057
vn 0.03031 0.91553 -0.40111
vn -0.85552 0.51773 0.00670
vn -0.97955 0.16047 0.12137
vn -0.88676 0.44817 -0.11315
vn -0.74720 -0.53736 0.39107
vn -0.71738 -0.64530 0.26261
vn -0.50111 -0.82079 0.27423
vn -0.01014 -0.57356 0.81910
vn -0.53456 -0.79330 0.29141
vn 0.00450 -0.98459 -0.17482
vn 0.66218 0.72865 0.17491
vn 0.97746 0.16982 -0.12541
vn 0.23834 0.12043 0.96369
vn 0.62101 0.72995 0.28551
vn 0.99691 -0.04293 0.06580
vn -0.03531 0.77089 0.63599
vn 0.90178 -0.11367 0.41699
vn 0.63316 0.77303 -0.03918
vn -0.00015 0.98184 0.18973
vn 0.90598 0.15528 0.39382
vn 0.85809 -0.48100 0.17978
vn 0.85681 -0.33724 0.39006
vn 0.58688 -0.78840 0.18439
vn 0.35602 0.93091 -0.08159
vn -0.36237 0.78499 -0.50248
vn 0.03283 0.97671 -0.21205
vn 0.46198 0.39295 -0.79508
vn 0.85697 0.51142 -0.06365
vn 0.98150 0.14878 0.12050
vn 0.88735 0.44857 -0.10673
vn 0.95661 -0.12095 0.26506
vn 0.69314 -0.66215 0.28480
vn 0.50256 -0.80891 0.30512
vn -0.01014 -0.57356 0.81910
vn 0.51719 -0.79966 0.30506
vn 0.00450 -0.98459 -0.17482
vn -0.54799 -0.79587 0.25749
vn -0.15728 -0.96076 -0.22846
vn -0.30359 -0.74519 -0.59374
vn -0.40215 -0.85667 0.32310
vn 0.20100 -0.78324 0.58833
vn 0.39288 -0.75628 0.52315
vn 0.35029 -0.71359 0.60669
vn 0.35029 -0.71359 0.60669
vn -0.65447 -0.44089 0.61423
vn -0.76322 -0.02077 0.64581
vn -0.44409 -0.22770 0.86657
vn -0.71255 0.57634 0.40013
vn 0.61555 -0.66085 -0.42939
vn -0.00119 -0.13744 -0.99051
vn -0.91969 -0.36298 -0.14973
vn -0.69590 -0.68694 -0.20937
vn -0.30359 -0.74519 -0.59374
vn -0.98351 -0.09980 0.15083
vn -0.54799 -0.79587 0.25749
vn -0.95896 -0.17242 0.22509
vn -0.97840 -0.15994 0.13096
vn -0.65447 -0.44089 0.61423
vn -0.85335 0.19139 0.48494
vn -0.86791 0.34820 0.35425
vn -0.76322 -0.02077 0.64581
vn -0.64238 0.62006 0.45040
vn -0.67304 0.63248 0.38338
vn -0.71255 0.57634 0.40013
vn -0.52596 0.83614 0.15566
vn -0.31145 0.58347 -0.75004
vn -0.52560 0.79417 0.30501
vn 0.20865 0.97787 0.01545
vn 0.61555 -0.66085 -0.42939
vn 0.87266 -0.33488 -0.35542
vn -0.00119 -0.13744 -0.99051
vn 0.48183 -0.60628 -0.63267
vn 0.83137 -0.03392 -0.55468
vn -0.30359 -0.74519 -0.59374
vn 0.61951 -0.14909 -0.77070
vn 0.57311 -0.74312 -0.34542
vn -0.15728 -0.96076 -0.22846
vn 0.52826 -0.16935 -0.83202
vn 0.61090 0.18526 -0.76973
vn 0.41027 0.20486 -0.88866
vn 0.33316 0.63648 -0.69563
vn 0.36026 -0.92326 -0.13341
vn 0.20100 -0.78324 0.58833
vn 0.21746 -0.97591 0.01739
vn 0.82303 -0.51365 0.24245
vn 0.82303 -0.51365 0.24245
vn 0.74392 -0.43621 -0.50627
vn 0.54494 -0.10408 -0.83199
vn 0.53745 -0.39367 -0.74577
vn 0.42643 -0.09257 -0.89977
vn 0.28403 0.44762 -0.84792
vn 0.13753 0.66223 -0.73657
vn -0.31145 0.58347 -0.75004
vn 0.08602 0.65924 -0.74700
vn 0.20865 0.97787 0.01545
vn -0.10156 0.70341 0.70350
vn 0.63745 0.76006 -0.12639
vn 0.80458 0.47262 0.35954
vn 0.06905 0.19578 0.97821
vn 0.52903 0.84583 0.06853
vn -0.35446 0.67109 0.65115
vn -0.13041 0.54700 0.82691
vn -0.71255 0.57634 0.40013
vn -0.41233 0.16569 0.89584
vn -0.15628 0.35039 0.92347
vn -0.02495 0.20571 0.97829
vn -0.44409 -0.22770 0.86657
vn -0.04706 -0.26846 0.96214
vn -0.42694 -0.36806 0.82599
vn 0.35029 -0.71359 0.60669
vn -0.05205 -0.94780 0.31458
vn 0.39288 -0.75628 0.52315
vn 0.20100 -0.78324 0.58833
vn 0.28168 0.89889 -0.33565
vn 0.52903 0.84583 0.06853
vn -0.35446 0.67109 0.65115
vn -0.52560 0.79417 0.30501
vn -0.71255 0.57634 0.40013
vn 0.20865 0.97787 0.01545
vn 0.30905 0.71897 -0.62255
vn 0.80458 0.47262 0.35954
vn 0.63745 0.76006 -0.12639
vn 0.71688 0.38725 -0.57976
vn 0.31955 0.45400 -0.83173
vn 0.52903 0.84583 0.06853
vn 0.29143 0.18216 -0.93909
vn 0.51499 0.08117 -0.85334
vn 0.17090 0.70947 -0.68370
vn 0.28168 0.89889 -0.33565
vn 0.08602 0.65924 -0.74700
vn 0.20865 0.97787 0.01545
vn 0.42643 -0.09257 -0.89977
vn 0.68984 0.06083 -0.72141
vn 0.53745 -0.39367 -0.74577
vn 0.67698 -0.51019 -0.53048
vn 0.18800 -0.68102 -0.70772
vn 0.82303 -0.51365 0.24245
vn -0.23795 -0.88265 -0.40535
vn 0.21746 -0.97591 0.01739
vn 0.20100 -0.78324 0.58833
g Rope_End_01_sub0
usemtl Rope
f 1/1/1 3/3/3 2/2/2
f 1/1/1 4/4/4 3/3/3
f 4/4/4 5/5/5 3/3/3
f 4/4/4 1/1/1 6/6/6
f 4/4/4 7/7/7 5/5/5
f 4/4/4 6/6/6 8/8/8
f 8/8/8 6/6/6 9/9/9
f 4/4/4 10/10/10 7/7/7
f 10/10/10 4/4/4 8/8/8
f 10/10/10 11/11/11 7/7/7
f 10/10/10 12/12/12 11/11/11
f 12/12/12 13/13/13 11/11/11
f 8/8/8 9/9/9 14/14/14
f 15/15/15 14/14/14 9/9/9
f 15/15/15 16/16/16 14/14/14
f 17/17/17 14/14/14 16/16/16
f 8/8/8 14/14/14 17/17/17
f 10/10/10 8/8/8 18/18/18
f 18/18/18 8/8/8 17/17/17
f 12/12/12 10/10/10 18/18/18
f 19/19/19 18/18/18 17/17/17
f 12/12/12 18/18/18 19/19/19
f 19/19/19 17/17/17 20/20/20
f 21/21/21 19/19/19 20/20/20
f 22/22/22 12/12/12 19/19/19
f 12/12/12 22/22/22 13/13/13
f 22/22/22 19/19/19 21/21/21
f 22/22/22 23/23/23 13/13/13
f 23/23/23 22/22/22 21/21/21
f 23/23/23 24/24/24 13/13/13
f 23/23/23 21/21/21 25/25/25
f 23/23/23 26/26/26 24/24/24
f 26/26/26 23/23/23 25/25/25
f 27/27/27 29/29/29 28/28/28
f 27/27/27 28/28/28 30/30/30
f 30/30/30 28/28/28 31/31/31
f 30/30/30 32/32/32 27/27/27
f 30/30/30 31/31/31 33/33/33
f 30/30/30 34/34/34 32/32/32
f 34/34/34 35/35/35 32/32/32
f 30/30/30 33/33/33 36/36/36
f 36/36/36 34/34/34 30/30/30
f 36/36/36 33/33/33 37/37/37
f 36/36/36 37/37/37 38/38/38
f 38/38/38 37/37/37 39/39/39
f 34/34/34 40/40/40 35/35/35
f 41/41/41 35/35/35 40/40/40
f 41/41/41 40/40/40 42/42/42
f 43/43/43 42/42/42 40/40/40
f 34/34/34 43/43/43 40/40/40
f 36/36/36 44/44/44 34/34/34
f 44/44/44 43/43/43 34/34/34
f 38/38/38 44/44/44 36/36/36
f 45/45/45 43/43/43 44/44/44
f 38/38/38 45/45/45 44/44/44
f 45/45/45 46/46/46 43/43/43
f 47/47/47 46/46/46 45/45/45
f 48/48/48 45/45/45 38/38/38
f 38/38/38 39/39/39 48/48/48
f 48/48/48 47/47/47 45/45/45
f 48/48/48 39/39/39 49/49/49
f 49/49/49 47/47/47 48/48/48
f 49/49/49 39/39/39 50/50/50
f 49/49/49 51/51/51 47/47/47
f 49/49/49 50/50/50 52/52/52
f 52/52/52 51/51/51 49/49/49
f 53/53/53 55/55/55 54/54/54
f 53/53/53 54/54/54 56/56/56
f 57/57/57 56/56/56 54/54/54
f 57/57/57 58/58/58 56/56/56
f 59/59/59 56/56/56 58/58/58
f 53/53/53 56/56/56 60/60/60
f 61/61/61 53/53/53 60/60/60
f 62/62/62 61/61/61 60/60/60
f 62/62/62 60/60/60 63/63/63
f 64/64/64 62/62/62 63/63/63
f 65/65/65 67/67/67 66/66/66
f 65/65/65 68/68/68 67/67/67
f 68/68/68 65/65/65 69/69/69
f 68/68/68 70/70/70 67/67/67
f 68/68/68 69/69/69 71/71/71
f 68/68/68 72/72/72 70/70/70
f 73/73/73 68/68/68 71/71/71
f 68/68/68 73/73/73 72/72/72
f 73/73/73 71/71/71 74/74/74
f 73/73/73 75/75/75 72/72/72
f 76/76/76 73/73/73 74/74/74
f 73/73/73 76/76/76 75/75/75
f 76/76/76 74/74/74 77/77/77
f 76/76/76 78/78/78 75/75/75
f 79/79/79 76/76/76 77/77/77
f 76/76/76 79/79/79 78/78/78
f 79/79/79 77/77/77 80/80/80
f 79/79/79 81/81/81 78/78/78
f 81/81/81 79/79/79 80/80/80
f 81/81/81 82/82/82 78/78/78
f 81/81/81 80/80/80 83/83/83
f 81/81/81 84/84/84 82/82/82
f 84/84/84 81/81/81 83/83/83
f 85/85/85 87/87/87 86/86/86
f 85/85/85 86/86/86 88/88/88
f 88/88/88 86/86/86 89/89/89
f 88/88/88 90/90/90 85/85/85
f 88/88/88 89/89/89 91/91/91
f 88/88/88 92/92/92 90/90/90
f 92/92/92 93/93/93 90/90/90
f 88/88/88 91/91/91 94/94/94
f 94/94/94 92/92/92 88/88/88
f 94/94/94 91/91/91 95/95/95
f 94/94/94 95/95/95 96/96/96
f 96/96/96 95/95/95 97/97/97
f 92/92/92 98/98/98 93/93/93
f 99/99/99 93/93/93 98/98/98
f 99/99/99 98/98/98 100/100/100
f 101/101/101 100/100/100 98/98/98
f 92/92/92 102/102/102 98/98/98
f 94/94/94 103/103/103 92/92/92
f 103/103/103 102/102/102 92/92/92
f 96/96/96 103/103/103 94/94/94
f 104/104/104 102/102/102 103/103/103
f 96/96/96 104/104/104 103/103/103
f 104/104/104 105/105/105 102/102/102
f 106/106/106 105/105/105 104/104/104
f 107/107/107 104/104/104 96/96/96
f 96/96/96 97/97/97 107/107/107
f 107/107/107 106/106/106 104/104/104
f 107/107/107 97/97/97 108/108/108
f 108/108/108 106/106/106 107/107/107
f 108/108/108 97/97/97 109/109/109
f 108/108/108 110/110/110 106/106/106
f 108/108/108 109/109/109 111/111/111
f 111/111/111 110/110/110 108/108/108
f 112/112/112 114/114/114 113/113/113
f 112/112/112 113/113/113 115/115/115
f 116/116/116 115/115/115 113/113/113
f 116/116/116 117/117/117 115/115/115
f 118/118/118 112/112/112 115/115/115
f 115/115/115 117/117/117 119/119/119
f 118/118/118 115/115/115 120/120/120
f 115/115/115 119/119/119 120/120/120
f 121/121/121 118/118/118 120/120/120
f 120/120/120 119/119/119 122/122/122
f 121/121/121 120/120/120 122/122/122
f 123/123/123 122/122/122 119/119/119
f 124/124/124 121/121/121 122/122/122
f 123/123/123 124/124/124 122/122/122
f 124/124/124 125/125/125 121/121/121
f 126/126/126 124/124/124 123/123/123
f 126/126/126 125/125/125 124/124/124
f 127/127/127 125/125/125 126/126/126
f 127/127/127 126/126/126 128/128/128
f 128/128/128 129/129/129 127/127/127
f 130/130/130 132/132/132 131/131/131
f 133/133/133 132/132/132 130/130/130
f 134/134/134 132/132/132 133/133/133
f 133/133/133 130/130/130 135/135/135
f 136/136/136 138/138/138 137/137/137
f 136/136/136 139/139/139 138/138/138
f 140/140/140 139/139/139 136/136/136
f 141/141/141 138/138/138 139/139/139
f 140/140/140 142/142/142 139/139/139
f 143/143/143 142/142/142 140/140/140
f 141/141/141 139/139/139 144/144/144
f 145/145/145 141/141/141 144/144/144
f 146/146/146 145/145/145 144/144/144
f 146/146/146 147/147/147 145/145/145
f 148/148/148 146/146/146 144/144/144
f 139/139/139 148/148/148 144/144/144
f 139/139/139 142/142/142 148/148/148
f 142/142/142 149/149/149 148/148/148
f 143/143/143 149/149/149 142/142/142
f 150/150/150 148/148/148 149/149/149
f 151/151/151 149/149/149 143/143/143
f 150/150/150 149/149/149 151/151/151
f 151/151/151 143/143/143 152/152/152
f 153/153/153 150/150/150 151/151/151
f 153/153/153 151/151/151 152/152/152
f 154/154/154 153/153/153 152/152/152
f 154/154/154 155/155/155 153/153/153
f 155/155/155 154/154/154 156/156/156
