# Rope_Segment - exported from Blocked In (Unity mesh, z negated to right-handed)
mtllib Rope_Segment.mtl
o Rope_Segment
v 0.000000 0.106252 -0.045044
v 0.000000 0.087178 -0.000000
v -0.043517 0.070150 -0.028810
v -0.058982 0.075295 -0.064089
v -0.070990 0.044894 -0.057473
v 0.000000 0.109587 -0.100529
v -0.081822 0.017614 -0.087270
v -0.056995 0.084073 -0.121904
v 0.000000 0.102047 -0.154963
v -0.087992 0.033682 -0.106190
v -0.075903 -0.011602 -0.118300
v -0.094919 -0.004055 -0.143939
v -0.048293 -0.042233 -0.148090
v -0.051267 0.085177 -0.179135
v 0.000000 0.087178 -0.218100
v -0.037342 0.072438 -0.218099
v -0.071592 0.058663 -0.218099
v -0.071592 0.058663 -0.218099
v -0.090674 0.051201 -0.154027
v -0.103386 0.010869 -0.192463
v -0.100937 0.018951 -0.218099
v -0.093701 -0.022510 -0.218100
v -0.076978 -0.035546 -0.174474
v -0.052850 -0.060048 -0.197135
v 0.000000 -0.064843 -0.166323
v -0.057838 -0.061790 -0.218100
v 0.000000 -0.087178 -0.218099
v -0.048293 -0.042233 -0.148090
v 0.000000 -0.079236 -0.119458
v 0.000000 -0.064843 -0.166323
v -0.069004 -0.053433 -0.098204
v -0.075903 -0.011602 -0.118300
v 0.000000 -0.089381 -0.076327
v -0.082672 -0.028170 -0.073895
v -0.081822 0.017614 -0.087270
v -0.068402 -0.065479 -0.044397
v -0.000000 -0.091179 -0.032510
v -0.057838 -0.061790 -0.000000
v -0.000000 -0.087178 -0.000000
v -0.093701 -0.022510 -0.000000
v -0.093813 -0.000246 -0.047614
v -0.100937 0.018951 -0.000000
v -0.098699 0.026341 -0.023442
v -0.070990 0.044894 -0.057473
v -0.071592 0.058663 -0.000000
v -0.043517 0.070150 -0.028810
v -0.037342 0.072438 -0.000000
v 0.000000 0.087178 -0.000000
v 0.000000 0.106252 -0.045044
v 0.043517 0.070150 -0.028810
v 0.000000 0.087178 -0.000000
v 0.058982 0.075295 -0.064089
v 0.070990 0.044894 -0.057473
v 0.000000 0.109587 -0.100529
v 0.081822 0.017614 -0.087270
v 0.056995 0.084073 -0.121904
v 0.000000 0.102047 -0.154963
v 0.087992 0.033682 -0.106190
v 0.075904 -0.011602 -0.118300
v 0.094919 -0.004055 -0.143939
v 0.048293 -0.042234 -0.148090
v 0.051267 0.085177 -0.179135
v 0.000000 0.087178 -0.218100
v 0.037342 0.072438 -0.218099
v 0.071592 0.058663 -0.218099
v 0.071592 0.058663 -0.218099
v 0.090674 0.051201 -0.154027
v 0.103386 0.010869 -0.192463
v 0.100937 0.018951 -0.218099
v 0.093701 -0.022510 -0.218100
v 0.076978 -0.035546 -0.174474
v 0.052850 -0.060048 -0.197135
v 0.000000 -0.064843 -0.166323
v 0.057838 -0.061790 -0.218100
v 0.000000 -0.087178 -0.218099
v 0.048293 -0.042234 -0.148090
v 0.000000 -0.064843 -0.166323
v 0.000000 -0.079236 -0.119458
v 0.069004 -0.053433 -0.098204
v 0.075904 -0.011602 -0.118300
v 0.000000 -0.089381 -0.076327
v 0.082673 -0.028170 -0.073895
v 0.081822 0.017614 -0.087270
v 0.068402 -0.065479 -0.044397
v -0.000000 -0.091179 -0.032510
v 0.057838 -0.061790 -0.000000
v -0.000000 -0.087178 -0.000000
v 0.093701 -0.022510 -0.000000
v 0.093813 -0.000246 -0.047614
v 0.100937 0.018951 -0.000000
v 0.098699 0.026341 -0.023442
v 0.070990 0.044894 -0.057473
v 0.071592 0.058663 -0.000000
v 0.043517 0.070150 -0.028810
v 0.037342 0.072438 -0.000000
v 0.000000 0.087178 -0.000000
v 0.000000 0.087178 -0.218100
v -0.037342 0.072438 -0.218099
v 0.037342 0.072438 -0.218099
v 0.071592 0.058663 -0.218099
v -0.071592 0.058663 -0.218099
v -0.100937 0.018951 -0.218099
v 0.100937 0.018951 -0.218099
v 0.093701 -0.022510 -0.218100
v -0.093701 -0.022510 -0.218100
v 0.057838 -0.061790 -0.218100
v -0.057838 -0.061790 -0.218100
v 0.000000 -0.087178 -0.218099
v 0.000000 0.087178 -0.000000
v 0.037342 0.072438 -0.000000
v -0.037342 0.072438 -0.000000
v 0.071592 0.058663 -0.000000
v -0.071592 0.058663 -0.000000
v -0.100937 0.018951 -0.000000
v 0.100937 0.018951 -0.000000
v 0.093701 -0.022510 -0.000000
v -0.093701 -0.022510 -0.000000
v 0.057838 -0.061790 -0.000000
v -0.057838 -0.061790 -0.000000
v -0.000000 -0.087178 -0.000000
vt 0.811608 0.015562
vt 0.978414 0.015562
vt 0.846526 0.196863
vt 0.685643 0.227449
vt 0.732041 0.339607
vt 0.540177 0.015562
vt 0.603857 0.460968
vt 0.443802 0.202330
vt 0.312454 0.015562
vt 0.507616 0.409939
vt 0.469625 0.587859
vt 0.336527 0.538292
vt 0.352622 0.757141
vt 0.210205 0.178129
vt 0.036006 0.015562
vt 0.036006 0.173561
vt 0.036006 0.304473
vt 0.036006 0.303570
vt 0.300877 0.352768
vt 0.134453 0.484957
vt 0.036006 0.453755
vt 0.036006 0.597038
vt 0.209171 0.664779
vt 0.118923 0.786316
vt 0.284163 0.973362
vt 0.036006 0.779340
vt 0.036006 0.973362
vt 0.352622 0.757141
vt 0.484936 0.973362
vt 0.284163 0.973362
vt 0.591254 0.727633
vt 0.469625 0.587859
vt 0.671281 0.973362
vt 0.688804 0.628218
vt 0.603857 0.460968
vt 0.809120 0.755861
vt 0.855857 0.973362
vt 0.978414 0.777746
vt 0.978414 0.973362
vt 0.978414 0.600177
vt 0.796871 0.525362
vt 0.978414 0.460732
vt 0.900108 0.437572
vt 0.732041 0.339607
vt 0.978414 0.316484
vt 0.846526 0.196863
vt 0.978414 0.257120
vt 0.978414 0.015562
vt 0.811608 0.015562
vt 0.846526 0.196863
vt 0.978414 0.015562
vt 0.685643 0.227449
vt 0.732041 0.339607
vt 0.540177 0.015562
vt 0.603857 0.460968
vt 0.443802 0.202330
vt 0.312454 0.015562
vt 0.507616 0.409939
vt 0.469625 0.587859
vt 0.336527 0.538292
vt 0.352622 0.757141
vt 0.210205 0.178129
vt 0.036006 0.015562
vt 0.036006 0.173561
vt 0.036006 0.304473
vt 0.036006 0.303570
vt 0.300877 0.352768
vt 0.134453 0.484957
vt 0.036006 0.453755
vt 0.036006 0.597038
vt 0.209171 0.664779
vt 0.118923 0.786316
vt 0.284163 0.973362
vt 0.036006 0.779340
vt 0.036006 0.973362
vt 0.352622 0.757141
vt 0.284163 0.973362
vt 0.484936 0.973362
vt 0.591254 0.727633
vt 0.469625 0.587859
vt 0.671281 0.973362
vt 0.688804 0.628218
vt 0.603857 0.460968
vt 0.809120 0.755861
vt 0.855857 0.973362
vt 0.978414 0.777746
vt 0.978414 0.973362
vt 0.978414 0.600177
vt 0.796871 0.525362
vt 0.978414 0.460732
vt 0.900108 0.437572
vt 0.732041 0.339607
vt 0.978414 0.316484
vt 0.846526 0.196863
vt 0.978414 0.257120
vt 0.978414 0.015562
vt 0.482647 0.492512
vt 0.504282 0.483932
vt 0.461287 0.484004
vt 0.441923 0.476145
vt 0.524195 0.475886
vt 0.541176 0.452836
vt 0.425819 0.453682
vt 0.430315 0.430392
vt 0.536783 0.429151
vt 0.450678 0.408288
vt 0.516035 0.407260
vt 0.483245 0.393685
vt 0.494869 0.492713
vt 0.481039 0.487223
vt 0.508803 0.487193
vt 0.468450 0.482130
vt 0.521612 0.482023
vt 0.532545 0.467178
vt 0.457860 0.467531
vt 0.460677 0.452358
vt 0.529747 0.451837
vt 0.473878 0.437966
vt 0.516361 0.437534
vt 0.495065 0.428531
vn 0.65238 0.69329 0.30619
vn 0.00003 0.45100 0.89252
vn -0.82894 0.53830 -0.15198
vn -0.67491 0.70014 0.23303
vn -0.96946 0.23783 -0.05994
vn 0.00015 0.83422 0.55143
vn -0.93615 0.27353 0.22090
vn -0.61200 0.78756 -0.07220
vn -0.00019 0.96777 0.25183
vn -0.94414 0.19195 0.26788
vn -0.95926 -0.19962 0.19994
vn -0.90710 -0.33017 0.26108
vn -0.64954 -0.74054 0.17233
vn -0.36637 0.92987 -0.03340
vn -0.41515 0.52128 -0.74560
vn -0.28626 0.68878 -0.66606
vn -0.80995 -0.29721 -0.50561
vn -0.80995 -0.29721 -0.50561
vn -0.84653 0.51707 -0.12657
vn -0.98345 0.15186 0.09878
vn -0.81998 0.00812 -0.57233
vn -0.71179 -0.02530 -0.70193
vn -0.70933 -0.66495 0.23386
vn -0.49990 -0.82634 0.25933
vn -0.00002 -0.57936 0.81507
vn -0.48752 -0.52963 -0.69413
vn -0.00000 -0.99348 0.11401
vn -0.45682 -0.87656 -0.15148
vn 0.50261 -0.79386 -0.34230
vn 0.00004 -0.54896 -0.83585
vn -0.78779 -0.41233 -0.45757
vn -0.77583 -0.61019 -0.16047
vn 0.42642 -0.85092 -0.30675
vn -0.97523 -0.20859 0.07359
vn -0.97148 -0.18193 -0.15205
vn -0.64201 -0.75839 0.11256
vn 0.42628 -0.89620 0.12297
vn -0.44326 -0.50926 0.73768
vn 0.34630 -0.75049 0.56288
vn -0.88498 -0.44835 0.12565
vn -0.94366 -0.01401 -0.33062
vn -0.71849 0.45747 0.52392
vn -0.75797 0.61318 -0.22249
vn -0.68978 0.69050 0.21775
vn -0.08243 0.99657 0.00730
vn -0.12248 0.90967 0.39686
vn -0.53041 0.20967 0.82141
vn -0.02186 0.97906 0.20242
vn 0.65238 0.69329 0.30619
vn 0.82894 0.53830 -0.15198
vn 0.00003 0.45100 0.89252
vn 0.67484 0.70015 0.23323
vn 0.96945 0.23785 -0.05989
vn 0.00015 0.83422 0.55143
vn 0.93617 0.27348 0.22091
vn 0.61101 0.78832 -0.07227
vn -0.00019 0.96777 0.25183
vn 0.94426 0.19031 0.26863
vn 0.95925 -0.19967 0.19995
vn 0.90655 -0.33097 0.26198
vn 0.64951 -0.74056 0.17236
vn 0.36178 0.93147 -0.03846
vn -0.41515 0.52128 -0.74560
vn 0.11572 0.81595 -0.56641
vn 0.85570 0.51626 -0.03546
vn 0.85570 0.51626 -0.03546
vn 0.84312 0.52309 -0.12463
vn 0.98334 0.15697 0.09163
vn 0.69208 0.39989 -0.60093
vn 0.91550 -0.35940 -0.18082
vn 0.70859 -0.66538 0.23488
vn 0.49955 -0.82647 0.25962
vn -0.00002 -0.57936 0.81507
vn 0.32941 -0.65551 -0.67955
vn -0.00000 -0.99348 0.11401
vn 0.45685 -0.87655 -0.15152
vn 0.00004 -0.54896 -0.83585
vn 0.50261 -0.79386 -0.34230
vn 0.78872 -0.41177 -0.45647
vn 0.77586 -0.61015 -0.16049
vn 0.42642 -0.85092 -0.30675
vn 0.97796 -0.19665 0.07014
vn 0.97148 -0.18189 -0.15209
vn 0.64587 -0.75503 0.11304
vn 0.42628 -0.89620 0.12297
vn 0.42576 -0.60500 0.67284
vn 0.34630 -0.75049 0.56288
vn 0.64257 -0.64763 0.40949
vn 0.94361 -0.00724 -0.33097
vn 0.93737 0.12689 0.32441
vn 0.75775 0.61916 -0.20606
vn 0.68981 0.69048 0.21771
vn 0.43514 -0.24135 0.86741
vn 0.12247 0.90968 0.39685
vn 0.37206 0.26781 0.88873
vn -0.02186 0.97906 0.20242
vn -0.41515 0.52128 -0.74560
vn -0.28626 0.68878 -0.66606
vn 0.11572 0.81595 -0.56641
vn 0.85570 0.51626 -0.03546
vn -0.80995 -0.29721 -0.50561
vn -0.81998 0.00812 -0.57233
vn 0.69208 0.39989 -0.60093
vn 0.91550 -0.35940 -0.18082
vn -0.71179 -0.02530 -0.70193
vn 0.32941 -0.65551 -0.67955
vn -0.48752 -0.52963 -0.69413
vn -0.00000 -0.99348 0.11401
vn -0.02186 0.97906 0.20242
vn 0.37206 0.26781 0.88873
vn -0.53041 0.20967 0.82141
vn 0.43514 -0.24135 0.86741
vn -0.08243 0.99657 0.00730
vn -0.71849 0.45747 0.52392
vn 0.93737 0.12689 0.32441
vn 0.64257 -0.64763 0.40949
vn -0.88498 -0.44835 0.12565
vn 0.42576 -0.60500 0.67284
vn -0.44326 -0.50926 0.73768
vn 0.34630 -0.75049 0.56288
g Rope_Segment_sub0
usemtl Rope
f 1/1/1 3/3/3 2/2/2
f 1/1/1 4/4/4 3/3/3
f 4/4/4 5/5/5 3/3/3
f 4/4/4 1/1/1 6/6/6
f 4/4/4 7/7/7 5/5/5
f 4/4/4 6/6/6 8/8/8
f 8/8/8 6/6/6 9/9/9
f 4/4/4 10/10/10 7/7/7
f 10/10/10 4/4/4 8/8/8
f 10/10/10 11/11/11 7/7/7
f 10/10/10 12/12/12 11/11/11
f 12/12/12 13/13/13 11/11/11
f 8/8/8 9/9/9 14/14/14
f 15/15/15 14/14/14 9/9/9
f 15/15/15 16/16/16 14/14/14
f 17/17/17 14/14/14 16/16/16
f 8/8/8 14/14/14 18/18/18
f 10/10/10 8/8/8 19/19/19
f 19/19/19 8/8/8 18/18/18
f 12/12/12 10/10/10 19/19/19
f 20/20/20 19/19/19 18/18/18
f 12/12/12 19/19/19 20/20/20
f 20/20/20 18/18/18 21/21/21
f 22/22/22 20/20/20 21/21/21
f 23/23/23 12/12/12 20/20/20
f 12/12/12 23/23/23 13/13/13
f 23/23/23 20/20/20 22/22/22
f 23/23/23 24/24/24 13/13/13
f 24/24/24 23/23/23 22/22/22
f 24/24/24 25/25/25 13/13/13
f 24/24/24 22/22/22 26/26/26
f 24/24/24 27/27/27 25/25/25
f 27/27/27 24/24/24 26/26/26
f 28/28/28 30/30/30 29/29/29
f 28/28/28 29/29/29 31/31/31
f 32/32/32 28/28/28 31/31/31
f 33/33/33 31/31/31 29/29/29
f 32/32/32 31/31/31 34/34/34
f 35/35/35 32/32/32 34/34/34
f 33/33/33 36/36/36 31/31/31
f 37/37/37 36/36/36 33/33/33
f 38/38/38 36/36/36 37/37/37
f 38/38/38 37/37/37 39/39/39
f 40/40/40 36/36/36 38/38/38
f 31/31/31 36/36/36 40/40/40
f 31/31/31 40/40/40 34/34/34
f 34/34/34 40/40/40 41/41/41
f 35/35/35 34/34/34 41/41/41
f 42/42/42 41/41/41 40/40/40
f 43/43/43 35/35/35 41/41/41
f 42/42/42 43/43/43 41/41/41
f 43/43/43 44/44/44 35/35/35
f 45/45/45 43/43/43 42/42/42
f 45/45/45 44/44/44 43/43/43
f 46/46/46 44/44/44 45/45/45
f 46/46/46 45/45/45 47/47/47
f 47/47/47 48/48/48 46/46/46
f 49/49/49 51/51/51 50/50/50
f 49/49/49 50/50/50 52/52/52
f 52/52/52 50/50/50 53/53/53
f 52/52/52 54/54/54 49/49/49
f 52/52/52 53/53/53 55/55/55
f 52/52/52 56/56/56 54/54/54
f 56/56/56 57/57/57 54/54/54
f 52/52/52 55/55/55 58/58/58
f 58/58/58 56/56/56 52/52/52
f 58/58/58 55/55/55 59/59/59
f 58/58/58 59/59/59 60/60/60
f 60/60/60 59/59/59 61/61/61
f 56/56/56 62/62/62 57/57/57
f 63/63/63 57/57/57 62/62/62
f 63/63/63 62/62/62 64/64/64
f 65/65/65 64/64/64 62/62/62
f 56/56/56 66/66/66 62/62/62
f 58/58/58 67/67/67 56/56/56
f 67/67/67 66/66/66 56/56/56
f 60/60/60 67/67/67 58/58/58
f 68/68/68 66/66/66 67/67/67
f 60/60/60 68/68/68 67/67/67
f 68/68/68 69/69/69 66/66/66
f 70/70/70 69/69/69 68/68/68
f 71/71/71 68/68/68 60/60/60
f 60/60/60 61/61/61 71/71/71
f 71/71/71 70/70/70 68/68/68
f 71/71/71 61/61/61 72/72/72
f 72/72/72 70/70/70 71/71/71
f 72/72/72 61/61/61 73/73/73
f 72/72/72 74/74/74 70/70/70
f 72/72/72 73/73/73 75/75/75
f 75/75/75 74/74/74 72/72/72
f 76/76/76 78/78/78 77/77/77
f 76/76/76 79/79/79 78/78/78
f 80/80/80 79/79/79 76/76/76
f 81/81/81 78/78/78 79/79/79
f 80/80/80 82/82/82 79/79/79
f 83/83/83 82/82/82 80/80/80
f 81/81/81 79/79/79 84/84/84
f 85/85/85 81/81/81 84/84/84
f 86/86/86 85/85/85 84/84/84
f 86/86/86 87/87/87 85/85/85
f 88/88/88 86/86/86 84/84/84
f 79/79/79 88/88/88 84/84/84
f 79/79/79 82/82/82 88/88/88
f 82/82/82 89/89/89 88/88/88
f 83/83/83 89/89/89 82/82/82
f 90/90/90 88/88/88 89/89/89
f 91/91/91 89/89/89 83/83/83
f 90/90/90 89/89/89 91/91/91
f 91/91/91 83/83/83 92/92/92
f 93/93/93 90/90/90 91/91/91
f 93/93/93 91/91/91 92/92/92
f 94/94/94 93/93/93 92/92/92
f 94/94/94 95/95/95 93/93/93
f 95/95/95 94/94/94 96/96/96
f 97/97/97 99/99/99 98/98/98
f 98/98/98 99/99/99 100/100/100
f 98/98/98 100/100/100 101/101/101
f 102/102/102 101/101/101 100/100/100
f 102/102/102 100/100/100 103/103/103
f 102/102/102 103/103/103 104/104/104
f 102/102/102 104/104/104 105/105/105
f 105/105/105 104/104/104 106/106/106
f 105/105/105 106/106/106 107/107/107
f 107/107/107 106/106/106 108/108/108
f 109/109/109 111/111/111 110/110/110
f 111/111/111 112/112/112 110/110/110
f 111/111/111 113/113/113 112/112/112
f 114/114/114 112/112/112 113/113/113
f 114/114/114 115/115/115 112/112/112
f 114/114/114 116/116/116 115/115/115
f 114/114/114 117/117/117 116/116/116
f 117/117/117 118/118/118 116/116/116
f 117/117/117 119/119/119 118/118/118
f 119/119/119 120/120/120 118/118/118
