# Rounded_Square - exported from Blocked In (Unity mesh, z negated to right-handed)
mtllib Rounded_Square.mtl
o Rounded_Square
v 0.477258 0.000000 0.415029
v 0.415029 0.000000 0.477258
v 0.450240 0.000000 0.450240
v 0.374025 0.000000 0.494242
v 0.494242 0.000000 0.374025
v 0.500035 0.000000 0.330023
v 0.330023 0.000000 0.500035
v -0.500035 0.000000 0.330023
v -0.330023 0.000000 0.500035
v 0.500035 0.000000 -0.330023
v -0.494242 0.000000 0.374025
v -0.374025 0.000000 0.494242
v -0.415029 0.000000 0.477258
v -0.450240 0.000000 0.450240
v -0.477258 0.000000 0.415029
v -0.500035 0.000000 -0.330023
v -0.330023 0.000000 -0.500035
v -0.374025 0.000000 -0.494242
v 0.330023 0.000000 -0.500035
v -0.494242 0.000000 -0.374025
v -0.477258 0.000000 -0.415029
v -0.450240 0.000000 -0.450240
v -0.415029 0.000000 -0.477258
v 0.494242 0.000000 -0.374025
v 0.450240 0.000000 -0.450240
v 0.477258 0.000000 -0.415029
v 0.415029 0.000000 -0.477258
v 0.374025 0.000000 -0.494242
vt 0.977051 0.915039
vt 0.915039 0.977051
vt 0.950195 0.950195
vt 0.874023 0.994141
vt 0.994141 0.874023
vt 1.000000 0.830078
vt 0.830078 1.000000
vt 0.000000 0.830078
vt 0.170044 1.000000
vt 1.000000 0.170044
vt 0.005791 0.874023
vt 0.125977 0.994141
vt 0.085022 0.977051
vt 0.049805 0.950195
vt 0.022781 0.915039
vt 0.000000 0.170044
vt 0.170044 0.000000
vt 0.125977 0.005791
vt 0.830078 0.000000
vt 0.005791 0.125977
vt 0.022781 0.085022
vt 0.049805 0.049805
vt 0.085022 0.022781
vt 0.994141 0.125977
vt 0.950195 0.049805
vt 0.977051 0.085022
vt 0.915039 0.022781
vt 0.874023 0.005791
vn 0.00000 -1.00000 -0.00000
vn 0.00000 -1.00000 -0.00000
vn 0.00000 -1.00000 -0.00000
vn 0.00000 -1.00000 -0.00000
vn 0.00000 -1.00000 -0.00000
vn 0.00000 -1.00000 -0.00000
vn 0.00000 -1.00000 -0.00000
vn 0.00000 -1.00000 -0.00000
vn 0.00000 -1.00000 -0.00000
vn 0.00000 -1.00000 -0.00000
vn 0.00000 -1.00000 -0.00000
vn 0.00000 -1.00000 -0.00000
vn 0.00000 -1.00000 -0.00000
vn 0.00000 -1.00000 -0.00000
vn 0.00000 -1.00000 -0.00000
vn 0.00000 -1.00000 -0.00000
vn 0.00000 -1.00000 -0.00000
vn 0.00000 -1.00000 -0.00000
vn 0.00000 -1.00000 -0.00000
vn 0.00000 -1.00000 -0.00000
vn 0.00000 -1.00000 -0.00000
vn 0.00000 -1.00000 -0.00000
vn 0.00000 -1.00000 -0.00000
vn 0.00000 -1.00000 -0.00000
vn 0.00000 -1.00000 -0.00000
vn 0.00000 -1.00000 -0.00000
vn 0.00000 -1.00000 -0.00000
vn 0.00000 -1.00000 -0.00000
g Rounded_Square_sub0
usemtl TileMaterial_B
f 1/1/1 3/3/3 2/2/2
f 1/1/1 2/2/2 4/4/4
f 4/4/4 5/5/5 1/1/1
f 4/4/4 6/6/6 5/5/5
f 4/4/4 7/7/7 6/6/6
f 7/7/7 8/8/8 6/6/6
f 7/7/7 9/9/9 8/8/8
f 8/8/8 10/10/10 6/6/6
f 11/11/11 8/8/8 9/9/9
f 11/11/11 9/9/9 12/12/12
f 11/11/11 12/12/12 13/13/13
f 11/11/11 13/13/13 14/14/14
f 14/14/14 15/15/15 11/11/11
f 8/8/8 16/16/16 10/10/10
f 17/17/17 10/10/10 16/16/16
f 18/18/18 17/17/17 16/16/16
f 17/17/17 19/19/19 10/10/10
f 18/18/18 16/16/16 20/20/20
f 18/18/18 20/20/20 21/21/21
f 18/18/18 21/21/21 22/22/22
f 22/22/22 23/23/23 18/18/18
f 24/24/24 10/10/10 19/19/19
f 25/25/25 24/24/24 19/19/19
f 25/25/25 26/26/26 24/24/24
f 19/19/19 27/27/27 25/25/25
f 19/19/19 28/28/28 27/27/27
