# BackgroundFull - exported from Blocked In (Unity mesh, z negated to right-handed)
mtllib BackgroundFull.mtl
o BackgroundFull
v 0.000000 0.000000 -0.000000
v 0.500035 0.000000 -0.000000
v 0.500035 -0.500035 -0.000000
v 0.170012 -0.500035 -0.000000
v -0.000000 -0.500035 -0.000000
vt 1.000000 1.000000
vt 0.000000 1.000000
vt 0.000000 0.000000
vt 0.660000 0.000000
vt 1.000000 0.000000
vn 0.00000 0.00000 1.00000
vn 0.00000 0.00000 1.00000
vn 0.00000 0.00000 1.00000
vn 0.00000 0.00000 1.00000
vn 0.00000 0.00000 1.00000
g BackgroundFull_sub0
usemtl BoardBackdrop
f 1/1/1 3/3/3 2/2/2
f 1/1/1 4/4/4 3/3/3
f 4/4/4 1/1/1 5/5/5
