# BackgroundConvex - exported from Blocked In (Unity mesh, z negated to right-handed)
mtllib BackgroundConvex.mtl
o BackgroundConvex
v 0.500035 -0.330023 -0.000000
v 0.494242 -0.374025 -0.000000
v 0.477258 -0.415029 -0.000000
v 0.450240 -0.450240 -0.000000
v 0.374025 -0.494242 -0.000000
v 0.415029 -0.477258 -0.000000
v 0.330023 -0.500035 -0.000000
v -0.000000 -0.500035 -0.000000
v 0.500035 0.000000 -0.000000
v 0.000000 0.000000 -0.000000
vt 0.000000 0.340000
vt 0.011585 0.252002
vt 0.045551 0.170000
vt 0.099584 0.099584
vt 0.252002 0.011585
vt 0.170000 0.045551
vt 0.340000 0.000000
vt 1.000000 0.000000
vt 0.000000 1.000000
vt 1.000000 1.000000
vn 0.00000 0.00000 1.00000
vn 0.00000 0.00000 1.00000
vn 0.00000 0.00000 1.00000
vn 0.00000 0.00000 1.00000
vn 0.00000 0.00000 1.00000
vn 0.00000 0.00000 1.00000
vn 0.00000 0.00000 1.00000
vn 0.00000 0.00000 1.00000
vn 0.00000 0.00000 1.00000
vn 0.00000 0.00000 1.00000
g BackgroundConvex_sub0
usemtl BoardBackdrop
f 1/1/1 3/3/3 2/2/2
f 1/1/1 4/4/4 3/3/3
f 4/4/4 1/1/1 5/5/5
f 4/4/4 5/5/5 6/6/6
f 5/5/5 1/1/1 7/7/7
f 7/7/7 1/1/1 8/8/8
f 8/8/8 1/1/1 9/9/9
f 8/8/8 9/9/9 10/10/10
