# Scissor_01 - exported from Blocked In (Unity mesh, z negated to right-handed)
mtllib Scissor_01.mtl
o Scissor_01
v 0.252248 0.001345 0.066148
v 0.209010 0.001345 0.055666
v 0.207980 -0.065627 0.118719
v 0.176253 0.001345 0.097595
v 0.115182 0.001345 0.223156
v 0.213209 -0.065627 0.213109
v 0.284558 0.001345 0.142151
v 0.314558 0.001345 0.322966
v 0.236658 -0.065627 0.331032
v 0.330471 0.001345 0.399928
v 0.067908 -0.065627 0.450214
v 0.028320 0.001345 0.434330
v 0.055423 -0.065627 0.481320
v 0.015386 0.001345 0.510665
v 0.064889 -0.065627 0.530622
v 0.015354 0.001345 0.527399
v 0.061745 -0.065627 0.730305
v 0.012209 0.001345 0.727082
v 0.008314 0.001345 0.887332
v 0.253764 -0.065627 0.472621
v 0.061931 -0.065627 0.887332
v 0.038939 0.001345 1.041292
v 0.333793 -0.065627 0.519379
v 0.373022 0.001345 0.441939
v 0.088474 -0.065627 1.020774
v 0.126150 0.001345 1.171813
v 0.410632 -0.065627 0.538631
v 0.418493 0.001345 0.475580
v 0.164063 -0.065627 1.133901
v 0.256671 0.001345 1.259025
v 0.544074 -0.065627 0.565174
v 0.564592 0.001345 0.515639
v 0.277190 -0.065627 1.209490
v 0.410632 0.001345 1.289650
v 0.657201 -0.065627 0.640763
v 0.695113 0.001345 0.602850
v 0.410632 -0.065627 1.236033
v 0.564592 0.001345 1.259025
v 0.732790 -0.065627 0.753890
v 0.782325 0.001345 0.733371
v 0.544074 -0.065627 1.209490
v 0.695113 0.001345 1.171814
v 0.759333 -0.065627 0.887332
v 0.812950 0.001345 0.887332
v 0.657201 -0.065627 1.133901
v 0.782325 0.001345 1.041292
v 0.732790 -0.065627 1.020774
v 0.316251 -0.065627 1.115187
v 0.410632 -0.065627 1.133961
v 0.505013 -0.065627 1.115187
v 0.585025 -0.065627 1.061725
v 0.638487 -0.065627 0.981713
v 0.657261 -0.065627 0.887332
v 0.236239 -0.065627 1.061725
v 0.638487 -0.065627 0.792951
v 0.182777 -0.065627 0.981713
v 0.585025 -0.065627 0.712939
v 0.164003 -0.065627 0.887332
v 0.505013 -0.065627 0.659477
v 0.182776 -0.065627 0.792951
v 0.410632 -0.065627 0.640703
v 0.236239 -0.065627 0.712939
v 0.316251 -0.065627 0.659477
v 0.220763 0.001345 0.887332
v 0.235216 0.001345 0.959992
v 0.235216 0.001345 0.814672
v 0.276374 0.001345 0.753074
v 0.276374 0.001345 1.021589
v 0.337972 0.001345 0.711916
v 0.410632 0.001345 0.697463
v 0.337972 0.001345 1.062748
v 0.483291 0.001345 0.711916
v 0.410632 0.001345 1.077201
v 0.544889 0.001345 0.753074
v 0.483291 0.001345 1.062748
v 0.586048 0.001345 0.814672
v 0.544889 0.001345 1.021589
v 0.600501 0.001345 0.887332
v 0.586048 0.001345 0.959992
v 0.252248 0.001345 0.066148
v 0.207980 0.068316 0.118719
v 0.209010 0.001345 0.055666
v 0.176253 0.001345 0.097595
v 0.115182 0.001345 0.223156
v 0.213209 0.068316 0.213109
v 0.284558 0.001345 0.142151
v 0.314558 0.001345 0.322966
v 0.236658 0.068316 0.331032
v 0.330471 0.001345 0.399928
v 0.067908 0.068316 0.450214
v 0.028320 0.001345 0.434330
v 0.055423 0.068316 0.481320
v 0.015386 0.001345 0.510665
v 0.064889 0.068316 0.530622
v 0.015354 0.001345 0.527399
v 0.061745 0.068316 0.730305
v 0.012209 0.001345 0.727082
v 0.008314 0.001345 0.887332
v 0.253764 0.068316 0.472621
v 0.061931 0.068316 0.887332
v 0.038939 0.001345 1.041292
v 0.333793 0.068316 0.519379
v 0.373022 0.001345 0.441939
v 0.088474 0.068316 1.020774
v 0.126150 0.001345 1.171813
v 0.410632 0.068316 0.538631
v 0.418493 0.001345 0.475580
v 0.164063 0.068316 1.133901
v 0.256671 0.001345 1.259025
v 0.544074 0.068316 0.565174
v 0.564592 0.001345 0.515639
v 0.277190 0.068316 1.209490
v 0.410632 0.001345 1.289650
v 0.657201 0.068316 0.640763
v 0.695113 0.001345 0.602850
v 0.410632 0.068316 1.236033
v 0.564592 0.001345 1.259025
v 0.732790 0.068316 0.753890
v 0.782325 0.001345 0.733371
v 0.544074 0.068316 1.209490
v 0.695113 0.001345 1.171814
v 0.759333 0.068316 0.887332
v 0.812950 0.001345 0.887332
v 0.657201 0.068316 1.133901
v 0.782325 0.001345 1.041292
v 0.732790 0.068316 1.020774
v 0.316251 0.068316 1.115187
v 0.410632 0.068316 1.133961
v 0.505013 0.068316 1.115187
v 0.585025 0.068316 1.061725
v 0.638487 0.068316 0.981713
v 0.657261 0.068316 0.887332
v 0.236239 0.068316 1.061725
v 0.638487 0.068316 0.792951
v 0.182777 0.068316 0.981713
v 0.585025 0.068316 0.712939
v 0.164003 0.068316 0.887332
v 0.505013 0.068316 0.659477
v 0.182776 0.068316 0.792951
v 0.410632 0.068316 0.640703
v 0.236239 0.068316 0.712939
v 0.316251 0.068316 0.659477
v 0.220763 0.001345 0.887332
v 0.235216 0.001345 0.959992
v 0.235216 0.001345 0.814672
v 0.276374 0.001345 0.753074
v 0.276374 0.001345 1.021589
v 0.337972 0.001345 0.711916
v 0.410632 0.001345 0.697463
v 0.337972 0.001345 1.062748
v 0.483291 0.001345 0.711916
v 0.410632 0.001345 1.077201
v 0.544889 0.001345 0.753074
v 0.483291 0.001345 1.062748
v 0.586048 0.001345 0.814672
v 0.544889 0.001345 1.021589
v 0.600501 0.001345 0.887332
v 0.586048 0.001345 0.959992
v 0.049922 0.042529 0.424631
v 0.128818 0.039311 0.501919
v 0.086125 0.039311 0.509075
v 0.150712 0.042529 0.410189
v 0.013391 0.045747 0.328792
v 0.172606 0.045747 0.318460
v -0.045880 0.047075 0.216603
v 0.184345 0.047075 0.192732
v -0.154090 0.048404 0.088415
v 0.182875 0.048404 0.088415
v -0.161747 0.048404 -0.208253
v 0.171907 0.048404 -0.208253
v -0.136476 0.048404 -0.504921
v 0.146636 0.048404 -0.504921
v -0.117586 0.048404 -0.801589
v 0.127746 0.048404 -0.801589
v -0.107652 0.048404 -0.949923
v 0.117811 0.048404 -0.949923
v -0.071766 0.045015 -1.098257
v 0.081926 0.045015 -1.098257
v -0.019668 0.043508 -1.160692
v 0.029827 0.043508 -1.160692
v 0.049922 0.007524 0.424631
v 0.086125 0.010743 0.509075
v 0.128818 0.010743 0.501919
v 0.150712 0.007524 0.410189
v 0.013391 0.004306 0.328792
v 0.172606 0.004306 0.318460
v -0.045880 0.002978 0.216603
v 0.184345 0.002978 0.192732
v -0.154090 0.001649 0.088415
v 0.182875 0.001649 0.088415
v -0.161747 0.001649 -0.208253
v 0.171907 0.001649 -0.208253
v -0.136476 0.001649 -0.504921
v 0.146636 0.001649 -0.504921
v -0.117586 0.001649 -0.801589
v 0.127746 0.001649 -0.801589
v -0.107652 0.001649 -0.949923
v 0.117811 0.001649 -0.949923
v -0.071766 0.005038 -1.098257
v 0.081926 0.005038 -1.098257
v -0.019668 0.006545 -1.160692
v 0.029827 0.006545 -1.160692
v 0.182875 0.001649 0.088415
v 0.184345 0.002978 0.192732
v 0.184345 0.025027 0.192732
v 0.182875 0.025027 0.088415
v 0.172606 0.025027 0.318460
v 0.171907 0.001649 -0.208253
v 0.172606 0.004306 0.318460
v 0.171907 0.025027 -0.208253
v 0.150712 0.025027 0.410189
v 0.146636 0.001649 -0.504921
v 0.150712 0.007524 0.410189
v 0.146636 0.025027 -0.504921
v 0.128818 0.025027 0.501919
v 0.127746 0.001649 -0.801589
v 0.128818 0.010743 0.501919
v 0.127746 0.025027 -0.801589
v 0.086125 0.025027 0.509075
v 0.117811 0.001649 -0.949923
v 0.086125 0.010743 0.509075
v 0.117811 0.025027 -0.949923
v 0.049922 0.025027 0.424631
v 0.081926 0.005038 -1.098257
v 0.049922 0.007524 0.424631
v 0.081926 0.025027 -1.098257
v 0.013391 0.025027 0.328792
v 0.029827 0.006545 -1.160692
v 0.013391 0.004306 0.328792
v 0.029827 0.025027 -1.160692
v -0.045880 0.025027 0.216603
v -0.019668 0.006545 -1.160692
v -0.045880 0.002978 0.216603
v -0.019668 0.025027 -1.160692
v -0.154090 0.025027 0.088415
v -0.071766 0.005038 -1.098257
v -0.154090 0.001649 0.088415
v -0.071766 0.025027 -1.098257
v -0.161747 0.025027 -0.208253
v -0.107652 0.001649 -0.949923
v -0.161747 0.001649 -0.208253
v -0.107652 0.025027 -0.949923
v -0.136476 0.025027 -0.504921
v -0.117586 0.001649 -0.801589
v -0.136476 0.001649 -0.504921
v -0.117586 0.025027 -0.801589
v 0.182875 0.048404 0.088415
v 0.184345 0.025027 0.192732
v 0.184345 0.047075 0.192732
v 0.182875 0.025027 0.088415
v 0.172606 0.025027 0.318460
v 0.171907 0.048404 -0.208253
v 0.172606 0.045747 0.318460
v 0.171907 0.025027 -0.208253
v 0.150712 0.025027 0.410189
v 0.146636 0.048404 -0.504921
v 0.150712 0.042529 0.410189
v 0.146636 0.025027 -0.504921
v 0.128818 0.025027 0.501919
v 0.127746 0.048404 -0.801589
v 0.128818 0.039311 0.501919
v 0.127746 0.025027 -0.801589
v 0.086125 0.025027 0.509075
v 0.117811 0.048404 -0.949923
v 0.086125 0.039311 0.509075
v 0.117811 0.025027 -0.949923
v 0.049922 0.025027 0.424631
v 0.081926 0.045015 -1.098257
v 0.049922 0.042529 0.424631
v 0.081926 0.025027 -1.098257
v 0.013391 0.025027 0.328792
v 0.029827 0.043508 -1.160692
v 0.013391 0.045747 0.328792
v 0.029827 0.025027 -1.160692
v -0.045880 0.025027 0.216603
v -0.019668 0.043508 -1.160692
v -0.045880 0.047075 0.216603
v -0.019668 0.025027 -1.160692
v -0.154090 0.025027 0.088415
v -0.071766 0.045015 -1.098257
v -0.154090 0.048404 0.088415
v -0.071766 0.025027 -1.098257
v -0.161747 0.025027 -0.208253
v -0.107652 0.048404 -0.949923
v -0.161747 0.048404 -0.208253
v -0.107652 0.025027 -0.949923
v -0.136476 0.025027 -0.504921
v -0.117586 0.048404 -0.801589
v -0.136476 0.048404 -0.504921
v -0.117586 0.025027 -0.801589
v 0.124925 0.043467 -0.002600
v 0.089823 0.043467 0.082143
v 0.057454 0.106473 0.049774
v 0.079148 0.106473 -0.002600
v 0.005080 0.130539 -0.002600
v 0.089823 0.043467 -0.087343
v 0.005080 0.106473 0.071468
v 0.005080 0.043467 0.117244
v 0.057454 0.106473 -0.054974
v 0.005080 0.043467 -0.122445
v -0.047294 0.106473 0.049774
v -0.079663 0.043467 0.082143
v 0.005080 0.106473 -0.076669
v -0.079663 0.043467 -0.087343
v -0.068988 0.106473 -0.002600
v -0.114765 0.043467 -0.002600
v -0.047294 0.106473 -0.054974
vt 2.197266 0.039154
vt 2.150391 0.034637
vt 2.150391 0.072571
vt 2.119141 0.063538
vt 2.066406 0.167114
vt 2.171875 0.154175
vt 2.236328 0.088074
vt 2.296875 0.193848
vt 2.220703 0.219360
vt 2.326172 0.232056
vt 2.072266 0.350342
vt 2.042969 0.338623
vt 2.062500 0.373291
vt 2.033203 0.395020
vt 2.068359 0.409668
vt 2.033203 0.407471
vt 2.066406 0.557617
vt 2.029297 0.555176
vt 2.027344 0.673828
vt 2.265625 0.282227
vt 2.066406 0.673828
vt 2.050781 0.787598
vt 2.320312 0.331787
vt 2.359375 0.264648
vt 2.085938 0.772461
vt 2.115234 0.884277
vt 2.365234 0.363281
vt 2.384766 0.302979
vt 2.142578 0.855957
vt 2.210938 0.948730
vt 2.437500 0.423096
vt 2.455078 0.383789
vt 2.226562 0.912109
vt 2.324219 0.971191
vt 2.509766 0.489258
vt 2.537109 0.461426
vt 2.324219 0.931641
vt 2.439453 0.948730
vt 2.562500 0.574707
vt 2.599609 0.559570
vt 2.423828 0.912109
vt 2.535156 0.884277
vt 2.582031 0.673828
vt 2.623047 0.673828
vt 2.507812 0.855957
vt 2.599609 0.787598
vt 2.562500 0.772461
vt 2.275391 0.794434
vt 2.324219 0.804688
vt 2.375000 0.794434
vt 2.417969 0.766113
vt 2.445312 0.723633
vt 2.455078 0.673828
vt 2.232422 0.766113
vt 2.445312 0.623535
vt 2.203125 0.723633
vt 2.417969 0.581055
vt 2.193359 0.673828
vt 2.375000 0.552734
vt 2.203125 0.623535
vt 2.324219 0.542480
vt 2.232422 0.581055
vt 2.275391 0.552734
vt 2.289062 0.673828
vt 2.291016 0.687500
vt 2.291016 0.659668
vt 2.298828 0.647949
vt 2.298828 0.699219
vt 2.310547 0.640137
vt 2.324219 0.637695
vt 2.310547 0.707031
vt 2.337891 0.640137
vt 2.324219 0.709473
vt 2.349609 0.647949
vt 2.337891 0.707031
vt 2.357422 0.659668
vt 2.349609 0.699219
vt 2.361328 0.673828
vt 2.357422 0.687500
vt 1.196289 0.039154
vt 1.150391 0.072571
vt 1.150391 0.034637
vt 1.119141 0.063538
vt 1.067383 0.167114
vt 1.171875 0.154175
vt 1.236328 0.088074
vt 1.296875 0.193848
vt 1.221680 0.219360
vt 1.326172 0.232056
vt 1.071289 0.350342
vt 1.041992 0.338623
vt 1.062500 0.373291
vt 1.032227 0.395020
vt 1.069336 0.409668
vt 1.032227 0.407471
vt 1.066406 0.557617
vt 1.030273 0.555176
vt 1.027344 0.673828
vt 1.266602 0.282227
vt 1.067383 0.673828
vt 1.049805 0.787598
vt 1.319336 0.331787
vt 1.360352 0.264648
vt 1.086914 0.772461
vt 1.114258 0.884277
vt 1.366211 0.363281
vt 1.385742 0.302979
vt 1.142578 0.855957
vt 1.210938 0.948730
vt 1.437500 0.423096
vt 1.456055 0.383789
vt 1.226562 0.912109
vt 1.325195 0.971191
vt 1.509766 0.489258
vt 1.537109 0.461426
vt 1.325195 0.931641
vt 1.438477 0.948730
vt 1.563477 0.574707
vt 1.599609 0.559570
vt 1.423828 0.912109
vt 1.535156 0.884277
vt 1.583008 0.673828
vt 1.622070 0.673828
vt 1.506836 0.855957
vt 1.599609 0.787598
vt 1.563477 0.772461
vt 1.274414 0.794434
vt 1.325195 0.804688
vt 1.375000 0.794434
vt 1.416992 0.766113
vt 1.446289 0.723633
vt 1.456055 0.673828
vt 1.232422 0.766113
vt 1.446289 0.623535
vt 1.204102 0.723633
vt 1.416992 0.581055
vt 1.194336 0.673828
vt 1.375000 0.552734
vt 1.204102 0.623535
vt 1.325195 0.542480
vt 1.232422 0.581055
vt 1.274414 0.552734
vt 1.289062 0.673828
vt 1.291992 0.687500
vt 1.291992 0.659668
vt 1.299805 0.647949
vt 1.299805 0.699219
vt 1.311523 0.640137
vt 1.325195 0.637695
vt 1.311523 0.707031
vt 1.338867 0.640137
vt 1.325195 0.709473
vt 1.350586 0.647949
vt 1.338867 0.707031
vt 1.358398 0.659668
vt 1.350586 0.699219
vt 1.361328 0.673828
vt 1.358398 0.687500
vt 0.814453 0.095886
vt 0.868164 0.065002
vt 0.844238 0.061890
vt 0.897461 0.099976
vt 0.780273 0.148926
vt 0.921387 0.146118
vt 0.732422 0.215088
vt 0.939941 0.210693
vt 0.669434 0.295166
vt 0.948242 0.266357
vt 0.649414 0.443604
vt 0.955078 0.433594
vt 0.666504 0.605469
vt 0.937988 0.599609
vt 0.688477 0.770508
vt 0.917969 0.766113
vt 0.706055 0.851074
vt 0.900879 0.846191
vt 0.747559 0.922363
vt 0.864746 0.920898
vt 0.786621 0.950195
vt 0.825684 0.948242
vt 0.814453 0.095886
vt 0.844238 0.061890
vt 0.868164 0.065002
vt 0.897461 0.099976
vt 0.780273 0.148926
vt 0.921387 0.146118
vt 0.732422 0.215088
vt 0.939941 0.210693
vt 0.669434 0.295166
vt 0.948242 0.266357
vt 0.649414 0.443604
vt 0.955078 0.433594
vt 0.666504 0.605469
vt 0.937988 0.599609
vt 0.688477 0.770508
vt 0.917969 0.766113
vt 0.706055 0.851074
vt 0.900879 0.846191
vt 0.747559 0.922363
vt 0.864746 0.920898
vt 0.786621 0.950195
vt 0.825684 0.948242
vt 0.948242 0.266357
vt 0.939941 0.210693
vt 0.968262 0.190430
vt 0.979004 0.250488
vt 0.946289 0.120544
vt 0.955078 0.433594
vt 0.921387 0.146118
vt 0.986816 0.429199
vt 0.917480 0.070374
vt 0.937988 0.599609
vt 0.897461 0.099976
vt 0.968750 0.605957
vt 0.877930 0.031067
vt 0.917969 0.766113
vt 0.868164 0.065002
vt 0.946777 0.782715
vt 0.842773 0.028442
vt 0.900879 0.846191
vt 0.844238 0.061890
vt 0.928711 0.869629
vt 0.801270 0.065796
vt 0.864746 0.920898
vt 0.814453 0.095886
vt 0.883301 0.953125
vt 0.761230 0.121887
vt 0.825684 0.948242
vt 0.780273 0.148926
vt 0.833008 0.984375
vt 0.710449 0.191528
vt 0.786621 0.950195
vt 0.732422 0.215088
vt 0.780273 0.987793
vt 0.641602 0.278809
vt 0.747559 0.922363
vt 0.669434 0.295166
vt 0.729004 0.955566
vt 0.619141 0.440186
vt 0.706055 0.851074
vt 0.649414 0.443604
vt 0.679199 0.876465
vt 0.636230 0.613281
vt 0.688477 0.770508
vt 0.666504 0.605469
vt 0.659180 0.788574
vt 0.948242 0.266357
vt 0.968262 0.190430
vt 0.939941 0.210693
vt 0.979004 0.250488
vt 0.946289 0.120544
vt 0.955078 0.433594
vt 0.921387 0.146118
vt 0.986816 0.429199
vt 0.917480 0.070374
vt 0.937988 0.599609
vt 0.897461 0.099976
vt 0.968750 0.605957
vt 0.877930 0.031067
vt 0.917969 0.766113
vt 0.868164 0.065002
vt 0.946777 0.782715
vt 0.842773 0.028442
vt 0.900879 0.846191
vt 0.844238 0.061890
vt 0.928711 0.869629
vt 0.801270 0.065796
vt 0.864746 0.920898
vt 0.814453 0.095886
vt 0.883301 0.953125
vt 0.761230 0.121887
vt 0.825684 0.948242
vt 0.780273 0.148926
vt 0.833008 0.984375
vt 0.710449 0.191528
vt 0.786621 0.950195
vt 0.732422 0.215088
vt 0.780273 0.987793
vt 0.641602 0.278809
vt 0.747559 0.922363
vt 0.669434 0.295166
vt 0.729004 0.955566
vt 0.619141 0.440186
vt 0.706055 0.851074
vt 0.649414 0.443604
vt 0.679199 0.876465
vt 0.636230 0.613281
vt 0.688477 0.770508
vt 0.666504 0.605469
vt 0.659180 0.788574
vt 0.391602 0.169312
vt 0.431885 0.254883
vt 0.462158 0.224243
vt 0.439453 0.169434
vt 0.517090 0.169434
vt 0.428223 0.080750
vt 0.517090 0.246826
vt 0.517090 0.294678
vt 0.462158 0.114624
vt 0.517090 0.044006
vt 0.571777 0.224243
vt 0.605469 0.258057
vt 0.517090 0.091919
vt 0.605469 0.080750
vt 0.594238 0.169434
vt 0.642578 0.169434
vt 0.571777 0.114624
vn 0.45874 -0.75537 -0.46802
vn -0.20032 -0.66992 -0.71484
vn -0.05344 -0.90723 -0.41675
vn -0.73682 -0.49438 -0.46094
vn -0.77344 -0.53955 -0.33252
vn 0.33081 -0.94141 -0.06384
vn 0.66016 -0.73877 -0.13599
vn 0.62646 -0.77246 -0.10309
vn 0.34009 -0.93896 -0.05624
vn 0.51221 -0.81689 -0.26587
vn -0.46802 -0.87061 -0.15125
vn -0.81201 -0.52002 -0.26489
vn -0.54932 -0.83398 -0.05194
vn -0.83887 -0.54443 -0.00080
vn -0.43164 -0.90186 0.02563
vn -0.81104 -0.58252 0.05338
vn -0.44751 -0.89404 -0.00613
vn -0.79785 -0.60254 -0.01099
vn -0.78467 -0.61572 0.06940
vn 0.18042 -0.97656 -0.11810
vn -0.45752 -0.88818 0.04401
vn -0.72119 -0.62500 0.29883
vn 0.14844 -0.95312 -0.26294
vn 0.30786 -0.78613 -0.53564
vn -0.43872 -0.87988 0.18176
vn -0.55176 -0.62500 0.55176
vn 0.11743 -0.92383 -0.36401
vn 0.22778 -0.70605 -0.67041
vn -0.33594 -0.87988 0.33594
vn -0.29883 -0.62500 0.72119
vn 0.18713 -0.88574 -0.42480
vn 0.30713 -0.64258 -0.70166
vn -0.18176 -0.87988 0.43872
vn 0.00000 -0.62500 0.78076
vn 0.33594 -0.87988 -0.33594
vn 0.55176 -0.62500 -0.55176
vn 0.00000 -0.87988 0.47485
vn 0.29883 -0.62500 0.72119
vn 0.43872 -0.87988 -0.18176
vn 0.72119 -0.62500 -0.29883
vn 0.18176 -0.87988 0.43872
vn 0.55176 -0.62500 0.55176
vn 0.47485 -0.87988 -0.00000
vn 0.78076 -0.62500 -0.00000
vn 0.33594 -0.87988 0.33594
vn 0.72119 -0.62500 0.29883
vn 0.43872 -0.87988 0.18176
vn 0.14368 -0.92676 -0.34668
vn 0.00000 -0.92676 -0.37524
vn -0.14368 -0.92676 -0.34668
vn -0.26538 -0.92676 -0.26538
vn -0.34668 -0.92676 -0.14368
vn -0.37524 -0.92676 -0.00000
vn 0.26538 -0.92676 -0.26538
vn -0.34668 -0.92676 0.14368
vn 0.34668 -0.92676 -0.14368
vn -0.26538 -0.92676 0.26538
vn 0.37524 -0.92676 -0.00000
vn -0.14368 -0.92676 0.34668
vn 0.34668 -0.92676 0.14368
vn 0.00000 -0.92676 0.37524
vn 0.26538 -0.92676 0.26538
vn 0.14368 -0.92676 0.34668
vn 1.00000 0.00000 -0.00000
vn 0.92383 0.00000 -0.38257
vn 0.92383 0.00000 0.38257
vn 0.70703 0.00000 0.70703
vn 0.70703 0.00000 -0.70703
vn 0.38257 0.00000 0.92383
vn 0.00000 0.00000 1.00000
vn 0.38257 0.00000 -0.92383
vn -0.38257 0.00000 0.92383
vn 0.00000 -0.00000 -1.00000
vn -0.70703 0.00000 0.70703
vn -0.38257 0.00000 -0.92383
vn -0.92383 0.00000 0.38257
vn -0.70703 0.00000 -0.70703
vn -1.00000 0.00000 0.00000
vn -0.92383 0.00000 -0.38257
vn 0.45874 0.75537 -0.46802
vn -0.05344 0.90723 -0.41675
vn -0.20032 0.66992 -0.71484
vn -0.73682 0.49438 -0.46094
vn -0.77344 0.53955 -0.33252
vn 0.33081 0.94141 -0.06384
vn 0.66016 0.73877 -0.13599
vn 0.62646 0.77246 -0.10309
vn 0.34009 0.93896 -0.05624
vn 0.51221 0.81689 -0.26587
vn -0.46802 0.87061 -0.15125
vn -0.81201 0.52002 -0.26489
vn -0.54932 0.83398 -0.05194
vn -0.83887 0.54443 -0.00080
vn -0.43164 0.90186 0.02563
vn -0.81104 0.58252 0.05338
vn -0.44751 0.89404 -0.00613
vn -0.79785 0.60254 -0.01099
vn -0.78467 0.61572 0.06940
vn 0.18042 0.97656 -0.11810
vn -0.45752 0.88818 0.04401
vn -0.72119 0.62500 0.29883
vn 0.14844 0.95312 -0.26294
vn 0.30786 0.78613 -0.53564
vn -0.43872 0.87988 0.18176
vn -0.55176 0.62500 0.55176
vn 0.11743 0.92383 -0.36401
vn 0.22778 0.70605 -0.67041
vn -0.33594 0.87988 0.33594
vn -0.29883 0.62500 0.72119
vn 0.18713 0.88574 -0.42480
vn 0.30713 0.64258 -0.70166
vn -0.18176 0.87988 0.43872
vn 0.00000 0.62500 0.78076
vn 0.33594 0.87988 -0.33594
vn 0.55176 0.62500 -0.55176
vn 0.00000 0.87988 0.47485
vn 0.29883 0.62500 0.72119
vn 0.43872 0.87988 -0.18176
vn 0.72119 0.62500 -0.29883
vn 0.18176 0.87988 0.43872
vn 0.55176 0.62500 0.55176
vn 0.47485 0.87988 -0.00000
vn 0.78076 0.62500 -0.00000
vn 0.33594 0.87988 0.33594
vn 0.72119 0.62500 0.29883
vn 0.43872 0.87988 0.18176
vn 0.14368 0.92676 -0.34668
vn 0.00000 0.92676 -0.37524
vn -0.14368 0.92676 -0.34668
vn -0.26538 0.92676 -0.26538
vn -0.34668 0.92676 -0.14368
vn -0.37524 0.92676 -0.00000
vn 0.26538 0.92676 -0.26538
vn -0.34668 0.92676 0.14368
vn 0.34668 0.92676 -0.14368
vn -0.26538 0.92676 0.26538
vn 0.37524 0.92676 -0.00000
vn -0.14368 0.92676 0.34668
vn 0.34668 0.92676 0.14368
vn 0.00000 0.92676 0.37524
vn 0.26538 0.92676 0.26538
vn 0.14368 0.92676 0.34668
vn 1.00000 0.00000 -0.00000
vn 0.92383 0.00000 -0.38257
vn 0.92383 0.00000 0.38257
vn 0.70703 0.00000 0.70703
vn 0.70703 0.00000 -0.70703
vn 0.38257 0.00000 0.92383
vn 0.00000 0.00000 1.00000
vn 0.38257 0.00000 -0.92383
vn -0.38257 0.00000 0.92383
vn 0.00000 -0.00000 -1.00000
vn -0.70703 0.00000 0.70703
vn -0.38257 0.00000 -0.92383
vn -0.92383 0.00000 0.38257
vn -0.70703 0.00000 -0.70703
vn -1.00000 0.00000 0.00000
vn -0.92383 0.00000 -0.38257
vn 0.00417 0.99951 0.03491
vn 0.00543 0.99951 0.03607
vn 0.00543 0.99951 0.03607
vn 0.00407 0.99951 0.03482
vn 0.00185 1.00000 0.01996
vn 0.00193 1.00000 0.02075
vn 0.00065 1.00000 0.01112
vn 0.00069 1.00000 0.01110
vn 0.00017 1.00000 0.00395
vn 0.00024 1.00000 0.00569
vn 0.00000 1.00000 -0.00000
vn 0.00000 1.00000 -0.00000
vn 0.00000 1.00000 -0.00000
vn 0.00000 1.00000 -0.00000
vn 0.00000 1.00000 -0.00000
vn 0.00000 1.00000 -0.00000
vn 0.00000 1.00000 -0.01025
vn 0.00000 1.00000 -0.01025
vn 0.00000 0.99951 -0.02327
vn 0.00000 0.99951 -0.02327
vn 0.00000 0.99951 -0.02414
vn 0.00000 0.99951 -0.02414
vn 0.00417 -0.99951 0.03491
vn 0.00543 -0.99951 0.03607
vn 0.00543 -0.99951 0.03607
vn 0.00407 -0.99951 0.03482
vn 0.00185 -1.00000 0.01996
vn 0.00193 -1.00000 0.02075
vn 0.00065 -1.00000 0.01112
vn 0.00069 -1.00000 0.01110
vn 0.00017 -1.00000 0.00395
vn 0.00024 -1.00000 0.00569
vn 0.00000 -1.00000 -0.00000
vn 0.00000 -1.00000 -0.00000
vn 0.00000 -1.00000 -0.00000
vn 0.00000 -1.00000 -0.00000
vn 0.00000 -1.00000 -0.00000
vn 0.00000 -1.00000 -0.00000
vn 0.00000 -1.00000 -0.01025
vn 0.00000 -1.00000 -0.01025
vn 0.00000 -0.99951 -0.02327
vn 0.00000 -0.99951 -0.02327
vn 0.00000 -0.99951 -0.02414
vn 0.00000 -0.99951 -0.02414
vn 0.99951 0.00000 -0.02556
vn 0.99902 0.00000 0.03909
vn 0.99902 0.00000 0.03949
vn 0.99951 0.00000 -0.02551
vn 0.98682 0.00000 0.16296
vn 0.99805 0.00000 -0.06094
vn 0.98682 0.00000 0.16199
vn 0.99805 0.00000 -0.06094
vn 0.97266 0.00000 0.23218
vn 0.99707 0.00000 -0.07422
vn 0.97266 0.00000 0.23218
vn 0.99707 0.00000 -0.07422
vn 0.68262 0.00000 0.73096
vn 0.99805 0.00000 -0.06519
vn 0.68799 0.00000 0.72607
vn 0.99805 0.00000 -0.06519
vn -0.47925 0.00000 0.87744
vn 0.98877 0.00000 -0.15088
vn -0.48682 0.00000 0.87354
vn 0.98828 0.00000 -0.15149
vn -0.92676 0.00000 0.37524
vn 0.89453 0.00000 -0.44702
vn -0.92725 0.00000 0.37476
vn 0.89307 0.00000 -0.44971
vn -0.91113 0.00000 0.41235
vn 0.42627 0.00000 -0.90479
vn -0.91064 0.00000 0.41309
vn 0.42383 0.00000 -0.90576
vn -0.82910 0.00000 0.55908
vn -0.42627 0.00000 -0.90479
vn -0.82861 0.00000 0.56006
vn -0.42383 0.00000 -0.90576
vn -0.93457 0.00000 0.35547
vn -0.89453 0.00000 -0.44702
vn -0.93506 0.00000 0.35474
vn -0.89307 0.00000 -0.44971
vn -0.99951 0.00000 -0.02959
vn -0.98877 0.00000 -0.15088
vn -0.99951 0.00000 -0.02959
vn -0.98828 0.00000 -0.15149
vn -0.99707 0.00000 -0.07422
vn -0.99805 0.00000 -0.06519
vn -0.99707 0.00000 -0.07422
vn -0.99805 0.00000 -0.06519
vn 0.99951 0.00000 -0.02556
vn 0.99902 0.00000 0.03949
vn 0.99902 0.00000 0.03909
vn 0.99951 0.00000 -0.02551
vn 0.98682 0.00000 0.16296
vn 0.99805 0.00000 -0.06094
vn 0.98682 0.00000 0.16199
vn 0.99805 0.00000 -0.06094
vn 0.97266 0.00000 0.23218
vn 0.99707 0.00000 -0.07422
vn 0.97266 0.00000 0.23218
vn 0.99707 0.00000 -0.07422
vn 0.68262 0.00000 0.73096
vn 0.99805 0.00000 -0.06519
vn 0.68799 0.00000 0.72607
vn 0.99805 0.00000 -0.06519
vn -0.47925 0.00000 0.87744
vn 0.98877 0.00000 -0.15088
vn -0.48682 0.00000 0.87354
vn 0.98828 0.00000 -0.15149
vn -0.92676 0.00000 0.37524
vn 0.89453 0.00000 -0.44702
vn -0.92725 0.00000 0.37476
vn 0.89307 0.00000 -0.44971
vn -0.91113 0.00000 0.41235
vn 0.42627 0.00000 -0.90479
vn -0.91064 0.00000 0.41309
vn 0.42383 0.00000 -0.90576
vn -0.82910 0.00000 0.55908
vn -0.42627 0.00000 -0.90479
vn -0.82861 0.00000 0.56006
vn -0.42383 0.00000 -0.90576
vn -0.93457 0.00000 0.35547
vn -0.89453 0.00000 -0.44702
vn -0.93506 0.00000 0.35474
vn -0.89307 0.00000 -0.44971
vn -0.99951 0.00000 -0.02959
vn -0.98877 0.00000 -0.15088
vn -0.99951 0.00000 -0.02959
vn -0.98828 0.00000 -0.15149
vn -0.99707 0.00000 -0.07422
vn -0.99805 0.00000 -0.06519
vn -0.99707 0.00000 -0.07422
vn -0.99805 0.00000 -0.06519
vn 0.80908 0.58789 -0.00000
vn 0.57227 0.58789 0.57227
vn 0.44800 0.77344 0.44800
vn 0.63379 0.77344 -0.00000
vn 0.00000 1.00000 -0.00000
vn 0.57227 0.58789 -0.57227
vn 0.00000 0.77344 0.63379
vn 0.00000 0.58789 0.80908
vn 0.44800 0.77344 -0.44800
vn 0.00000 0.58789 -0.80908
vn -0.44800 0.77344 0.44800
vn -0.57227 0.58789 0.57227
vn 0.00000 0.77344 -0.63379
vn -0.57227 0.58789 -0.57227
vn -0.63379 0.77344 -0.00000
vn -0.80908 0.58789 -0.00000
vn -0.44800 0.77344 -0.44800
g Scissor_01_sub0
usemtl Scissors_Handle
f 1/1/1 3/3/3 2/2/2
f 2/2/2 3/3/3 4/4/4
f 4/4/4 3/3/3 5/5/5
f 6/6/6 3/3/3 1/1/1
f 6/6/6 1/1/1 7/7/7
f 8/8/8 6/6/6 7/7/7
f 8/8/8 9/9/9 6/6/6
f 10/10/10 9/9/9 8/8/8
f 5/5/5 3/3/3 11/11/11
f 11/11/11 3/3/3 6/6/6
f 9/9/9 11/11/11 6/6/6
f 5/5/5 11/11/11 12/12/12
f 13/13/13 12/12/12 11/11/11
f 9/9/9 13/13/13 11/11/11
f 13/13/13 14/14/14 12/12/12
f 15/15/15 14/14/14 13/13/13
f 15/15/15 13/13/13 9/9/9
f 15/15/15 16/16/16 14/14/14
f 17/17/17 16/16/16 15/15/15
f 17/17/17 15/15/15 9/9/9
f 17/17/17 18/18/18 16/16/16
f 19/19/19 18/18/18 17/17/17
f 10/10/10 20/20/20 9/9/9
f 17/17/17 9/9/9 20/20/20
f 19/19/19 17/17/17 21/21/21
f 22/22/22 19/19/19 21/21/21
f 10/10/10 23/23/23 20/20/20
f 10/10/10 24/24/24 23/23/23
f 22/22/22 21/21/21 25/25/25
f 26/26/26 22/22/22 25/25/25
f 24/24/24 27/27/27 23/23/23
f 24/24/24 28/28/28 27/27/27
f 26/26/26 25/25/25 29/29/29
f 30/30/30 26/26/26 29/29/29
f 28/28/28 31/31/31 27/27/27
f 28/28/28 32/32/32 31/31/31
f 30/30/30 29/29/29 33/33/33
f 34/34/34 30/30/30 33/33/33
f 32/32/32 35/35/35 31/31/31
f 32/32/32 36/36/36 35/35/35
f 34/34/34 33/33/33 37/37/37
f 38/38/38 34/34/34 37/37/37
f 36/36/36 39/39/39 35/35/35
f 36/36/36 40/40/40 39/39/39
f 38/38/38 37/37/37 41/41/41
f 42/42/42 38/38/38 41/41/41
f 40/40/40 43/43/43 39/39/39
f 40/40/40 44/44/44 43/43/43
f 42/42/42 41/41/41 45/45/45
f 46/46/46 42/42/42 45/45/45
f 44/44/44 46/46/46 47/47/47
f 44/44/44 47/47/47 43/43/43
f 46/46/46 45/45/45 47/47/47
f 37/37/37 33/33/33 48/48/48
f 41/41/41 37/37/37 49/49/49
f 37/37/37 48/48/48 49/49/49
f 45/45/45 41/41/41 50/50/50
f 41/41/41 49/49/49 50/50/50
f 47/47/47 45/45/45 51/51/51
f 45/45/45 50/50/50 51/51/51
f 43/43/43 47/47/47 52/52/52
f 47/47/47 51/51/51 52/52/52
f 39/39/39 43/43/43 53/53/53
f 43/43/43 52/52/52 53/53/53
f 33/33/33 54/54/54 48/48/48
f 33/33/33 29/29/29 54/54/54
f 39/39/39 53/53/53 55/55/55
f 35/35/35 39/39/39 55/55/55
f 29/29/29 56/56/56 54/54/54
f 29/29/29 25/25/25 56/56/56
f 35/35/35 55/55/55 57/57/57
f 31/31/31 35/35/35 57/57/57
f 25/25/25 58/58/58 56/56/56
f 25/25/25 21/21/21 58/58/58
f 31/31/31 57/57/57 59/59/59
f 27/27/27 31/31/31 59/59/59
f 21/21/21 60/60/60 58/58/58
f 21/21/21 17/17/17 60/60/60
f 27/27/27 59/59/59 61/61/61
f 23/23/23 27/27/27 61/61/61
f 17/17/17 62/62/62 60/60/60
f 17/17/17 20/20/20 62/62/62
f 20/20/20 23/23/23 63/63/63
f 23/23/23 61/61/61 63/63/63
f 20/20/20 63/63/63 62/62/62
f 56/56/56 58/58/58 64/64/64
f 56/56/56 64/64/64 65/65/65
f 58/58/58 66/66/66 64/64/64
f 58/58/58 60/60/60 66/66/66
f 54/54/54 56/56/56 65/65/65
f 60/60/60 67/67/67 66/66/66
f 60/60/60 62/62/62 67/67/67
f 54/54/54 65/65/65 68/68/68
f 62/62/62 69/69/69 67/67/67
f 62/62/62 63/63/63 69/69/69
f 48/48/48 54/54/54 68/68/68
f 63/63/63 70/70/70 69/69/69
f 63/63/63 61/61/61 70/70/70
f 48/48/48 68/68/68 71/71/71
f 61/61/61 72/72/72 70/70/70
f 49/49/49 48/48/48 71/71/71
f 61/61/61 59/59/59 72/72/72
f 49/49/49 71/71/71 73/73/73
f 59/59/59 74/74/74 72/72/72
f 50/50/50 49/49/49 73/73/73
f 59/59/59 57/57/57 74/74/74
f 50/50/50 73/73/73 75/75/75
f 57/57/57 76/76/76 74/74/74
f 51/51/51 50/50/50 75/75/75
f 57/57/57 55/55/55 76/76/76
f 51/51/51 75/75/75 77/77/77
f 55/55/55 78/78/78 76/76/76
f 52/52/52 51/51/51 77/77/77
f 55/55/55 53/53/53 78/78/78
f 52/52/52 77/77/77 79/79/79
f 53/53/53 79/79/79 78/78/78
f 53/53/53 52/52/52 79/79/79
f 80/80/80 82/82/82 81/81/81
f 82/82/82 83/83/83 81/81/81
f 83/83/83 84/84/84 81/81/81
f 85/85/85 80/80/80 81/81/81
f 85/85/85 86/86/86 80/80/80
f 87/87/87 86/86/86 85/85/85
f 87/87/87 85/85/85 88/88/88
f 89/89/89 87/87/87 88/88/88
f 84/84/84 90/90/90 81/81/81
f 90/90/90 85/85/85 81/81/81
f 88/88/88 85/85/85 90/90/90
f 84/84/84 91/91/91 90/90/90
f 92/92/92 90/90/90 91/91/91
f 88/88/88 90/90/90 92/92/92
f 92/92/92 91/91/91 93/93/93
f 94/94/94 92/92/92 93/93/93
f 94/94/94 88/88/88 92/92/92
f 94/94/94 93/93/93 95/95/95
f 96/96/96 94/94/94 95/95/95
f 96/96/96 88/88/88 94/94/94
f 96/96/96 95/95/95 97/97/97
f 98/98/98 96/96/96 97/97/97
f 89/89/89 88/88/88 99/99/99
f 96/96/96 99/99/99 88/88/88
f 98/98/98 100/100/100 96/96/96
f 101/101/101 100/100/100 98/98/98
f 89/89/89 99/99/99 102/102/102
f 89/89/89 102/102/102 103/103/103
f 101/101/101 104/104/104 100/100/100
f 105/105/105 104/104/104 101/101/101
f 103/103/103 102/102/102 106/106/106
f 103/103/103 106/106/106 107/107/107
f 105/105/105 108/108/108 104/104/104
f 109/109/109 108/108/108 105/105/105
f 107/107/107 106/106/106 110/110/110
f 107/107/107 110/110/110 111/111/111
f 109/109/109 112/112/112 108/108/108
f 113/113/113 112/112/112 109/109/109
f 111/111/111 110/110/110 114/114/114
f 111/111/111 114/114/114 115/115/115
f 113/113/113 116/116/116 112/112/112
f 117/117/117 116/116/116 113/113/113
f 115/115/115 114/114/114 118/118/118
f 115/115/115 118/118/118 119/119/119
f 117/117/117 120/120/120 116/116/116
f 121/121/121 120/120/120 117/117/117
f 119/119/119 118/118/118 122/122/122
f 119/119/119 122/122/122 123/123/123
f 121/121/121 124/124/124 120/120/120
f 125/125/125 124/124/124 121/121/121
f 123/123/123 126/126/126 125/125/125
f 123/123/123 122/122/122 126/126/126
f 125/125/125 126/126/126 124/124/124
f 116/116/116 127/127/127 112/112/112
f 120/120/120 128/128/128 116/116/116
f 116/116/116 128/128/128 127/127/127
f 124/124/124 129/129/129 120/120/120
f 120/120/120 129/129/129 128/128/128
f 126/126/126 130/130/130 124/124/124
f 124/124/124 130/130/130 129/129/129
f 122/122/122 131/131/131 126/126/126
f 126/126/126 131/131/131 130/130/130
f 118/118/118 132/132/132 122/122/122
f 122/122/122 132/132/132 131/131/131
f 112/112/112 127/127/127 133/133/133
f 112/112/112 133/133/133 108/108/108
f 118/118/118 134/134/134 132/132/132
f 114/114/114 134/134/134 118/118/118
f 108/108/108 133/133/133 135/135/135
f 108/108/108 135/135/135 104/104/104
f 114/114/114 136/136/136 134/134/134
f 110/110/110 136/136/136 114/114/114
f 104/104/104 135/135/135 137/137/137
f 104/104/104 137/137/137 100/100/100
f 110/110/110 138/138/138 136/136/136
f 106/106/106 138/138/138 110/110/110
f 100/100/100 137/137/137 139/139/139
f 100/100/100 139/139/139 96/96/96
f 106/106/106 140/140/140 138/138/138
f 102/102/102 140/140/140 106/106/106
f 96/96/96 139/139/139 141/141/141
f 96/96/96 141/141/141 99/99/99
f 99/99/99 142/142/142 102/102/102
f 102/102/102 142/142/142 140/140/140
f 99/99/99 141/141/141 142/142/142
f 135/135/135 143/143/143 137/137/137
f 135/135/135 144/144/144 143/143/143
f 137/137/137 143/143/143 145/145/145
f 137/137/137 145/145/145 139/139/139
f 133/133/133 144/144/144 135/135/135
f 139/139/139 145/145/145 146/146/146
f 139/139/139 146/146/146 141/141/141
f 133/133/133 147/147/147 144/144/144
f 141/141/141 146/146/146 148/148/148
f 141/141/141 148/148/148 142/142/142
f 127/127/127 147/147/147 133/133/133
f 142/142/142 148/148/148 149/149/149
f 142/142/142 149/149/149 140/140/140
f 127/127/127 150/150/150 147/147/147
f 140/140/140 149/149/149 151/151/151
f 128/128/128 150/150/150 127/127/127
f 140/140/140 151/151/151 138/138/138
f 128/128/128 152/152/152 150/150/150
f 138/138/138 151/151/151 153/153/153
f 129/129/129 152/152/152 128/128/128
f 138/138/138 153/153/153 136/136/136
f 129/129/129 154/154/154 152/152/152
f 136/136/136 153/153/153 155/155/155
f 130/130/130 154/154/154 129/129/129
f 136/136/136 155/155/155 134/134/134
f 130/130/130 156/156/156 154/154/154
f 134/134/134 155/155/155 157/157/157
f 131/131/131 156/156/156 130/130/130
f 134/134/134 157/157/157 132/132/132
f 131/131/131 158/158/158 156/156/156
f 132/132/132 158/158/158 131/131/131
f 132/132/132 157/157/157 158/158/158
g Scissor_01_sub1
usemtl Scissors_Blade
f 159/159/159 161/161/161 160/160/160
f 159/159/159 160/160/160 162/162/162
f 163/163/163 159/159/159 162/162/162
f 163/163/163 162/162/162 164/164/164
f 165/165/165 163/163/163 164/164/164
f 165/165/165 164/164/164 166/166/166
f 167/167/167 165/165/165 166/166/166
f 167/167/167 166/166/166 168/168/168
f 169/169/169 167/167/167 168/168/168
f 169/169/169 168/168/168 170/170/170
f 171/171/171 169/169/169 170/170/170
f 171/171/171 170/170/170 172/172/172
f 173/173/173 171/171/171 172/172/172
f 173/173/173 172/172/172 174/174/174
f 175/175/175 173/173/173 174/174/174
f 175/175/175 174/174/174 176/176/176
f 177/177/177 175/175/175 176/176/176
f 177/177/177 176/176/176 178/178/178
f 178/178/178 179/179/179 177/177/177
f 178/178/178 180/180/180 179/179/179
f 181/181/181 183/183/183 182/182/182
f 181/181/181 184/184/184 183/183/183
f 185/185/185 184/184/184 181/181/181
f 185/185/185 186/186/186 184/184/184
f 187/187/187 186/186/186 185/185/185
f 187/187/187 188/188/188 186/186/186
f 189/189/189 188/188/188 187/187/187
f 189/189/189 190/190/190 188/188/188
f 191/191/191 190/190/190 189/189/189
f 191/191/191 192/192/192 190/190/190
f 193/193/193 192/192/192 191/191/191
f 193/193/193 194/194/194 192/192/192
f 195/195/195 194/194/194 193/193/193
f 195/195/195 196/196/196 194/194/194
f 197/197/197 196/196/196 195/195/195
f 197/197/197 198/198/198 196/196/196
f 199/199/199 198/198/198 197/197/197
f 199/199/199 200/200/200 198/198/198
f 200/200/200 199/199/199 201/201/201
f 200/200/200 201/201/201 202/202/202
f 203/203/203 205/205/205 204/204/204
f 203/203/203 206/206/206 205/205/205
f 204/204/204 205/205/205 207/207/207
f 206/206/206 203/203/203 208/208/208
f 204/204/204 207/207/207 209/209/209
f 206/206/206 208/208/208 210/210/210
f 209/209/209 207/207/207 211/211/211
f 210/210/210 208/208/208 212/212/212
f 209/209/209 211/211/211 213/213/213
f 210/210/210 212/212/212 214/214/214
f 213/213/213 211/211/211 215/215/215
f 214/214/214 212/212/212 216/216/216
f 213/213/213 215/215/215 217/217/217
f 214/214/214 216/216/216 218/218/218
f 219/219/219 217/217/217 215/215/215
f 218/218/218 216/216/216 220/220/220
f 219/219/219 221/221/221 217/217/217
f 218/218/218 220/220/220 222/222/222
f 223/223/223 221/221/221 219/219/219
f 222/222/222 220/220/220 224/224/224
f 223/223/223 225/225/225 221/221/221
f 222/222/222 224/224/224 226/226/226
f 227/227/227 225/225/225 223/223/223
f 226/226/226 224/224/224 228/228/228
f 227/227/227 229/229/229 225/225/225
f 226/226/226 228/228/228 230/230/230
f 231/231/231 229/229/229 227/227/227
f 230/230/230 228/228/228 232/232/232
f 231/231/231 233/233/233 229/229/229
f 230/230/230 232/232/232 234/234/234
f 235/235/235 233/233/233 231/231/231
f 236/236/236 234/234/234 232/232/232
f 235/235/235 237/237/237 233/233/233
f 236/236/236 238/238/238 234/234/234
f 239/239/239 237/237/237 235/235/235
f 238/238/238 236/236/236 240/240/240
f 239/239/239 241/241/241 237/237/237
f 238/238/238 240/240/240 242/242/242
f 243/243/243 241/241/241 239/239/239
f 242/242/242 240/240/240 244/244/244
f 243/243/243 245/245/245 241/241/241
f 242/242/242 244/244/244 246/246/246
f 246/246/246 245/245/245 243/243/243
f 246/246/246 244/244/244 245/245/245
f 247/247/247 249/249/249 248/248/248
f 247/247/247 248/248/248 250/250/250
f 249/249/249 251/251/251 248/248/248
f 250/250/250 252/252/252 247/247/247
f 249/249/249 253/253/253 251/251/251
f 250/250/250 254/254/254 252/252/252
f 253/253/253 255/255/255 251/251/251
f 254/254/254 256/256/256 252/252/252
f 253/253/253 257/257/257 255/255/255
f 254/254/254 258/258/258 256/256/256
f 257/257/257 259/259/259 255/255/255
f 258/258/258 260/260/260 256/256/256
f 257/257/257 261/261/261 259/259/259
f 258/258/258 262/262/262 260/260/260
f 263/263/263 259/259/259 261/261/261
f 262/262/262 264/264/264 260/260/260
f 263/263/263 261/261/261 265/265/265
f 262/262/262 266/266/266 264/264/264
f 267/267/267 263/263/263 265/265/265
f 266/266/266 268/268/268 264/264/264
f 267/267/267 265/265/265 269/269/269
f 266/266/266 270/270/270 268/268/268
f 271/271/271 267/267/267 269/269/269
f 270/270/270 272/272/272 268/268/268
f 271/271/271 269/269/269 273/273/273
f 270/270/270 274/274/274 272/272/272
f 275/275/275 271/271/271 273/273/273
f 274/274/274 276/276/276 272/272/272
f 275/275/275 273/273/273 277/277/277
f 274/274/274 278/278/278 276/276/276
f 279/279/279 275/275/275 277/277/277
f 280/280/280 276/276/276 278/278/278
f 279/279/279 277/277/277 281/281/281
f 280/280/280 278/278/278 282/282/282
f 283/283/283 279/279/279 281/281/281
f 282/282/282 284/284/284 280/280/280
f 283/283/283 281/281/281 285/285/285
f 282/282/282 286/286/286 284/284/284
f 287/287/287 283/283/283 285/285/285
f 286/286/286 288/288/288 284/284/284
f 287/287/287 285/285/285 289/289/289
f 286/286/286 290/290/290 288/288/288
f 290/290/290 287/287/287 289/289/289
f 290/290/290 289/289/289 288/288/288
f 291/291/291 293/293/293 292/292/292
f 291/291/291 294/294/294 293/293/293
f 294/294/294 295/295/295 293/293/293
f 296/296/296 294/294/294 291/291/291
f 292/292/292 293/293/293 297/297/297
f 293/293/293 295/295/295 297/297/297
f 292/292/292 297/297/297 298/298/298
f 296/296/296 299/299/299 294/294/294
f 299/299/299 295/295/295 294/294/294
f 300/300/300 299/299/299 296/296/296
f 298/298/298 297/297/297 301/301/301
f 297/297/297 295/295/295 301/301/301
f 298/298/298 301/301/301 302/302/302
f 300/300/300 303/303/303 299/299/299
f 303/303/303 295/295/295 299/299/299
f 304/304/304 303/303/303 300/300/300
f 302/302/302 301/301/301 305/305/305
f 301/301/301 295/295/295 305/305/305
f 302/302/302 305/305/305 306/306/306
f 306/306/306 307/307/307 304/304/304
f 304/304/304 307/307/307 303/303/303
f 307/307/307 295/295/295 303/303/303
f 306/306/306 305/305/305 307/307/307
f 305/305/305 295/295/295 307/307/307
