# StationaryBlock_BottomLeft - exported from Blocked In (Unity mesh, z negated to right-handed)
mtllib StationaryBlock_BottomLeft.mtl
o StationaryBlock_BottomLeft
v 0.016105 0.008082 -0.012532
v 0.016105 -0.151207 -0.012532
v -0.013939 -0.151207 -0.042577
v -0.013939 0.008082 -0.042577
v -0.020820 -0.151207 -0.059187
v -0.020820 0.008082 -0.059187
v -0.020820 -0.151207 -0.267235
v -0.020820 0.008082 -0.267235
v -0.013440 -0.151207 -0.288081
v -0.013440 0.008082 -0.288081
v 0.007407 -0.151207 -0.295461
v 0.007407 0.008082 -0.295461
v 0.129009 -0.151207 -0.295461
v 0.129009 0.008082 -0.295461
v 0.143382 -0.151207 -0.288313
v 0.143382 0.008082 -0.288313
v 0.151895 -0.151207 -0.275839
v 0.151895 0.008082 -0.275839
v 0.160238 -0.151207 -0.251348
v 0.160238 0.008082 -0.251348
v 0.176875 -0.151207 -0.223623
v 0.176875 0.008082 -0.223623
v 0.199771 -0.151207 -0.196198
v 0.199771 0.008082 -0.196198
v 0.227196 0.008082 -0.173302
v 0.227196 -0.151207 -0.173302
v 0.254921 0.008082 -0.156665
v 0.254921 -0.151207 -0.156665
v 0.279412 0.008082 -0.148322
v 0.279412 -0.151207 -0.148322
v 0.291886 0.008082 -0.139809
v 0.291886 -0.151207 -0.139809
v 0.299034 0.008082 -0.125436
v 0.299034 -0.151207 -0.125436
v 0.299034 0.008082 -0.003834
v 0.299034 -0.151207 -0.003834
v 0.291655 0.008082 0.017013
v 0.291655 -0.151207 0.017013
v 0.270808 0.008082 0.024393
v 0.270808 -0.151207 0.024393
v 0.062760 0.008082 0.024393
v 0.062760 -0.151207 0.024393
v 0.046150 0.008082 0.017513
v 0.046150 -0.151207 0.017513
v 0.016105 0.008082 -0.012532
v 0.016105 -0.151207 -0.012532
v 0.046150 -0.151207 0.017513
v 0.062760 -0.151207 0.024393
v 0.270808 -0.151207 0.024393
v 0.291655 -0.151207 0.017013
v 0.016105 -0.151207 -0.012532
v 0.299034 -0.151207 -0.003834
v 0.299034 -0.151207 -0.125436
v -0.013939 -0.151207 -0.042577
v -0.020820 -0.151207 -0.059187
v -0.020820 -0.151207 -0.267235
v 0.291886 -0.151207 -0.139809
v 0.254921 -0.151207 -0.156665
v 0.279412 -0.151207 -0.148322
v 0.227196 -0.151207 -0.173302
v 0.199771 -0.151207 -0.196198
v 0.176875 -0.151207 -0.223623
v 0.160238 -0.151207 -0.251348
v 0.151895 -0.151207 -0.275839
v -0.013440 -0.151207 -0.288081
v 0.143382 -0.151207 -0.288313
v 0.007407 -0.151207 -0.295461
v 0.129009 -0.151207 -0.295461
v 0.073244 0.028980 -0.020127
v 0.062760 0.008082 0.024393
v 0.046150 0.008082 0.017513
v 0.047836 0.028980 -0.044263
v 0.016105 0.008082 -0.012532
v 0.270808 0.008082 0.024393
v 0.254978 0.028980 -0.020127
v 0.291655 0.008082 0.017013
v 0.299034 0.008082 -0.003834
v 0.299034 0.008082 -0.125436
v 0.254978 0.028980 -0.119774
v 0.291886 0.008082 -0.139809
v 0.279412 0.008082 -0.148322
v 0.254921 0.008082 -0.156665
v 0.232176 0.028980 -0.128012
v 0.227196 0.008082 -0.173302
v 0.202822 0.028980 -0.145627
v 0.199771 0.008082 -0.196198
v 0.173613 0.028980 -0.170040
v 0.176875 0.008082 -0.223623
v 0.023700 0.028980 -0.069671
v -0.013939 0.008082 -0.042577
v 0.023700 0.028980 -0.251265
v -0.020820 0.008082 -0.059187
v -0.020820 0.008082 -0.267235
v -0.013440 0.008082 -0.288081
v 0.007407 0.008082 -0.295461
v 0.149200 0.028980 -0.199249
v 0.160238 0.008082 -0.251348
v 0.131586 0.028980 -0.228603
v 0.151895 0.008082 -0.275839
v 0.123347 0.028980 -0.251405
v 0.129009 0.008082 -0.295461
v 0.143382 0.008082 -0.288313
v -0.032718 0.000003 -0.319666
v 0.315562 0.000003 -0.319666
v 0.315562 0.000003 0.015333
v -0.032718 0.000003 0.015333
vt 0.974609 0.953613
vt 0.907715 0.953613
vt 0.907715 0.927734
vt 0.974609 0.927734
vt 0.907715 0.916992
vt 0.974609 0.916992
vt 0.907715 0.791992
vt 0.974609 0.791992
vt 0.907715 0.778320
vt 0.974609 0.778320
vt 0.907715 0.765137
vt 0.974609 0.765137
vt 0.907715 0.691895
vt 0.974609 0.691895
vt 0.907715 0.682129
vt 0.974609 0.682129
vt 0.907715 0.673340
vt 0.974609 0.673340
vt 0.907715 0.657715
vt 0.974609 0.657715
vt 0.907715 0.638184
vt 0.974609 0.638184
vt 0.907715 0.616699
vt 0.974609 0.616699
vt 0.974609 0.595215
vt 0.907715 0.595215
vt 0.974609 0.575684
vt 0.907715 0.575684
vt 0.974609 0.560059
vt 0.907715 0.560059
vt 0.974609 0.550781
vt 0.907715 0.550781
vt 0.974609 0.541016
vt 0.907715 0.541016
vt 0.974609 0.468018
vt 0.907715 0.468018
vt 0.974609 0.454590
vt 0.907715 0.454590
vt 0.974609 0.441406
vt 0.907715 0.441406
vt 0.974609 0.315918
vt 0.907715 0.315918
vt 0.974609 0.305176
vt 0.907715 0.305176
vt 0.974609 0.279541
vt 0.907715 0.279541
vt 0.949707 0.080017
vt 0.953613 0.089600
vt 0.953613 0.209961
vt 0.949707 0.222046
vt 0.932617 0.062622
vt 0.937500 0.226318
vt 0.867188 0.226318
vt 0.915039 0.045227
vt 0.905273 0.041229
vt 0.785156 0.041229
vt 0.858887 0.222168
vt 0.849121 0.200806
vt 0.854004 0.214966
vt 0.839355 0.184814
vt 0.826172 0.168945
vt 0.810547 0.155640
vt 0.794434 0.145996
vt 0.780273 0.141235
vt 0.772949 0.045502
vt 0.772949 0.136230
vt 0.768555 0.057556
vt 0.768555 0.127930
vt 0.597656 0.907227
vt 0.584473 0.967285
vt 0.563965 0.958008
vt 0.565918 0.874512
vt 0.526367 0.917480
vt 0.844238 0.967285
vt 0.824707 0.907227
vt 0.870117 0.957520
vt 0.879395 0.929199
vt 0.879395 0.764648
vt 0.824707 0.772461
vt 0.870605 0.745117
vt 0.854980 0.733887
vt 0.824707 0.722656
vt 0.795898 0.761230
vt 0.790039 0.699707
vt 0.759277 0.737305
vt 0.755859 0.668945
vt 0.723145 0.704590
vt 0.727051 0.631836
vt 0.536133 0.840332
vt 0.489014 0.876953
vt 0.536133 0.594727
vt 0.480469 0.854492
vt 0.480469 0.572754
vt 0.489502 0.544922
vt 0.515625 0.534668
vt 0.692383 0.665039
vt 0.706543 0.594238
vt 0.670410 0.625000
vt 0.695801 0.561035
vt 0.660156 0.594238
vt 0.667480 0.534668
vt 0.685059 0.544434
vt 0.000000 0.000000
vt 1.000000 0.000000
vt 1.000000 1.000000
vt 0.000000 1.000000
vn -0.70703 0.00000 0.70703
vn -0.50000 -0.70703 0.50000
vn -0.62061 -0.66553 0.41455
vn -0.83154 0.00000 0.55566
vn -0.73193 -0.66553 0.14563
vn -0.98096 0.00000 0.19507
vn -0.73096 -0.67090 -0.12549
vn -0.98535 0.00000 -0.16931
vn -0.55371 -0.62158 -0.55371
vn -0.70703 0.00000 -0.70703
vn -0.12549 -0.67090 -0.73096
vn -0.16931 0.00000 -0.98535
vn 0.17200 -0.65918 -0.73193
vn 0.22876 0.00000 -0.97363
vn 0.49658 -0.65430 -0.56982
vn 0.65674 0.00000 -0.75391
vn 0.65771 -0.67822 -0.32861
vn 0.89453 0.00000 -0.44727
vn 0.66162 -0.68408 -0.30688
vn 0.90723 0.00000 -0.42090
vn 0.58984 -0.68994 -0.41943
vn 0.81494 0.00000 -0.57959
vn 0.51367 -0.68750 -0.51367
vn 0.70703 0.00000 -0.70703
vn 0.57959 0.00000 -0.81494
vn 0.41943 -0.68994 -0.58984
vn 0.42090 0.00000 -0.90723
vn 0.30688 -0.68408 -0.66162
vn 0.44727 0.00000 -0.89453
vn 0.32861 -0.67822 -0.65771
vn 0.75391 0.00000 -0.65674
vn 0.56982 -0.65430 -0.49658
vn 0.97363 0.00000 -0.22876
vn 0.73193 -0.65918 -0.17200
vn 0.98535 0.00000 0.16931
vn 0.73096 -0.67090 0.12549
vn 0.70703 0.00000 0.70703
vn 0.55371 -0.62158 0.55371
vn 0.16931 0.00000 0.98535
vn 0.12549 -0.67090 0.73096
vn -0.19507 0.00000 0.98096
vn -0.14563 -0.66553 0.73193
vn -0.55566 0.00000 0.83154
vn -0.41455 -0.66553 0.62061
vn -0.70703 0.00000 0.70703
vn -0.50000 -0.70703 0.50000
vn -0.41455 -0.66553 0.62061
vn -0.14563 -0.66553 0.73193
vn 0.12549 -0.67090 0.73096
vn 0.55371 -0.62158 0.55371
vn -0.50000 -0.70703 0.50000
vn 0.73096 -0.67090 0.12549
vn 0.73193 -0.65918 -0.17200
vn -0.62061 -0.66553 0.41455
vn -0.73193 -0.66553 0.14563
vn -0.73096 -0.67090 -0.12549
vn 0.56982 -0.65430 -0.49658
vn 0.30688 -0.68408 -0.66162
vn 0.32861 -0.67822 -0.65771
vn 0.41943 -0.68994 -0.58984
vn 0.51367 -0.68750 -0.51367
vn 0.58984 -0.68994 -0.41943
vn 0.66162 -0.68408 -0.30688
vn 0.65771 -0.67822 -0.32861
vn -0.55371 -0.62158 -0.55371
vn 0.49658 -0.65430 -0.56982
vn -0.12549 -0.67090 -0.73096
vn 0.17200 -0.65918 -0.73193
vn -0.09143 0.96826 0.23193
vn -0.08252 0.90967 0.40747
vn -0.22876 0.91064 0.34375
vn -0.15381 0.97607 0.15381
vn -0.29590 0.90820 0.29590
vn 0.07513 0.91260 0.40161
vn 0.17297 0.97021 0.17090
vn 0.26245 0.92822 0.26318
vn 0.40430 0.91162 0.07605
vn 0.41699 0.90430 -0.09296
vn 0.21521 0.95801 -0.18921
vn 0.34863 0.89209 -0.28809
vn 0.23096 0.86816 -0.43945
vn 0.20862 0.86230 -0.46118
vn 0.11420 0.96484 -0.23596
vn 0.28516 0.86865 -0.40503
vn 0.14966 0.96631 -0.20862
vn 0.34766 0.87061 -0.34766
vn 0.17017 0.97070 -0.17017
vn 0.40503 0.86865 -0.28516
vn -0.23193 0.96826 0.09143
vn -0.34375 0.91064 0.22876
vn -0.17102 0.97021 -0.17249
vn -0.40747 0.90967 0.08252
vn -0.40161 0.91260 -0.07520
vn -0.26270 0.92871 -0.26221
vn -0.07593 0.91162 -0.40356
vn 0.20862 0.96631 -0.14966
vn 0.46118 0.86230 -0.20862
vn 0.23596 0.96484 -0.11420
vn 0.43945 0.86816 -0.23096
vn 0.18909 0.95801 -0.21509
vn 0.09283 0.90430 -0.41675
vn 0.28809 0.89209 -0.34863
vn 0.00000 1.00000 -0.00000
vn 0.00000 1.00000 -0.00000
vn 0.00000 1.00000 -0.00000
vn 0.00000 1.00000 -0.00000
g StationaryBlock_BottomLeft_sub0
usemtl StationaryBlock
f 1/1/1 3/3/3 2/2/2
f 1/1/1 4/4/4 3/3/3
f 5/5/5 3/3/3 4/4/4
f 5/5/5 4/4/4 6/6/6
f 7/7/7 5/5/5 6/6/6
f 7/7/7 6/6/6 8/8/8
f 9/9/9 7/7/7 8/8/8
f 9/9/9 8/8/8 10/10/10
f 11/11/11 9/9/9 10/10/10
f 11/11/11 10/10/10 12/12/12
f 13/13/13 11/11/11 12/12/12
f 13/13/13 12/12/12 14/14/14
f 14/14/14 15/15/15 13/13/13
f 14/14/14 16/16/16 15/15/15
f 16/16/16 17/17/17 15/15/15
f 16/16/16 18/18/18 17/17/17
f 18/18/18 19/19/19 17/17/17
f 18/18/18 20/20/20 19/19/19
f 20/20/20 21/21/21 19/19/19
f 20/20/20 22/22/22 21/21/21
f 22/22/22 23/23/23 21/21/21
f 22/22/22 24/24/24 23/23/23
f 25/25/25 23/23/23 24/24/24
f 25/25/25 26/26/26 23/23/23
f 27/27/27 26/26/26 25/25/25
f 27/27/27 28/28/28 26/26/26
f 29/29/29 28/28/28 27/27/27
f 29/29/29 30/30/30 28/28/28
f 31/31/31 30/30/30 29/29/29
f 31/31/31 32/32/32 30/30/30
f 33/33/33 32/32/32 31/31/31
f 33/33/33 34/34/34 32/32/32
f 34/34/34 33/33/33 35/35/35
f 34/34/34 35/35/35 36/36/36
f 36/36/36 35/35/35 37/37/37
f 36/36/36 37/37/37 38/38/38
f 38/38/38 37/37/37 39/39/39
f 38/38/38 39/39/39 40/40/40
f 40/40/40 39/39/39 41/41/41
f 40/40/40 41/41/41 42/42/42
f 42/42/42 41/41/41 43/43/43
f 42/42/42 43/43/43 44/44/44
f 45/45/45 44/44/44 43/43/43
f 45/45/45 46/46/46 44/44/44
f 47/47/47 49/49/49 48/48/48
f 49/49/49 47/47/47 50/50/50
f 50/50/50 47/47/47 51/51/51
f 50/50/50 51/51/51 52/52/52
f 52/52/52 51/51/51 53/53/53
f 53/53/53 51/51/51 54/54/54
f 53/53/53 54/54/54 55/55/55
f 53/53/53 55/55/55 56/56/56
f 53/53/53 56/56/56 57/57/57
f 57/57/57 56/56/56 58/58/58
f 57/57/57 58/58/58 59/59/59
f 58/58/58 56/56/56 60/60/60
f 60/60/60 56/56/56 61/61/61
f 61/61/61 56/56/56 62/62/62
f 62/62/62 56/56/56 63/63/63
f 63/63/63 56/56/56 64/64/64
f 64/64/64 56/56/56 65/65/65
f 64/64/64 65/65/65 66/66/66
f 66/66/66 65/65/65 67/67/67
f 66/66/66 67/67/67 68/68/68
f 69/69/69 71/71/71 70/70/70
f 72/72/72 71/71/71 69/69/69
f 72/72/72 73/73/73 71/71/71
f 69/69/69 70/70/70 74/74/74
f 69/69/69 74/74/74 75/75/75
f 75/75/75 72/72/72 69/69/69
f 75/75/75 74/74/74 76/76/76
f 75/75/75 76/76/76 77/77/77
f 75/75/75 77/77/77 78/78/78
f 75/75/75 78/78/78 79/79/79
f 72/72/72 75/75/75 79/79/79
f 79/79/79 78/78/78 80/80/80
f 79/79/79 80/80/80 81/81/81
f 79/79/79 81/81/81 82/82/82
f 79/79/79 82/82/82 83/83/83
f 72/72/72 79/79/79 83/83/83
f 83/83/83 82/82/82 84/84/84
f 83/83/83 84/84/84 85/85/85
f 72/72/72 83/83/83 85/85/85
f 85/85/85 84/84/84 86/86/86
f 85/85/85 86/86/86 87/87/87
f 72/72/72 85/85/85 87/87/87
f 87/87/87 86/86/86 88/88/88
f 87/87/87 89/89/89 72/72/72
f 89/89/89 73/73/73 72/72/72
f 89/89/89 90/90/90 73/73/73
f 89/89/89 87/87/87 91/91/91
f 91/91/91 92/92/92 89/89/89
f 89/89/89 92/92/92 90/90/90
f 91/91/91 93/93/93 92/92/92
f 91/91/91 94/94/94 93/93/93
f 91/91/91 95/95/95 94/94/94
f 87/87/87 88/88/88 96/96/96
f 91/91/91 87/87/87 96/96/96
f 96/96/96 88/88/88 97/97/97
f 96/96/96 97/97/97 98/98/98
f 91/91/91 96/96/96 98/98/98
f 98/98/98 97/97/97 99/99/99
f 100/100/100 95/95/95 91/91/91
f 91/91/91 98/98/98 100/100/100
f 98/98/98 99/99/99 100/100/100
f 100/100/100 101/101/101 95/95/95
f 100/100/100 99/99/99 102/102/102
f 100/100/100 102/102/102 101/101/101
g StationaryBlock_BottomLeft_sub1
usemtl StationaryBlock_Shadow
f 103/103/103 105/105/105 104/104/104
f 103/103/103 106/106/106 105/105/105
