# StationaryBlock_BottomRight - exported from Blocked In (Unity mesh, z negated to right-handed)
mtllib StationaryBlock_BottomRight.mtl
o StationaryBlock_BottomRight
v -0.016105 0.008082 -0.012532
v 0.013940 -0.151207 -0.042577
v -0.016105 -0.151207 -0.012532
v 0.013940 0.008082 -0.042577
v 0.020820 -0.151207 -0.059187
v 0.020820 0.008082 -0.059187
v 0.020820 -0.151207 -0.267235
v 0.020820 0.008082 -0.267235
v 0.013440 -0.151207 -0.288082
v 0.013440 0.008082 -0.288082
v -0.007407 -0.151207 -0.295461
v -0.007407 0.008082 -0.295461
v -0.129009 -0.151207 -0.295461
v -0.129009 0.008082 -0.295461
v -0.143382 -0.151207 -0.288313
v -0.143382 0.008082 -0.288313
v -0.151895 -0.151207 -0.275839
v -0.151895 0.008082 -0.275839
v -0.160238 -0.151207 -0.251348
v -0.160238 0.008082 -0.251348
v -0.176875 -0.151207 -0.223623
v -0.176875 0.008082 -0.223623
v -0.199771 -0.151207 -0.196198
v -0.199771 0.008082 -0.196198
v -0.227196 0.008082 -0.173302
v -0.227196 -0.151207 -0.173302
v -0.254921 0.008082 -0.156665
v -0.254921 -0.151207 -0.156665
v -0.279412 0.008082 -0.148322
v -0.279412 -0.151207 -0.148322
v -0.291886 0.008082 -0.139809
v -0.291886 -0.151207 -0.139809
v -0.299034 0.008082 -0.125436
v -0.299034 -0.151207 -0.125436
v -0.299034 0.008082 -0.003834
v -0.299034 -0.151207 -0.003834
v -0.291654 0.008082 0.017013
v -0.291654 -0.151207 0.017013
v -0.270808 0.008082 0.024393
v -0.270808 -0.151207 0.024393
v -0.062760 0.008082 0.024393
v -0.062760 -0.151207 0.024393
v -0.046150 0.008082 0.017512
v -0.046150 -0.151207 0.017512
v -0.016105 0.008082 -0.012532
v -0.016105 -0.151207 -0.012532
v -0.291654 -0.151207 0.017013
v -0.270808 -0.151207 0.024393
v -0.062760 -0.151207 0.024393
v -0.046150 -0.151207 0.017512
v -0.016105 -0.151207 -0.012532
v -0.299034 -0.151207 -0.003834
v -0.299034 -0.151207 -0.125436
v 0.013940 -0.151207 -0.042577
v 0.020820 -0.151207 -0.059187
v 0.020820 -0.151207 -0.267235
v -0.291886 -0.151207 -0.139809
v -0.254921 -0.151207 -0.156665
v -0.279412 -0.151207 -0.148322
v -0.227196 -0.151207 -0.173302
v -0.199771 -0.151207 -0.196198
v -0.176875 -0.151207 -0.223623
v -0.160238 -0.151207 -0.251348
v -0.151895 -0.151207 -0.275839
v 0.013440 -0.151207 -0.288082
v -0.143382 -0.151207 -0.288313
v -0.007407 -0.151207 -0.295461
v -0.129009 -0.151207 -0.295461
v -0.073244 0.028980 -0.020127
v -0.046150 0.008082 0.017512
v -0.062760 0.008082 0.024393
v -0.047836 0.028980 -0.044263
v -0.254978 0.028980 -0.119774
v -0.270808 0.008082 0.024393
v -0.016105 0.008082 -0.012532
v -0.254978 0.028980 -0.020127
v -0.291654 0.008082 0.017013
v -0.299034 0.008082 -0.003834
v -0.299034 0.008082 -0.125436
v -0.291886 0.008082 -0.139809
v -0.279412 0.008082 -0.148322
v -0.254921 0.008082 -0.156665
v -0.232176 0.028980 -0.128013
v -0.227196 0.008082 -0.173302
v -0.202822 0.028980 -0.145627
v -0.199771 0.008082 -0.196198
v -0.173613 0.028980 -0.170040
v -0.176875 0.008082 -0.223623
v -0.023700 0.028980 -0.069671
v 0.013940 0.008082 -0.042577
v -0.023700 0.028980 -0.251265
v 0.020820 0.008082 -0.059187
v 0.020820 0.008082 -0.267235
v 0.013440 0.008082 -0.288082
v -0.007407 0.008082 -0.295461
v -0.149200 0.028980 -0.199249
v -0.160238 0.008082 -0.251348
v -0.131585 0.028980 -0.228603
v -0.151895 0.008082 -0.275839
v -0.123347 0.028980 -0.251405
v -0.129009 0.008082 -0.295461
v -0.143382 0.008082 -0.288313
v 0.032718 0.000003 -0.319666
v 0.032718 0.000003 0.015333
v -0.315562 0.000003 0.015333
v -0.315562 0.000003 -0.319666
vt 0.974609 0.953613
vt 0.907715 0.927734
vt 0.907715 0.953613
vt 0.974609 0.927734
vt 0.907715 0.916992
vt 0.974609 0.916992
vt 0.907715 0.791992
vt 0.974609 0.791992
vt 0.907715 0.778320
vt 0.974609 0.778320
vt 0.907715 0.765137
vt 0.974609 0.765137
vt 0.907715 0.691895
vt 0.974609 0.691895
vt 0.907715 0.682129
vt 0.974609 0.682129
vt 0.907715 0.673340
vt 0.974609 0.673340
vt 0.907715 0.657715
vt 0.974609 0.657715
vt 0.907715 0.638184
vt 0.974609 0.638184
vt 0.907715 0.616699
vt 0.974609 0.616699
vt 0.974609 0.595215
vt 0.907715 0.595215
vt 0.974609 0.575684
vt 0.907715 0.575684
vt 0.974609 0.560059
vt 0.907715 0.560059
vt 0.974609 0.550781
vt 0.907715 0.550781
vt 0.974609 0.541016
vt 0.907715 0.541016
vt 0.974609 0.468018
vt 0.907715 0.468018
vt 0.974609 0.454590
vt 0.907715 0.454590
vt 0.974609 0.441406
vt 0.907715 0.441406
vt 0.974609 0.315918
vt 0.907715 0.315918
vt 0.974609 0.305176
vt 0.907715 0.305176
vt 0.974609 0.279541
vt 0.907715 0.279541
vt 0.949707 0.222046
vt 0.953613 0.209961
vt 0.953613 0.089600
vt 0.949707 0.080017
vt 0.932617 0.062622
vt 0.937500 0.226318
vt 0.867188 0.226318
vt 0.915039 0.045227
vt 0.905273 0.041229
vt 0.785156 0.041229
vt 0.858887 0.222168
vt 0.849121 0.200806
vt 0.854004 0.214966
vt 0.839355 0.184814
vt 0.826172 0.168945
vt 0.810547 0.155640
vt 0.794434 0.145996
vt 0.780273 0.141235
vt 0.772949 0.045502
vt 0.772949 0.136230
vt 0.768555 0.057556
vt 0.768555 0.127930
vt 0.597656 0.426514
vt 0.563965 0.477539
vt 0.584473 0.486816
vt 0.565918 0.394043
vt 0.824707 0.291748
vt 0.844238 0.486816
vt 0.526367 0.436768
vt 0.824707 0.426514
vt 0.870117 0.476807
vt 0.879395 0.448730
vt 0.879395 0.284180
vt 0.870605 0.264648
vt 0.854980 0.253174
vt 0.824707 0.241943
vt 0.795898 0.280762
vt 0.790039 0.219360
vt 0.759277 0.256836
vt 0.755859 0.188477
vt 0.723145 0.223877
vt 0.727051 0.151367
vt 0.536133 0.359619
vt 0.489014 0.396240
vt 0.536133 0.113953
vt 0.480469 0.373779
vt 0.480469 0.092346
vt 0.489502 0.064148
vt 0.515625 0.054169
vt 0.692383 0.184326
vt 0.706543 0.113831
vt 0.670410 0.144653
vt 0.695801 0.080750
vt 0.660156 0.113770
vt 0.667480 0.054169
vt 0.685059 0.063843
vt 0.000000 0.000000
vt 0.000000 1.000000
vt 1.000000 1.000000
vt 1.000000 0.000000
vn 0.70703 0.00000 0.70703
vn 0.62061 -0.66553 0.41455
vn 0.50000 -0.70703 0.50000
vn 0.83154 0.00000 0.55566
vn 0.73193 -0.66553 0.14563
vn 0.98096 0.00000 0.19507
vn 0.73096 -0.67090 -0.12549
vn 0.98535 0.00000 -0.16931
vn 0.55371 -0.62158 -0.55371
vn 0.70703 0.00000 -0.70703
vn 0.12549 -0.67090 -0.73096
vn 0.16931 0.00000 -0.98535
vn -0.17200 -0.65918 -0.73193
vn -0.22876 0.00000 -0.97363
vn -0.49658 -0.65430 -0.56982
vn -0.65674 0.00000 -0.75391
vn -0.65771 -0.67822 -0.32861
vn -0.89453 0.00000 -0.44727
vn -0.66162 -0.68408 -0.30688
vn -0.90723 0.00000 -0.42090
vn -0.58984 -0.68994 -0.41943
vn -0.81494 0.00000 -0.57959
vn -0.51367 -0.68750 -0.51367
vn -0.70703 0.00000 -0.70703
vn -0.57959 0.00000 -0.81494
vn -0.41943 -0.68994 -0.58984
vn -0.42090 0.00000 -0.90723
vn -0.30688 -0.68408 -0.66162
vn -0.44727 0.00000 -0.89453
vn -0.32861 -0.67822 -0.65771
vn -0.75391 0.00000 -0.65674
vn -0.56982 -0.65430 -0.49658
vn -0.97363 0.00000 -0.22876
vn -0.73193 -0.65918 -0.17200
vn -0.98535 0.00000 0.16931
vn -0.73096 -0.67090 0.12549
vn -0.70703 0.00000 0.70703
vn -0.55371 -0.62158 0.55371
vn -0.16931 0.00000 0.98535
vn -0.12549 -0.67090 0.73096
vn 0.19507 0.00000 0.98096
vn 0.14563 -0.66553 0.73193
vn 0.55566 0.00000 0.83154
vn 0.41455 -0.66553 0.62061
vn 0.70703 0.00000 0.70703
vn 0.50000 -0.70703 0.50000
vn -0.55371 -0.62158 0.55371
vn -0.12549 -0.67090 0.73096
vn 0.14563 -0.66553 0.73193
vn 0.41455 -0.66553 0.62061
vn 0.50000 -0.70703 0.50000
vn -0.73096 -0.67090 0.12549
vn -0.73193 -0.65918 -0.17200
vn 0.62061 -0.66553 0.41455
vn 0.73193 -0.66553 0.14563
vn 0.73096 -0.67090 -0.12549
vn -0.56982 -0.65430 -0.49658
vn -0.30688 -0.68408 -0.66162
vn -0.32861 -0.67822 -0.65771
vn -0.41943 -0.68994 -0.58984
vn -0.51367 -0.68750 -0.51367
vn -0.58984 -0.68994 -0.41943
vn -0.66162 -0.68408 -0.30688
vn -0.65771 -0.67822 -0.32861
vn 0.55371 -0.62158 -0.55371
vn -0.49658 -0.65430 -0.56982
vn 0.12549 -0.67090 -0.73096
vn -0.17200 -0.65918 -0.73193
vn 0.09143 0.96826 0.23193
vn 0.22876 0.91064 0.34375
vn 0.08252 0.90967 0.40747
vn 0.15381 0.97607 0.15381
vn -0.21521 0.95801 -0.18921
vn -0.07513 0.91260 0.40161
vn 0.29590 0.90820 0.29590
vn -0.17297 0.97021 0.17090
vn -0.26245 0.92822 0.26318
vn -0.40430 0.91162 0.07605
vn -0.41699 0.90430 -0.09296
vn -0.34863 0.89209 -0.28809
vn -0.23096 0.86816 -0.43945
vn -0.20862 0.86230 -0.46118
vn -0.11420 0.96484 -0.23596
vn -0.28516 0.86865 -0.40503
vn -0.14966 0.96631 -0.20862
vn -0.34766 0.87061 -0.34766
vn -0.17017 0.97070 -0.17017
vn -0.40503 0.86865 -0.28516
vn 0.23193 0.96826 0.09143
vn 0.34375 0.91064 0.22876
vn 0.17102 0.97021 -0.17249
vn 0.40747 0.90967 0.08252
vn 0.40161 0.91260 -0.07520
vn 0.26270 0.92871 -0.26221
vn 0.07593 0.91162 -0.40356
vn -0.20862 0.96631 -0.14966
vn -0.46118 0.86230 -0.20862
vn -0.23596 0.96484 -0.11420
vn -0.43945 0.86816 -0.23096
vn -0.18909 0.95801 -0.21509
vn -0.09283 0.90430 -0.41675
vn -0.28809 0.89209 -0.34863
vn 0.00000 1.00000 -0.00000
vn 0.00000 1.00000 -0.00000
vn 0.00000 1.00000 -0.00000
vn 0.00000 1.00000 -0.00000
g StationaryBlock_BottomRight_sub0
usemtl StationaryBlock
f 1/1/1 3/3/3 2/2/2
f 1/1/1 2/2/2 4/4/4
f 5/5/5 4/4/4 2/2/2
f 5/5/5 6/6/6 4/4/4
f 7/7/7 6/6/6 5/5/5
f 7/7/7 8/8/8 6/6/6
f 9/9/9 8/8/8 7/7/7
f 9/9/9 10/10/10 8/8/8
f 11/11/11 10/10/10 9/9/9
f 11/11/11 12/12/12 10/10/10
f 13/13/13 12/12/12 11/11/11
f 13/13/13 14/14/14 12/12/12
f 14/14/14 13/13/13 15/15/15
f 14/14/14 15/15/15 16/16/16
f 16/16/16 15/15/15 17/17/17
f 16/16/16 17/17/17 18/18/18
f 18/18/18 17/17/17 19/19/19
f 18/18/18 19/19/19 20/20/20
f 20/20/20 19/19/19 21/21/21
f 20/20/20 21/21/21 22/22/22
f 22/22/22 21/21/21 23/23/23
f 22/22/22 23/23/23 24/24/24
f 25/25/25 24/24/24 23/23/23
f 25/25/25 23/23/23 26/26/26
f 27/27/27 25/25/25 26/26/26
f 27/27/27 26/26/26 28/28/28
f 29/29/29 27/27/27 28/28/28
f 29/29/29 28/28/28 30/30/30
f 31/31/31 29/29/29 30/30/30
f 31/31/31 30/30/30 32/32/32
f 33/33/33 31/31/31 32/32/32
f 33/33/33 32/32/32 34/34/34
f 34/34/34 35/35/35 33/33/33
f 34/34/34 36/36/36 35/35/35
f 36/36/36 37/37/37 35/35/35
f 36/36/36 38/38/38 37/37/37
f 38/38/38 39/39/39 37/37/37
f 38/38/38 40/40/40 39/39/39
f 40/40/40 41/41/41 39/39/39
f 40/40/40 42/42/42 41/41/41
f 42/42/42 43/43/43 41/41/41
f 42/42/42 44/44/44 43/43/43
f 45/45/45 43/43/43 44/44/44
f 45/45/45 44/44/44 46/46/46
f 47/47/47 49/49/49 48/48/48
f 49/49/49 47/47/47 50/50/50
f 50/50/50 47/47/47 51/51/51
f 51/51/51 47/47/47 52/52/52
f 51/51/51 52/52/52 53/53/53
f 51/51/51 53/53/53 54/54/54
f 54/54/54 53/53/53 55/55/55
f 55/55/55 53/53/53 56/56/56
f 56/56/56 53/53/53 57/57/57
f 56/56/56 57/57/57 58/58/58
f 58/58/58 57/57/57 59/59/59
f 56/56/56 58/58/58 60/60/60
f 56/56/56 60/60/60 61/61/61
f 56/56/56 61/61/61 62/62/62
f 56/56/56 62/62/62 63/63/63
f 56/56/56 63/63/63 64/64/64
f 56/56/56 64/64/64 65/65/65
f 65/65/65 64/64/64 66/66/66
f 65/65/65 66/66/66 67/67/67
f 67/67/67 66/66/66 68/68/68
f 69/69/69 71/71/71 70/70/70
f 72/72/72 69/69/69 70/70/70
f 73/73/73 69/69/69 72/72/72
f 69/69/69 74/74/74 71/71/71
f 72/72/72 70/70/70 75/75/75
f 69/69/69 76/76/76 74/74/74
f 69/69/69 73/73/73 76/76/76
f 76/76/76 77/77/77 74/74/74
f 76/76/76 78/78/78 77/77/77
f 76/76/76 79/79/79 78/78/78
f 76/76/76 73/73/73 79/79/79
f 73/73/73 80/80/80 79/79/79
f 73/73/73 81/81/81 80/80/80
f 73/73/73 82/82/82 81/81/81
f 73/73/73 83/83/83 82/82/82
f 73/73/73 72/72/72 83/83/83
f 83/83/83 84/84/84 82/82/82
f 83/83/83 85/85/85 84/84/84
f 83/83/83 72/72/72 85/85/85
f 85/85/85 86/86/86 84/84/84
f 85/85/85 87/87/87 86/86/86
f 85/85/85 72/72/72 87/87/87
f 87/87/87 88/88/88 86/86/86
f 89/89/89 87/87/87 72/72/72
f 89/89/89 72/72/72 75/75/75
f 89/89/89 75/75/75 90/90/90
f 87/87/87 89/89/89 91/91/91
f 91/91/91 89/89/89 92/92/92
f 89/89/89 90/90/90 92/92/92
f 91/91/91 92/92/92 93/93/93
f 91/91/91 93/93/93 94/94/94
f 91/91/91 94/94/94 95/95/95
f 87/87/87 96/96/96 88/88/88
f 87/87/87 91/91/91 96/96/96
f 96/96/96 97/97/97 88/88/88
f 96/96/96 98/98/98 97/97/97
f 96/96/96 91/91/91 98/98/98
f 98/98/98 99/99/99 97/97/97
f 100/100/100 91/91/91 95/95/95
f 98/98/98 91/91/91 100/100/100
f 98/98/98 100/100/100 99/99/99
f 100/100/100 95/95/95 101/101/101
f 100/100/100 102/102/102 99/99/99
f 100/100/100 101/101/101 102/102/102
g StationaryBlock_BottomRight_sub1
usemtl StationaryBlock_Shadow
f 103/103/103 105/105/105 104/104/104
f 103/103/103 106/106/106 105/105/105
